<svg shape-rendering="crispEdges" preserveAspectRatio="none" overflow="visible" style="display: block;" width="81" height="110" viewBox="0 0 81 110" fill="none" xmlns="http://www.w3.org/2000/svg">
<g id="AYNA_KRAL_JOKER" clip-path="url(#clip0_0_4)">
<path id="color_3f5a76_1" fill-rule="evenodd" clip-rule="evenodd" d="M6 0H41V1H30V2H26V3H23V4H20V5H19V6H17V7H16V8H15V9H14V10H12V9H11V8H10V7H9V6H8V5H7V4H6V1V0ZM42 0H43V2H42V1V0ZM51 0H69V1H71V2H72V4H71V6H70V7H69V8H68V9H67V10H66V7H65V6H64V5H61V4H59V3H56V2H51V1V0ZM41 6H49V7H50V14H49V15H48V14H45V13H41V14H39V13H38V11H39V9H40V7H41V6ZM8 8H9V9H10V10H11V11H12V12H13V17H11V18H10V20H9V22H8V26H7V30H5V29H3V28H1V27H0V22H1V19H2V17H3V14H4V13H5V12H6V11H7V10H8V9V8ZM70 8H72V10H73V11H74V12H75V13H76V14H77V16H78V18H79V22H77V23H75V24H74V25H72V24H71V23H70V22H69V21H68V20H67V19H65V17H64V14H65V12H66V11H67V10H69V9H70V8ZM72 26H74V40H72V42H70V43H66V44H65V38H66V28H71V27H72V26ZM0 29H2V30H4V31H7V32H8V33H9V40H8V46H7V47H5V46H3V45H2V44H0V30V29ZM74 41H75V42H81V78H80V79H79V80H78V81H77V82H76V84H75V85H74V86H73V87H72V89H71V91H70V92H69V94H68V96H67V97H65V98H64V99H63V101H62V102H61V104H60V105H58V106H54V107H43V106H41V105H39V103H38V94H39V93H41V94H43V96H44V97H50V96H52V95H54V94H57V93H58V92H59V91H60V89H61V87H62V85H63V82H64V80H65V78H66V73H67V71H68V70H69V69H70V68H71V66H72V64H73V63H74V61H75V59H76V57H75V54H76V53H77V52H76V51H75V48H74V46H73V42H74V41ZM0 59H1V63H2V68H0V60V59ZM1 69H10V70H11V73H12V75H13V77H14V79H15V83H16V90H15V91H14V92H13V93H12V94H11V95H8V92H7V90H6V86H5V85H4V83H3V80H2V74H1V71H0V70H1V69ZM11 95H12V96H11V95ZM13 96H14V97H29V98H30V99H32V100H36V102H37V104H38V105H36V106H34V107H26V106H25V105H24V104H23V103H13V102H11V101H9V100H10V99H11V98H12V97H13V96ZM9 97H10V98H9V97ZM8 98H9V99H8V98Z" fill="#3F5A76"/>
<path id="color_516c89_1" fill-rule="evenodd" clip-rule="evenodd" d="M30 1H41V3H40V5H39V7H37V9H28V10H25V11H23V12H22V13H21V14H20V15H19V16H17V15H16V14H15V13H14V12H13V10H14V9H15V8H16V7H17V6H19V5H20V4H23V3H26V2H30V1ZM51 2H56V3H59V4H61V5H64V6H65V7H66V10H65V11H64V12H63V13H62V14H61V15H60V17H59V13H58V12H57V11H56V10H55V9H51V8H52V3H51V2ZM38 8H39V9H38V8ZM41 13H45V14H48V15H49V17H48V24H47V23H44V22H43V23H41V22H40V21H39V20H40V16H41V15H39V14H41V13ZM63 13H65V14H64V17H65V19H67V20H68V21H69V22H70V23H71V24H72V26H70V27H61V26H59V25H58V24H60V19H61V16H62V15H63V14V13ZM13 14H14V15H16V17H18V19H19V21H18V22H17V23H16V25H15V26H14V28H13V31H8V30H7V26H8V22H9V20H10V18H11V17H13V15V14ZM63 28H66V38H65V44H63V45H62V44H61V42H60V41H59V40H58V38H59V37H58V34H59V32H60V31H61V29H63V28ZM8 32H11V33H12V34H13V35H16V36H17V38H16V41H14V40H13V39H10V40H9V33H8V32ZM8 40H9V42H10V43H11V44H12V45H14V47H10V48H8V47H7V46H8V41V40ZM71 43H73V46H74V48H75V50H74V49H73V48H72V47H71V46H70V45H69V44H71V43ZM0 45H1V46H3V48H2V51H3V53H4V54H5V56H6V62H7V66H8V68H2V63H1V59H0V46V45ZM74 55H75V57H76V59H75V61H74V63H73V64H72V66H71V68H70V69H69V70H68V71H67V73H66V78H65V80H64V82H63V85H62V87H61V89H60V91H59V92H58V93H57V94H54V95H52V96H50V97H44V96H43V94H41V93H42V90H41V89H40V88H41V87H46V86H49V85H50V84H51V83H52V82H53V81H54V79H55V78H56V77H57V76H58V75H59V73H60V69H61V68H62V67H63V66H64V65H65V64H66V63H67V62H68V61H69V60H70V59H71V58H72V57H73V56H74V55ZM17 62H19V64H20V65H21V66H19V67H17V68H16V66H17V63V62ZM19 67H20V68H19V67ZM11 71H12V72H13V74H14V75H15V76H16V77H17V79H18V82H19V83H20V84H21V86H20V87H19V88H18V89H16V83H15V79H14V77H13V75H12V73H11V72V71ZM20 87H21V88H22V89H23V91H24V92H25V93H27V94H30V95H34V94H36V95H37V97H36V100H32V99H30V98H29V97H14V95H13V94H14V93H15V92H16V93H15V94H14V95H16V93H17V91H18V89H20V88V87ZM80 99H81V103H79V101H80V100V99ZM78 103H79V106H78V104V103Z" fill="#516C89"/>
<path id="color_dce65d_1" fill-rule="evenodd" clip-rule="evenodd" d="M28 18H29V19H28V18ZM30 21H31V24H30V22V21ZM38 21H39V22H40V23H41V24H42V25H43V26H44V27H45V28H46V29H47V30H46V34H45V32H44V31H43V30H42V29H41V28H40V27H39V26H38V25H37V22H38V21ZM29 24H30V25H29V24ZM30 25H31V27H32V28H31V29H30V30H29V29H28V28H29V26H30V25ZM32 29H33V31H34V33H36V34H37V35H38V36H40V37H41V38H42V39H41V40H40V41H38V43H37V41H36V40H35V39H34V37H33V35H32V30V29ZM53 29H54V30H55V31H53V36H54V39H53V40H52V41H50V42H49V43H48V41H47V40H46V41H44V45H43V44H42V41H43V39H47V40H51V39H52V34H51V31H52V30H53V29ZM47 30H49V31H48V32H47V31V30ZM21 31H22V32H23V34H24V35H25V40H24V39H23V38H22V37H21V36H19V35H18V33H19V34H20V33H21V32V31ZM55 32H56V33H55V32ZM55 34H56V35H55V34ZM56 36H57V38H56V39H55V37H56V36ZM26 38H27V41H28V42H29V44H30V45H31V47H32V50H30V47H29V45H28V44H27V42H26V39V38ZM10 39H11V40H10V39ZM54 39H55V40H54V39ZM57 39H58V40H59V41H60V42H61V44H62V45H61V46H60V47H58V48H57V49H56V48H55V46H54V45H51V44H53V43H54V42H55V41H56V40H57V39ZM58 41H57V42H55V44H56V46H58V45H59V42H58V41ZM14 41H15V43H17V44H18V45H19V46H20V47H15V46H14V45H12V44H14V42V41ZM49 43H50V44H49V43ZM48 44H49V45H48V44ZM44 45H45V46H44V45ZM64 45H66V46H65V47H64V48H63V49H62V50H61V51H60V52H59V53H58V54H57V55H56V56H55V57H54V58H53V59H52V60H51V61H50V62H49V63H48V64H47V65H46V66H45V67H44V68H43V69H42V70H41V71H40V72H39V73H38V74H37V75H36V76H35V73H36V68H37V69H40V68H41V65H40V64H39V63H40V62H41V61H40V60H41V59H42V58H47V59H42V60H41V61H42V62H43V63H47V59H49V58H52V57H53V56H54V54H53V55H52V56H51V57H50V56H46V55H50V51H48V50H46V49H45V48H44V49H43V50H41V51H40V52H39V53H38V51H39V49H42V48H43V46H44V47H45V48H46V49H48V48H49V47H50V48H53V49H55V51H54V54H55V52H56V50H58V49H59V48H60V47H62V46H64V45ZM69 45H70V46H71V47H72V48H73V49H74V51H73V52H72V53H71V54H70V55H69V56H68V57H67V58H66V59H65V60H64V61H63V62H62V63H61V64H60V65H59V66H58V67H57V68H56V69H55V70H54V71H53V72H52V73H51V74H50V75H49V76H48V77H47V78H46V79H45V80H44V81H43V82H42V83H41V84H39V85H38V86H37V84H36V81H35V79H36V78H37V77H38V76H39V75H40V74H41V73H42V72H43V71H44V70H45V69H46V68H47V67H48V66H49V65H50V64H51V63H52V62H53V61H54V60H55V59H56V58H57V57H58V56H59V55H60V54H61V53H62V52H63V51H64V50H65V49H66V48H67V47H68V46H69V45ZM36 46H37V48H36V50H33V48H35V47H36V46ZM3 47H5V48H3V47ZM17 48H20V49H17V48ZM69 49H68V52H71V49H70H69ZM21 49H23V50H21V49ZM37 49H38V50H37V49ZM14 50H20V52H22V53H23V54H24V56H25V57H27V60H26V59H25V58H22V57H21V56H20V55H19V54H18V53H17V52H16V51H14V50ZM32 50H33V53H34V56H32V55H31V53H30V52H31V51H32V50ZM43 50H44V51H43V50ZM42 51H43V52H42V51ZM75 51H76V52H77V53H76V54H75V55H74V56H73V57H72V58H71V59H70V60H69V61H68V62H67V63H66V64H65V65H64V66H63V67H62V68H61V69H60V70H59V71H58V72H57V73H56V74H55V75H54V76H53V77H52V78H51V79H50V80H49V81H48V82H47V83H46V84H45V85H44V86H42V87H41V88H39V87H40V86H41V85H42V84H43V83H45V82H46V81H47V80H48V79H49V78H50V77H51V76H52V75H53V74H54V73H55V72H56V71H57V70H58V69H59V68H60V67H61V66H62V65H63V64H64V63H65V62H66V61H67V60H68V59H69V58H70V57H71V56H72V55H73V54H74V53H75V52V51ZM7 52H9V53H10V55H11V56H12V58H14V60H15V61H16V65H15V68H14V65H13V63H12V61H11V60H10V57H9V56H8V55H7V54H6V53H7V52ZM36 52H37V53H36V52ZM41 52H42V53H41V52ZM37 53H38V54H37V53ZM40 53H41V54H40V53ZM43 53H44V54H45V55H41V54H43V53ZM37 55H40V56H37V55ZM43 56H45V57H43V56ZM36 57H37V58H36V57ZM60 58H59V61H62V58H61H60ZM29 58H31V61H29V59V58ZM32 58H34V61H36V62H34V64H33V60H32V59V58ZM38 58H39V59H38V58ZM23 59H25V60H23V59ZM18 60H21V61H23V63H24V64H25V65H24V66H21V65H20V64H19V62H18V61V60ZM31 62H32V64H30V63H31V62ZM37 62H38V63H37V62ZM35 63H37V64H35V63ZM34 64H35V66H34V65V64ZM26 67H27V68H26V67ZM33 67H34V69H33V68V67ZM50 68H49V71H52V68H51H50ZM21 68H23V69H21V68ZM11 69H14V70H15V71H14V74H13V72H12V71H11V70V69ZM26 69H28V73H27V74H25V75H24V74H23V73H22V72H20V71H23V72H26V70V69ZM29 69H31V72H30V71H29V70V69ZM34 69H35V72H34V70V69ZM18 71H19V72H18V71ZM19 72H20V73H21V74H22V75H23V76H21V77H19V78H17V77H16V76H15V75H14V74H15V75H16V76H17V75H19V73V72ZM33 72H34V76H32V74H33V73V72ZM27 75H29V79H28V80H26V78H25V77H26V76H27V75ZM31 76H32V77H31V76ZM41 77H40V80H43V77H42H41ZM22 78H24V79H25V81H20V83H19V82H18V80H19V79H22V78ZM30 78H32V79H33V80H34V82H35V84H30V85H27V83H26V82H27V81H29V83H32V80H30V79V78ZM35 85H36V88H35V87H34V88H32V89H30V88H29V87H30V86H35V85Z" fill="#DCE65D"/>
<path id="color_cadbed_1" fill-rule="evenodd" clip-rule="evenodd" d="M41 0H42V2H43V0H44V3H43V4H42V6H41V7H40V9H39V8H38V9H39V11H38V13H39V15H41V16H40V20H38V22H37V25H36V26H35V27H34V28H33V29H32V34H31V41H32V43H33V44H32V45H33V44H34V45H36V44H37V43H38V41H40V40H41V39H42V38H43V36H44V35H45V34H46V30H47V25H48V17H49V14H50V0H51V3H52V8H51V18H50V28H51V27H53V26H54V25H55V24H56V23H58V22H59V18H60V15H61V14H62V13H63V12H64V11H65V10H67V9H68V8H69V7H70V6H71V5H72V4H74V3H75V2H77V3H76V4H74V5H73V6H72V7H71V8H70V9H69V10H67V11H66V12H65V13H63V15H62V16H61V19H60V22H59V23H60V24H58V25H57V27H56V26H55V27H56V28H55V29H53V30H52V31H50V30H49V27H48V30H47V32H48V31H50V32H49V34H48V33H47V34H46V35H45V36H46V35H47V34H48V35H47V36H46V37H45V38H44V39H43V41H41V42H40V45H44V46H39V45H38V47H39V51H38V53H37V52H36V53H37V54H38V53H39V52H40V51H41V50H43V49H44V48H45V47H44V46H47V44H48V43H49V42H50V41H52V40H53V39H54V36H55V35H56V33H57V32H58V30H59V29H60V28H61V27H70V26H72V25H74V24H76V23H77V22H79V21H80V20H81V22H79V23H78V24H76V25H74V26H72V27H71V28H63V29H61V31H60V32H59V34H58V37H59V38H58V39H57V40H56V41H55V42H54V43H53V44H51V45H50V46H51V47H54V48H56V49H57V48H58V47H60V46H61V45H63V44H66V43H70V42H72V40H76V41H81V42H75V41H74V42H73V43H71V44H67V45H64V46H62V47H60V48H59V49H58V50H56V52H55V54H54V51H55V49H53V48H50V47H49V48H48V49H46V48H45V49H46V50H45V51H44V50H43V51H42V52H41V53H40V54H41V53H42V52H43V51H44V53H43V54H41V55H46V56H50V57H51V56H52V55H53V54H54V56H53V57H52V58H49V59H47V58H42V59H41V60H40V61H41V60H42V59H47V60H42V61H41V62H40V63H39V65H38V66H37V68H36V73H35V81H36V84H37V86H38V87H39V88H40V89H41V90H42V93H39V92H41V91H40V90H39V89H38V88H37V87H36V85H35V82H34V80H33V79H32V78H30V80H29V81H27V82H26V83H25V84H24V85H23V84H22V85H23V86H22V87H20V86H21V83H22V82H23V81H25V79H24V76H23V75H22V74H21V73H20V72H19V71H16V70H14V69H11V70H10V69H0V68H15V65H16V59H15V57H14V56H13V53H12V52H11V51H10V50H9V49H8V48H5V47H3V46H1V45H0V44H2V45H3V46H5V47H8V48H10V47H20V48H16V49H20V48H23V49H21V50H23V49H24V42H23V41H22V39H20V38H19V37H18V36H16V35H13V34H12V33H11V32H7V31H4V30H2V29H0V27H1V28H3V29H5V30H8V31H12V32H13V33H14V34H17V35H19V36H20V37H21V38H23V39H24V40H25V35H24V28H23V27H24V25H23V24H22V22H21V21H20V20H19V19H18V17H16V15H14V14H13V12H12V11H11V10H10V9H9V8H8V7H7V6H6V5H5V4H4V2H6V4H7V5H8V6H9V7H10V8H11V9H12V10H13V12H14V13H15V14H16V15H17V16H18V17H19V18H20V19H21V20H22V22H23V23H24V24H25V26H26V27H27V26H28V25H30V24H33V25H35V23H36V21H37V19H38V18H39V16H38V14H37V10H36V9H37V7H39V5H40V3H41V1V0ZM48 0H49V1H48V0ZM31 25H30V26H29V28H26V30H27V37H28V34H29V31H30V29H31V28H32V27H33V26H32V25H31ZM54 27H53V28H54V27ZM26 31H25V32H26V31ZM26 33H25V34H26V33ZM57 36H56V37H55V39H54V40H55V39H56V38H57V37V36ZM27 38H26V41H25V42H26V49H27V54H28V58H29V61H31V56H30V54H29V51H30V50H32V47H31V45H30V44H29V42H28V40H27V39V38ZM50 43H49V44H48V45H49V44H50V43ZM37 46H36V47H35V48H33V50H32V51H31V52H30V53H31V55H32V56H34V54H35V50H36V48H37V47V46ZM12 49H11V50H12V51H13V52H14V55H15V56H16V57H17V58H18V59H19V58H25V59H22V60H25V59H26V60H27V56H26V51H25V50H24V51H20V50H15V49H13H12ZM38 49H37V50H38V49ZM38 55H37V56H40V55H39H38ZM44 56H43V57H45V56H44ZM36 57H35V58H32V60H33V64H34V62H36V61H37V60H38V59H39V58H37V57H36ZM19 60H18V62H17V66H16V68H17V67H19V66H24V65H25V64H26V63H28V62H27V61H21V60H20H19ZM32 62H31V63H30V64H29V65H28V67H29V71H30V72H31V68H32V63V62ZM38 62H37V63H35V64H34V66H35V64H37V63H38V62ZM27 64H26V65H27V64ZM20 67H19V68H20V67ZM25 67H24V68H21V69H24V68H27V67H26H25ZM34 67H33V69H34V68V67ZM26 69H25V70H23V71H20V72H22V73H23V74H24V76H25V78H26V80H28V79H29V72H28V69H27H26ZM35 69H34V72H33V74H32V76H31V77H32V76H34V72H35V70V69ZM19 87H20V89H18V88H19V87ZM16 89H18V91H17V93H16V92H15V93H14V94H13V95H14V94H15V93H16V95H14V96H13V97H12V98H11V99H10V100H9V101H7V100H5V101H1V103H3V102H5V101H7V102H5V103H4V104H0V100H3V99H6V98H7V97H9V95H11V94H12V93H13V92H14V91H15V90H16V89ZM37 93H39V94H38V103H39V105H41V106H43V107H44V108H41V110H39V106H38V104H37V102H36V97H37V94V93ZM12 95H11V96H12V95ZM10 97H9V98H8V99H7V100H8V99H9V98H10V97ZM44 108H46V109H48V110H45V109H44V108Z" fill="#CADBED"/>
<path id="color_344d68_1" fill-rule="evenodd" clip-rule="evenodd" d="M0 69H1V70H0V69ZM0 71H1V74H2V80H3V83H4V85H5V86H6V90H7V92H8V95H9V97H7V98H6V99H3V100H0V72V71ZM80 78H81V99H80V101H79V103H78V106H77V108H75V110H48V109H46V108H44V107H54V106H58V105H60V104H61V102H62V101H63V99H64V98H65V97H67V96H68V94H69V92H70V91H71V89H72V87H73V86H74V85H75V84H76V82H77V81H78V80H79V79H80V78ZM7 99H8V100H7V99ZM5 100H7V101H5V100ZM1 101H5V102H3V103H1V102V101ZM7 101H11V102H13V103H23V104H24V105H25V106H26V107H34V106H36V105H38V106H39V110H6V108H4V106H2V104H4V103H5V102H7V101ZM41 108H44V109H45V110H41V109V108Z" fill="#344D68"/>
<path id="color_5f7e9e_1" fill-rule="evenodd" clip-rule="evenodd" d="M28 9H36V10H37V14H38V15H36V14H35V15H33V18H26V19H25V21H24V23H23V22H22V20H21V19H20V18H19V17H18V16H19V15H20V14H21V13H22V12H23V11H25V10H28V9ZM51 9H55V10H56V11H57V12H58V13H59V17H60V18H59V22H58V23H56V21H55V18H54V17H52V16H51V10V9ZM38 16H39V18H38V17V16ZM19 20H20V21H21V22H22V24H23V25H24V27H23V28H24V30H23V31H21V29H19V28H16V29H15V32H16V34H14V33H13V32H12V31H13V28H14V26H15V25H16V23H17V22H18V21H19V20ZM38 20H39V21H38V20ZM39 21H40V22H39V21ZM40 22H41V23H40V22ZM43 22H44V23H47V24H48V25H47V29H46V28H45V27H44V26H43V25H42V24H41V23H43V22ZM59 22H60V23H59V22ZM36 25H38V26H39V27H40V28H38V27H36V26V25ZM57 25H59V26H61V28H60V29H59V30H58V32H57V33H56V32H55V30H54V29H55V28H56V27H55V26H56V27H57V26V25ZM48 27H49V30H48V28V27ZM53 27H54V28H53V27ZM49 30H50V31H49V30ZM17 36H18V37H19V38H20V39H22V41H23V42H24V45H23V47H22V48H20V46H19V45H18V44H17V43H15V41H16V38H17V37V36ZM14 46H15V47H14V46ZM7 48H8V49H7V48ZM16 48H17V49H16V48ZM8 49H9V50H10V51H11V52H12V53H13V56H14V57H15V59H16V61H15V60H14V58H12V56H11V55H10V53H9V52H8V50V49ZM11 49H14V50H13V51H12V50H11V49ZM5 54H7V55H8V56H9V57H10V60H11V61H12V63H13V65H14V68H8V66H7V62H6V56H5V55V54ZM59 70H60V73H59V75H58V76H57V77H56V78H55V79H54V81H53V82H52V83H51V84H50V85H49V86H46V87H42V86H44V85H45V84H46V83H47V82H48V81H49V80H50V79H51V78H52V77H53V76H54V75H55V74H56V73H57V72H58V71H59V70ZM25 83H27V85H28V87H29V88H30V89H32V88H34V87H35V88H36V87H37V88H38V89H39V90H40V91H41V92H39V93H37V95H36V94H34V95H30V94H27V93H25V92H24V91H23V89H22V88H21V87H22V86H23V85H22V84H23V85H24V84H25V83Z" fill="#5F7E9E"/>
<path id="color_aaaa42_1" fill-rule="evenodd" clip-rule="evenodd" d="M36 15H38V19H37V20H36V19H35V18H36V16V15ZM28 19H30V20H31V21H30V24H28V20V19ZM18 28H19V29H21V33H20V34H19V30H18V29V28ZM53 31H55V33H54V35H55V36H53V32V31ZM12 39H13V40H14V44H11V43H12V40V39ZM46 40H47V41H48V44H47V42H45V45H44V41H46V40ZM57 41H58V42H59V45H58V46H56V44H55V42H57V41ZM57 43H56V44H58V43H57ZM67 44H69V46H68V47H67V48H66V49H65V50H64V51H63V52H62V53H61V54H60V55H59V56H58V57H57V58H56V59H55V60H54V61H53V62H52V63H51V64H50V65H49V66H48V67H47V68H46V69H45V70H44V71H43V72H42V73H41V74H40V75H39V76H38V77H37V78H36V79H35V76H36V75H37V74H38V73H39V72H40V71H41V70H42V69H43V68H44V67H45V66H46V65H47V64H48V63H49V62H50V61H51V60H52V59H53V58H54V57H55V56H56V55H57V54H58V53H59V52H60V51H61V50H62V49H63V48H64V47H65V46H66V45H67V44ZM45 45H47V46H45V45ZM50 45H54V46H50V45ZM54 46H55V48H54V47V46ZM5 48H7V49H8V52H7V53H5V51H6V50H5V49V48ZM33 50H35V51H34V53H33V51V50ZM45 50H48V51H50V55H45V54H44V51H45V50ZM46 51H45V53H46V54H49V53H48V52H47V51H46ZM74 50H75V53H74V54H73V55H72V56H71V57H70V58H69V59H68V60H67V61H66V62H65V63H64V64H63V65H62V66H61V67H60V68H59V69H58V70H57V71H56V72H55V73H54V74H53V75H52V76H51V77H50V78H49V79H48V80H47V81H46V82H45V83H43V84H42V85H41V86H40V87H38V85H39V84H41V83H42V82H43V81H44V80H45V79H46V78H47V77H48V76H49V75H50V74H51V73H52V72H53V71H54V70H55V69H56V68H57V67H58V66H59V65H60V64H61V63H62V62H63V61H64V60H65V59H66V58H67V57H68V56H69V55H70V54H71V53H72V52H73V51H74V50ZM34 53H35V54H34V53ZM35 57H36V58H38V59H35V60H37V61H34V58H35V57ZM42 60H43V61H44V62H46V60H47V63H43V62H42V61V60ZM29 64H32V68H31V65H29V64ZM39 64H40V65H41V68H40V69H37V67H38V68H39V67H40V66H39V65V64ZM28 65H29V67H28V66V65ZM24 67H26V68H24V67ZM29 67H30V68H31V69H29V68V67ZM23 68H24V69H23V68ZM25 69H26V72H23V70H24V71H25V70V69ZM15 70H16V71H15V70ZM14 71H15V74H14V72V71ZM16 71H18V72H19V75H17V76H16V75H15V74H17V72H16V71ZM28 72H29V75H27V76H26V77H25V76H24V75H25V74H27V73H28V72ZM21 76H24V78H22V79H19V80H18V79H17V78H19V77H21V76ZM30 84H35V86H30V87H28V85H30V84Z" fill="#AAAA42"/>
<path id="color_7da0c7_1" fill-rule="evenodd" clip-rule="evenodd" d="M51 16H52V17H54V18H55V21H56V24H55V25H54V26H53V27H51V28H50V18H51V17V16ZM29 18H33V19H34V20H37V21H36V23H35V25H33V24H31V20H30V19H29V18ZM24 21H25V24H24V22V21ZM25 24H26V25H28V26H27V27H26V26H25V25V24ZM31 25H32V26H33V27H31V26V25ZM35 26H36V27H38V28H41V29H42V30H43V31H44V32H45V35H44V36H43V38H41V37H40V36H38V35H37V34H36V33H34V31H33V28H34V27H35V26ZM26 28H28V29H29V30H30V31H29V34H28V37H27V30H26V29V28ZM23 30H24V34H23V32H22V31H23V30ZM25 31H26V32H25V31ZM50 31H51V34H52V39H51V40H47V39H44V38H45V37H46V36H45V35H46V34H47V33H48V34H47V35H46V36H47V35H48V34H49V32H50V31ZM25 33H26V34H25V33ZM31 34H32V35H33V37H34V39H35V40H36V41H37V44H36V45H34V44H33V43H32V41H31V35V34ZM20 36H21V37H20V36ZM21 37H22V38H21V37ZM27 40H28V41H27V40ZM25 41H26V42H25V41ZM41 41H42V44H43V45H40V42H41V41ZM26 42H27V44H28V45H29V47H30V51H29V54H30V56H31V58H28V54H27V49H26V43V42ZM32 44H33V45H32V44ZM23 45H24V49H23V48H22V47H23V46V45ZM38 45H39V46H43V48H42V49H39V47H38V46V45ZM14 49H15V50H14V49ZM13 50H14V51H16V52H17V53H18V54H19V55H20V56H21V57H22V58H19V59H18V58H17V57H16V56H15V55H14V52H13V51V50ZM24 50H25V51H26V56H27V57H25V56H24V54H23V53H22V52H20V51H24V50ZM22 59H23V60H22V59ZM23 61H27V62H28V63H26V64H24V63H23V62V61ZM26 64H27V65H26V64Z" fill="#7DA0C7"/>
<path id="color_344d68_2" fill-rule="evenodd" clip-rule="evenodd" d="M44 0H48V1H49V0H50V7H49V6H42V4H43V3H44V1V0ZM69 0H75V3H74V4H72V2H71V1H69V0ZM76 3H77V4H79V7H81V20H80V21H79V18H78V16H77V14H76V13H75V12H74V11H73V10H72V8H71V7H72V6H73V5H74V4H76V3ZM71 4H72V5H71V4ZM79 22H81V41H76V40H74V25H76V24H75V23H76V24H78V23H79V22Z" fill="#344D68"/>
<path id="color_efefcc_1" fill-rule="evenodd" clip-rule="evenodd" d="M34 16H36V18H35V19H34V17V16ZM35 19H36V20H35V19ZM26 20H28V24H27V23H26V21V20ZM17 29H18V30H19V33H17V32H16V30H17V29ZM54 33H56V34H55V35H54V34V33ZM11 39H12V43H10V40H11V39ZM45 42H47V45H45V43V42ZM56 43H58V44H56V43ZM51 46H54V47H51V46ZM4 48H5V50H6V51H5V52H4V51H3V49H4V48ZM34 51H35V53H34V52V51ZM45 51H47V52H48V53H49V54H46V53H45V52V51ZM35 59H38V60H35V59ZM43 60H46V62H44V61H43V60ZM29 65H31V68H30V67H29V66V65ZM38 65H39V66H40V67H39V68H38V67H37V66H38V65ZM24 70H25V71H24V70ZM15 71H16V72H17V74H15V72V71Z" fill="#EFEFCC"/>
<path id="color_344d68_3" fill-rule="evenodd" clip-rule="evenodd" d="M2 4H5V5H6V6H7V7H8V10H7V11H6V12H5V13H4V14H3V17H2V19H1V22H0V7H2V5V4Z" fill="#344D68"/>
<path id="color_8b8b3f_1" fill-rule="evenodd" clip-rule="evenodd" d="M68 49H71V52H68V50V49ZM59 58H62V61H59V59V58ZM49 68H52V71H49V69V68ZM40 77H43V80H40V78V77ZM29 80H32V83H29V81V80ZM20 81H23V82H22V83H21V84H20V82V81Z" fill="#8B8B3F"/>
<path id="color_8b8b3f_2" fill-rule="evenodd" clip-rule="evenodd" d="M35 14H36V16H34V19H33V15H35V14ZM26 18H28V20H26V23H27V24H29V25H26V24H25V19H26V18ZM34 19H35V20H34V19ZM16 28H18V29H17V30H16V32H15V29H16V28ZM16 32H17V33H18V35H17V34H16V33V32ZM9 40H10V42H9V41V40ZM2 48H4V49H3V51H2V49V48ZM3 51H4V52H5V53H6V54H4V53H3V52V51Z" fill="#8B8B3F"/>
</g>
<defs>
<clipPath id="clip0_0_4">
<rect width="81" height="110" fill="white"/>
</clipPath>
</defs>
</svg>
