<svg shape-rendering="crispEdges" preserveAspectRatio="none" overflow="visible" style="display: block;" width="81" height="110" viewBox="0 0 81 110" fill="none" xmlns="http://www.w3.org/2000/svg">
<g id="The_Corporates_Verdatek" clip-path="url(#clip0_209_160)">
<path id="color_6aad7b_1" fill-rule="evenodd" clip-rule="evenodd" d="M23 7H58V64H41V41H43V40H38V39H37V38H36V39H37V40H38V41H40V64H24V63H23V8V7ZM39 9H38V10H37V11H36V12H37V11H38V10H43V9H40H39ZM44 10H43V11H44V10ZM45 11H44V12H43V13H38V12H37V13H38V14H40V24H39V23H38V22H37V21H36V20H35V19H34V18H33V17H32V16H27V17H26V18H25V19H26V18H27V17H32V18H33V19H32V20H27V19H26V20H27V21H32V20H33V19H34V20H35V21H36V22H37V23H38V24H39V25H40V26H39V27H38V28H37V29H36V30H35V31H34V32H33V31H32V30H27V31H26V32H25V33H26V32H27V31H32V32H33V33H32V34H27V33H26V34H27V35H32V34H33V33H34V32H35V31H36V30H37V29H38V28H39V27H40V36H38V37H37V38H38V37H43V36H41V27H42V26H41V25H42V24H41V14H43V13H44V12H45V11ZM50 16H49V17H48V18H47V19H46V20H45V21H44V22H43V23H42V24H43V23H44V22H45V21H46V20H47V19H48V18H49V17H54V16H51H50ZM55 17H54V18H55V17ZM56 18H55V19H54V20H49V19H48V20H49V21H54V20H55V19H56V18ZM43 27H42V28H43V27ZM44 28H43V29H44V28ZM45 29H44V30H45V29ZM46 30H45V31H46V30ZM50 30H49V31H48V32H47V31H46V32H47V33H48V32H49V31H54V30H51H50ZM55 31H54V32H55V31ZM56 32H55V33H54V34H49V33H48V34H49V35H54V34H55V33H56V32ZM44 37H43V38H44V37ZM45 38H44V39H43V40H44V39H45V38Z" fill="#6AAD7B"/>
<path id="color_424f53_1" fill-rule="evenodd" clip-rule="evenodd" d="M26 67H55V68H58V69H59V70H60V71H58V70H24V71H22V72H20V70H22V69H24V68H26V67ZM61 69H62V70H61V69ZM62 70H63V71H62V70ZM60 71H62V72H63V73H64V74H65V75H66V76H67V77H68V79H69V80H70V81H71V89H72V91H73V92H74V101H75V107H74V108H73V109H68V108H22V109H8V108H7V93H6V92H8V89H9V85H10V83H11V81H12V79H13V78H14V76H15V75H16V74H17V73H18V72H20V73H19V75H20V74H21V73H24V72H57V73H60V74H61V72H60V71ZM25 73H24V74H22V78H21V91H22V94H23V95H58V92H59V75H58V74H53V73H31V74H26V73H25ZM20 95H19V96H20V98H22V99H24V100H26V99H55V100H56V99H58V98H61V95H60V96H57V97H24V96H21V95H20ZM12 98H11V99H9V101H8V104H9V102H10V104H9V106H10V107H16V106H17V105H18V101H17V100H16V99H15V98H13H12ZM66 98H65V100H64V101H63V104H65V103H67V105H66V104H65V106H66V107H68V108H69V107H72V106H73V100H72V99H71V98H67H66ZM13 100H15V101H16V104H14V105H13V103H12V102H11V101H12V102H13V101V100ZM67 100H68V102H66V101H67V100ZM69 100H71V101H72V103H71V102H70V101H69V100ZM14 102H13V103H15V102H14ZM68 102H69V103H68V102ZM69 103H71V104H70V106H69V104V103ZM12 105H13V106H12V105Z" fill="#424F53"/>
<path id="color_575757_1" fill-rule="evenodd" clip-rule="evenodd" d="M75 4H77V5H78V6H79V8H80V10H81V101H80V102H79V103H78V86H77V84H76V82H75V81H74V78H72V76H71V74H70V73H69V72H66V71H65V70H66V69H65V68H64V66H62V65H60V61H61V55H60V54H61V45H60V43H61V17H71V16H73V15H74V14H73V13H74V14H75V5V4ZM59 66H61V67H59V66ZM62 67H63V68H62V67Z" fill="#575757"/>
<path id="color_575757_2" fill-rule="evenodd" clip-rule="evenodd" d="M2 4H3V5H2V4ZM5 4H7V6H6V13H7V15H8V16H9V17H12V18H20V17H21V21H20V65H21V66H22V67H20V66H19V67H17V69H15V70H14V71H13V72H12V73H11V75H10V76H9V77H8V79H7V82H6V85H5V87H4V89H3V7H4V6H5V5V4ZM1 8H2V15H1V9V8ZM1 16H2V17H1V16ZM1 18H2V92H1V19V18ZM1 93H2V94H1V93ZM1 95H2V102H1V96V95ZM2 103H3V106H2V104V103Z" fill="#575757"/>
<path id="color_1a1a1a_1" fill-rule="evenodd" clip-rule="evenodd" d="M6 0H7V1H6V0ZM74 0H75V2H74V1V0ZM7 1H8V8H7V2V1ZM73 2H74V8H73V3V2ZM12 3H16V4H12V3ZM66 3H69V4H66V3ZM10 4H12V5H11V6H10V9H11V10H12V11H10V10H9V5H10V4ZM16 4H17V6H16V5V4ZM64 4H66V5H65V6H64V5V4ZM69 4H71V5H72V10H71V11H69V10H70V9H71V6H70V5H69V4ZM13 5H14V7H13V6V5ZM21 5H60V16H65V15H72V13H73V11H74V8H75V11H74V13H73V15H72V16H65V17H60V66H59V67H57V66H24V67H22V66H21V17H13V16H10V15H8V14H7V11H6V8H7V11H8V14H10V15H13V16H21V6V5ZM67 5H68V7H67V6V5ZM17 6H18V9H17V7V6ZM24 7H23V64H58V7H25H24ZM63 6H64V9H63V7V6ZM0 7H3V103H0V102H2V95H0V94H2V93H0V92H2V18H0V17H2V16H0V15H2V8H0V7ZM11 7H13V8H11V7ZM14 7H16V8H14V7ZM65 7H67V8H65V7ZM68 7H70V8H68V7ZM13 8H14V10H13V9V8ZM67 8H68V10H67V9V8ZM16 9H17V11H16V12H12V11H15V10H16V9ZM64 9H65V10H66V11H69V12H65V11H64V10V9ZM19 67H22V68H20V69H18V68H19V67ZM59 67H62V68H63V69H64V70H62V69H61V68H59V67ZM17 69H18V70H17V69ZM16 70H17V71H16V70ZM64 70H65V71H64V70ZM15 71H16V72H15V71ZM23 71H58V72H60V73H57V72H24V73H21V72H23V71ZM65 71H66V72H65V71ZM13 72H15V73H14V74H13V75H12V76H11V78H10V79H9V77H10V75H11V74H12V73H13V72ZM66 72H68V73H69V74H70V75H71V77H72V79H71V78H70V76H69V75H68V74H67V73H66V72ZM20 73H21V74H20V73ZM60 73H61V74H60V73ZM23 74H58V95H23V75V74ZM25 75H24V94H57V75H26H25ZM8 79H9V81H8V80V79ZM72 79H73V81H72V80V79ZM7 81H8V84H7V87H6V92H5V108H4V90H5V86H6V83H7V82V81ZM73 81H74V83H75V86H76V90H77V108H76V92H75V87H74V84H73V82V81ZM20 95H21V96H20V95ZM60 95H61V96H60V95ZM21 96H24V97H57V96H60V97H58V98H23V97H21V96ZM11 98H15V99H16V101H15V100H14V99H11V98ZM67 98H71V99H72V101H71V100H70V99H67V98ZM9 99H11V100H10V101H9V100V99ZM65 99H67V100H66V101H65V100V99ZM12 100H13V102H12V101V100ZM68 100H69V102H68V101V100ZM8 101H9V104H8V102V101ZM16 101H17V105H15V104H16V102V101ZM64 101H65V104H64V102V101ZM72 101H73V105H71V104H72V102V101ZM10 102H12V103H10V102ZM13 102H15V103H13V102ZM66 102H68V103H66V102ZM69 102H71V103H69V102ZM12 103H13V105H12V104V103ZM68 103H69V105H68V104V103ZM9 104H10V105H11V106H14V105H15V107H10V106H9V105V104ZM65 104H66V105H67V106H70V105H71V107H66V106H65V105V104Z" fill="#1A1A1A"/>
<path id="color_6e8188_1" fill-rule="evenodd" clip-rule="evenodd" d="M24 75H57V94H24V76V75ZM28 82H27V83H55V82H29H28ZM31 84H30V85H51V84H32H31ZM33 86H32V87H49V86H34H33ZM35 88H34V89H47V88H36H35ZM37 90H36V91H45V90H38H37ZM39 92H38V93H43V92H40H39Z" fill="#6E8188"/>
<path id="color_91a6ad_1" fill-rule="evenodd" clip-rule="evenodd" d="M24 66H25V67H24V66ZM22 67H23V68H22V67ZM58 67H59V68H58V67ZM20 68H21V69H20V68ZM60 68H61V69H60V68ZM18 69H20V70H19V71H17V70H18V69ZM24 70H34V71H24V70ZM43 70H57V71H43V70ZM63 70H64V71H63V70ZM16 71H17V72H16V71ZM22 71H23V72H22V71ZM64 71H65V72H66V73H64V72V71ZM15 72H16V73H15V72ZM20 72H21V73H20V72ZM14 73H15V74H14V73ZM19 73H20V75H19V74V73ZM66 73H67V74H66V73ZM13 74H14V75H13V74ZM67 74H68V75H67V74ZM12 75H13V77H12V78H11V76H12V75ZM68 75H69V76H68V75ZM69 76H70V78H69V77V76ZM10 78H11V80H10V82H9V84H8V81H9V79H10V78ZM21 78H22V91H21V79V78ZM70 78H71V79H70V78ZM58 79H59V86H58V80V79ZM71 79H72V81H71V80V79ZM72 81H73V84H74V87H73V85H72V82V81ZM27 82H55V83H27V82ZM7 84H8V88H7V92H6V87H7V85V84ZM30 84H51V85H30V84ZM32 86H49V87H32V86ZM74 87H75V90H74V88V87ZM34 88H47V89H34V88ZM36 90H45V91H36V90ZM5 92H6V94H5V93V92ZM38 92H43V93H38V92ZM75 92H76V97H75V93V92ZM20 96H21V97H23V98H24V99H22V98H20V97V96ZM58 97H60V98H58V97ZM31 98H54V99H31V98ZM55 98H58V99H56V100H55V99V98ZM65 98H67V99H65V98ZM11 99H14V100H12V101H11V102H9V101H10V100H11V99ZM24 99H26V100H24V99ZM67 99H70V100H67V99ZM16 100H17V101H16V100ZM64 100H65V101H64V100ZM66 100H67V101H66V100ZM63 101H64V104H63V102V101ZM65 101H66V103H65V102V101ZM69 101H70V102H69V101ZM5 102H6V107H7V108H8V109H13V110H6V108H5V103V102ZM11 103H12V106H11V104V103ZM67 103H68V105H69V106H67V104V103ZM71 103H72V104H71V103ZM14 104H15V105H14V104ZM70 104H71V105H70V104ZM13 105H14V106H13V105ZM15 105H16V107H15V106V105ZM25 109H64V110H25V109Z" fill="#91A6AD"/>
<path id="color_424f53_2" fill-rule="evenodd" clip-rule="evenodd" d="M9 1H72V5H71V4H69V3H66V4H64V6H63V9H64V7H65V6H67V7H65V8H67V7H68V4H69V6H71V8H70V7H68V8H67V10H65V9H64V11H65V12H69V11H71V10H72V8H73V10H72V12H71V14H69V15H61V5H60V4H57V5H53V4H20V6H19V8H20V15H14V14H11V13H9V10H10V11H12V10H11V9H10V8H13V7H11V6H12V5H13V4H14V5H13V7H14V8H13V11H12V12H16V11H17V9H18V6H17V4H16V3H12V4H10V5H9V2V1ZM14 5H16V6H17V8H16V7H15V6H14V5ZM15 8H16V9H15V8ZM68 8H70V9H69V10H68V9V8Z" fill="#424F53"/>
<path id="color_5e6c71_1" fill-rule="evenodd" clip-rule="evenodd" d="M25 66H57V67H58V68H55V67H26V68H24V69H22V70H20V69H21V68H23V67H25V66ZM58 68H60V69H61V70H62V71H60V70H59V69H58V68ZM19 70H20V72H18V73H17V74H16V75H15V76H14V78H13V79H12V81H11V83H10V85H9V89H8V92H7V88H8V84H9V82H10V80H11V78H12V77H13V75H14V74H15V73H16V72H17V71H19V70ZM34 70H43V71H34V70ZM57 70H58V71H57V70ZM58 71H60V72H58V71ZM62 71H64V73H63V72H62V71ZM60 72H61V73H60V72ZM24 73H26V74H24V73ZM31 73H53V74H31V73ZM64 73H66V74H67V75H68V76H69V78H70V79H71V81H70V80H69V79H68V77H67V76H66V75H65V74H64V73ZM22 74H23V94H22V75V74ZM58 75H59V79H58V76V75ZM71 81H72V85H73V87H74V90H75V97H76V108H75V110H64V109H25V110H13V109H22V108H68V107H69V108H68V109H73V108H74V107H75V101H74V92H73V91H72V89H71V82V81ZM58 86H59V92H58V87V86ZM6 93H7V107H6V102H5V94H6V93ZM19 95H20V96H19V95ZM60 96H61V98H60V97V96ZM24 98H31V99H24V98ZM54 98H55V99H54V98ZM72 100H73V101H72V100ZM17 101H18V105H17V102V101ZM10 103H11V105H10V104V103ZM16 105H17V106H16V105ZM71 105H73V106H72V107H71V106V105Z" fill="#5E6C71"/>
<path id="color_888888_1" fill-rule="evenodd" clip-rule="evenodd" d="M6 1H7V4H5V6H4V7H2V5H3V4H4V2H6V1ZM6 6H7V8H6V7V6ZM0 8H1V15H0V9V8ZM6 11H7V13H6V12V11ZM7 14H8V15H7V14ZM8 15H10V16H13V17H20V18H12V17H9V16H8V15ZM0 16H1V17H0V16ZM0 18H1V92H0V19V18ZM20 21H21V65H20V22V21ZM19 66H20V67H19V66ZM17 67H19V68H18V69H17V68V67ZM15 69H17V70H16V71H15V72H13V71H14V70H15V69ZM12 72H13V73H12V72ZM11 73H12V74H11V73ZM9 76H10V77H9V76ZM8 77H9V79H8V78V77ZM7 79H8V81H7V80V79ZM6 82H7V83H6V82ZM5 85H6V86H5V85ZM4 87H5V90H4V106H3V89H4V88V87ZM0 93H1V94H0V93ZM0 95H1V102H0V96V95Z" fill="#888888"/>
<path id="color_146621_1" fill-rule="evenodd" clip-rule="evenodd" d="M38 9H43V10H38V9ZM37 10H38V11H37V10ZM43 10H44V11H43V10ZM36 11H37V12H36V11ZM44 11H45V12H44V11ZM37 12H38V13H37V12ZM43 12H44V13H43V12ZM38 13H43V14H41V24H42V23H43V22H44V21H45V20H46V19H47V18H48V17H49V16H54V17H49V18H48V19H47V20H46V21H45V22H44V23H43V24H42V25H41V26H42V27H41V36H43V37H38V36H40V27H39V26H40V25H39V24H38V23H37V22H36V21H35V20H34V19H33V18H32V17H27V16H32V17H33V18H34V19H35V20H36V21H37V22H38V23H39V24H40V14H38V13ZM26 17H27V18H26V17ZM54 17H55V18H54V17ZM25 18H26V19H25V18ZM55 18H56V19H55V18ZM26 19H27V20H26V19ZM32 19H33V20H32V19ZM48 19H49V20H48V19ZM54 19H55V20H54V19ZM27 20H32V21H27V20ZM49 20H54V21H49V20ZM38 27H39V28H38V27ZM42 27H43V28H42V27ZM37 28H38V29H37V28ZM43 28H44V29H43V28ZM36 29H37V30H36V29ZM44 29H45V30H44V29ZM27 30H32V31H27V30ZM35 30H36V31H35V30ZM45 30H46V31H45V30ZM49 30H54V31H49V30ZM26 31H27V32H26V31ZM32 31H33V32H32V31ZM34 31H35V32H34V31ZM46 31H47V32H46V31ZM48 31H49V32H48V31ZM54 31H55V32H54V31ZM25 32H26V33H25V32ZM33 32H34V33H33V32ZM47 32H48V33H47V32ZM55 32H56V33H55V32ZM26 33H27V34H26V33ZM32 33H33V34H32V33ZM48 33H49V34H48V33ZM54 33H55V34H54V33ZM27 34H32V35H27V34ZM49 34H54V35H49V34ZM37 37H38V38H37V37ZM43 37H44V38H43V37ZM36 38H37V39H36V38ZM44 38H45V39H44V38ZM37 39H38V40H37V39ZM43 39H44V40H43V39ZM38 40H43V41H41V64H40V41H38V40Z" fill="#146621"/>
<path id="color_888888_2" fill-rule="evenodd" clip-rule="evenodd" d="M74 2H77V4H75V8H74V3V2ZM77 4H79V6H78V5H77V4ZM79 7H81V10H80V8H79V7ZM74 11H75V14H74V12V11ZM73 14H74V15H73V14ZM72 15H73V16H72V15ZM65 16H71V17H65V16ZM60 17H61V43H60V18V17ZM60 45H61V54H60V46V45ZM60 55H61V61H60V56V55ZM60 65H62V66H64V68H65V69H66V70H64V69H63V67H61V66H60V65ZM68 72H69V73H68V72ZM69 73H70V74H69V73ZM70 74H71V75H70V74ZM71 76H72V77H71V76ZM72 78H74V81H73V79H72V78ZM74 81H75V82H76V84H77V86H78V103H79V102H80V101H81V103H79V106H77V90H76V86H75V83H74V82V81Z" fill="#888888"/>
<path id="color_91a6ad_2" fill-rule="evenodd" clip-rule="evenodd" d="M7 0H17V1H9V6H8V1H7V0ZM32 0H60V1H32V0ZM65 0H74V2H73V3H72V1H65V0ZM12 4H13V5H12V4ZM14 4H16V5H14V4ZM20 4H22V5H21V15H20V8H19V6H20V5V4ZM66 4H68V5H67V6H65V5H66V4ZM11 5H12V6H11V5ZM69 5H70V6H69V5ZM10 6H11V8H10V7V6ZM14 6H15V7H14V6ZM64 6H65V7H64V6ZM14 8H15V9H16V8H17V9H16V10H15V11H13V10H14V9V8ZM70 8H71V9H70V8ZM73 8H74V11H73V13H72V14H71V12H72V10H73V9V8ZM69 9H70V10H69V9ZM66 10H69V11H66V10ZM8 12H9V13H10V14H8V13V12ZM60 12H61V15H65V16H60V13V12ZM10 14H14V15H15V16H13V15H10V14ZM69 14H71V15H69V14Z" fill="#91A6AD"/>
<path id="color_5e6c71_2" fill-rule="evenodd" clip-rule="evenodd" d="M17 0H32V1H17V0ZM60 0H65V1H60V0ZM72 3H73V8H72V4V3ZM22 4H53V5H22V4ZM57 4H60V5H57V4ZM60 5H61V12H60V6V5ZM8 6H9V12H8V11H7V8H8V7V6ZM10 13H11V14H10V13ZM71 14H72V15H71V14ZM15 15H21V16H15V15Z" fill="#5E6C71"/>
<path id="color_9ab665_1" fill-rule="evenodd" clip-rule="evenodd" d="M23 63H24V64H23V63Z" fill="#9AB665"/>
<path id="Vector 34" d="M41 40.5V63.5H40V40.5H41Z" stroke="#146621"/>
<rect id="Rectangle 243" x="33" y="31" width="1" height="1" fill="#146621"/>
<rect id="Rectangle 244" x="35" y="31" width="1" height="1" fill="#146621"/>
<rect id="Rectangle 245" x="34" y="30" width="1" height="1" fill="#146621"/>
<rect id="Rectangle 246" x="35" y="29" width="1" height="1" fill="#146621"/>
<rect id="Rectangle 247" x="36" y="30" width="1" height="1" fill="#146621"/>
<rect id="Rectangle 248" x="34" y="32" width="1" height="1" fill="#146621"/>
<rect id="Rectangle 305" x="33" y="33" width="1" height="1" fill="#146621"/>
<rect id="Rectangle 306" x="32" y="34" width="1" height="1" fill="#146621"/>
<rect id="Rectangle 307" x="26" y="34" width="1" height="1" fill="#146621"/>
<rect id="Rectangle 308" x="25" y="33" width="1" height="1" fill="#146621"/>
<rect id="Rectangle 309" x="24" y="32" width="1" height="1" fill="#146621"/>
<rect id="Rectangle 310" x="25" y="31" width="1" height="1" fill="#146621"/>
<rect id="Rectangle 311" x="26" y="30" width="1" height="1" fill="#146621"/>
<rect id="Rectangle 312" x="32" y="30" width="1" height="1" fill="#146621"/>
<rect id="Rectangle 313" x="32" y="20" width="1" height="1" fill="#146621"/>
<rect id="Rectangle 314" x="32" y="16" width="1" height="1" fill="#146621"/>
<rect id="Rectangle 315" x="33" y="17" width="1" height="1" fill="#146621"/>
<rect id="Rectangle 316" x="26" y="20" width="1" height="1" fill="#146621"/>
<rect id="Rectangle 317" x="25" y="19" width="1" height="1" fill="#146621"/>
<rect id="Rectangle 318" x="24" y="18" width="1" height="1" fill="#146621"/>
<rect id="Rectangle 319" x="25" y="17" width="1" height="1" fill="#146621"/>
<rect id="Rectangle 320" x="26" y="16" width="1" height="1" fill="#146621"/>
<rect id="Rectangle 321" x="37" y="13" width="1" height="1" fill="#146621"/>
<rect id="Rectangle 322" x="36" y="12" width="1" height="1" fill="#146621"/>
<rect id="Rectangle 323" x="35" y="11" width="1" height="1" fill="#146621"/>
<rect id="Rectangle 324" x="36" y="10" width="1" height="1" fill="#146621"/>
<rect id="Rectangle 325" x="37" y="9" width="1" height="1" fill="#146621"/>
<rect id="Rectangle 326" x="43" y="9" width="1" height="1" fill="#146621"/>
<rect id="Rectangle 327" x="44" y="10" width="1" height="1" fill="#146621"/>
<rect id="Rectangle 328" x="45" y="11" width="1" height="1" fill="#146621"/>
<rect id="Rectangle 329" x="44" y="12" width="1" height="1" fill="#146621"/>
<rect id="Rectangle 330" x="43" y="13" width="1" height="1" fill="#146621"/>
<rect id="Rectangle 331" x="47" y="17" width="1" height="1" fill="#146621"/>
<rect id="Rectangle 332" x="48" y="16" width="1" height="1" fill="#146621"/>
<rect id="Rectangle 333" x="54" y="16" width="1" height="1" fill="#146621"/>
<rect id="Rectangle 334" x="55" y="17" width="1" height="1" fill="#146621"/>
<rect id="Rectangle 335" x="56" y="18" width="1" height="1" fill="#146621"/>
<rect id="Rectangle 336" x="55" y="19" width="1" height="1" fill="#146621"/>
<rect id="Rectangle 337" x="54" y="20" width="1" height="1" fill="#146621"/>
<rect id="Rectangle 338" x="48" y="20" width="1" height="1" fill="#146621"/>
<rect id="Rectangle 339" x="56" y="32" width="1" height="1" fill="#146621"/>
<rect id="Rectangle 340" x="55" y="31" width="1" height="1" fill="#146621"/>
<rect id="Rectangle 341" x="54" y="30" width="1" height="1" fill="#146621"/>
<rect id="Rectangle 342" x="48" y="30" width="1" height="1" fill="#146621"/>
<rect id="Rectangle 343" x="47" y="33" width="1" height="1" fill="#146621"/>
<rect id="Rectangle 344" x="48" y="34" width="1" height="1" fill="#146621"/>
<rect id="Rectangle 345" x="54" y="34" width="1" height="1" fill="#146621"/>
<rect id="Rectangle 346" x="55" y="33" width="1" height="1" fill="#146621"/>
<rect id="Rectangle 249" x="37" y="29" width="1" height="1" fill="#146621"/>
<rect id="Rectangle 250" x="36" y="28" width="1" height="1" fill="#146621"/>
<rect id="Rectangle 251" x="37" y="27" width="1" height="1" fill="#146621"/>
<rect id="Rectangle 252" x="38" y="28" width="1" height="1" fill="#146621"/>
<rect id="Rectangle 253" x="38" y="26" width="1" height="1" fill="#146621"/>
<rect id="Rectangle 254" x="39" y="27" width="1" height="1" fill="#146621"/>
<rect id="Rectangle 255" x="39" y="25" width="1" height="1" fill="#146621"/>
<rect id="Rectangle 256" x="41" y="25" width="1" height="1" fill="#146621"/>
<rect id="Rectangle 269" x="42" y="24" width="1" height="1" fill="#146621"/>
<rect id="Rectangle 270" x="41" y="23" width="1" height="1" fill="#146621"/>
<rect id="Rectangle 271" x="42" y="22" width="1" height="1" fill="#146621"/>
<rect id="Rectangle 273" x="43" y="21" width="1" height="1" fill="#146621"/>
<rect id="Rectangle 274" x="44" y="22" width="1" height="1" fill="#146621"/>
<rect id="Rectangle 275" x="44" y="20" width="1" height="1" fill="#146621"/>
<rect id="Rectangle 276" x="45" y="21" width="1" height="1" fill="#146621"/>
<rect id="Rectangle 277" x="45" y="19" width="1" height="1" fill="#146621"/>
<rect id="Rectangle 278" x="46" y="20" width="1" height="1" fill="#146621"/>
<rect id="Rectangle 279" x="47" y="19" width="1" height="1" fill="#146621"/>
<rect id="Rectangle 280" x="46" y="18" width="1" height="1" fill="#146621"/>
<rect id="Rectangle 281" x="39" y="23" width="1" height="1" fill="#146621"/>
<rect id="Rectangle 282" x="38" y="24" width="1" height="1" fill="#146621"/>
<rect id="Rectangle 283" x="37" y="23" width="1" height="1" fill="#146621"/>
<rect id="Rectangle 284" x="36" y="22" width="1" height="1" fill="#146621"/>
<rect id="Rectangle 285" x="35" y="21" width="1" height="1" fill="#146621"/>
<rect id="Rectangle 286" x="34" y="20" width="1" height="1" fill="#146621"/>
<rect id="Rectangle 287" x="33" y="19" width="1" height="1" fill="#146621"/>
<rect id="Rectangle 288" x="34" y="18" width="1" height="1" fill="#146621"/>
<rect id="Rectangle 289" x="35" y="19" width="1" height="1" fill="#146621"/>
<rect id="Rectangle 290" x="36" y="20" width="1" height="1" fill="#146621"/>
<rect id="Rectangle 291" x="37" y="21" width="1" height="1" fill="#146621"/>
<rect id="Rectangle 292" x="38" y="22" width="1" height="1" fill="#146621"/>
<path id="Vector 35" d="M41 14.5V35.5H40V14.5H41Z" stroke="#146621"/>
<rect id="Rectangle 272" x="43" y="23" width="1" height="1" fill="#146621"/>
<rect id="Rectangle 257" x="41" y="27" width="1" height="1" fill="#146621"/>
<rect id="Rectangle 258" x="42" y="26" width="1" height="1" fill="#146621"/>
<rect id="Rectangle 259" x="42" y="28" width="1" height="1" fill="#146621"/>
<rect id="Rectangle 260" x="43" y="27" width="1" height="1" fill="#146621"/>
<rect id="Rectangle 261" x="43" y="29" width="1" height="1" fill="#146621"/>
<rect id="Rectangle 262" x="44" y="28" width="1" height="1" fill="#146621"/>
<rect id="Rectangle 263" x="44" y="30" width="1" height="1" fill="#146621"/>
<rect id="Rectangle 264" x="45" y="29" width="1" height="1" fill="#146621"/>
<rect id="Rectangle 265" x="45" y="31" width="1" height="1" fill="#146621"/>
<rect id="Rectangle 266" x="46" y="30" width="1" height="1" fill="#146621"/>
<rect id="Rectangle 267" x="46" y="32" width="1" height="1" fill="#146621"/>
<rect id="Rectangle 268" x="47" y="31" width="1" height="1" fill="#146621"/>
<rect id="Rectangle 295" x="37" y="36" width="1" height="1" fill="#146621"/>
<rect id="Rectangle 296" x="36" y="37" width="1" height="1" fill="#146621"/>
<rect id="Rectangle 297" x="35" y="38" width="1" height="1" fill="#146621"/>
<rect id="Rectangle 298" x="36" y="39" width="1" height="1" fill="#146621"/>
<rect id="Rectangle 299" x="37" y="40" width="1" height="1" fill="#146621"/>
<rect id="Rectangle 300" x="43" y="40" width="1" height="1" fill="#146621"/>
<rect id="Rectangle 301" x="44" y="39" width="1" height="1" fill="#146621"/>
<rect id="Rectangle 302" x="45" y="38" width="1" height="1" fill="#146621"/>
<rect id="Rectangle 303" x="44" y="37" width="1" height="1" fill="#146621"/>
<rect id="Rectangle 304" x="43" y="36" width="1" height="1" fill="#146621"/>
<path id="141.52" shape-rendering="geometricPrecision" d="M28.625 77.875H29.25V78.5H28.625V77.875ZM29.875 76.625H30.5V80.375H31.75V81H28.625V80.375H29.875V77.875H29.25V77.25H29.875V76.625ZM34.75 76.625H36V81H35.375V79.75H32.875V78.5H33.5V79.125H35.375V77.25H34.75V76.625ZM33.5 77.875H34.125V78.5H33.5V77.875ZM34.125 77.25H34.75V77.875H34.125V77.25ZM37.125 77.875H37.75V78.5H37.125V77.875ZM38.375 76.625H39V80.375H40.25V81H37.125V80.375H38.375V77.875H37.75V77.25H38.375V76.625ZM42.625 80.375H43.25V81H42.625V80.375ZM45.375 79.75H46V80.375H45.375V79.75ZM46 80.375H47.875V81H46V80.375ZM47.875 78.5H48.5V80.375H47.875V78.5ZM45.375 76.625H48.5V77.25H46V77.875H47.875V78.5H45.375V76.625ZM49.375 77.25H50V77.875H49.375V77.25ZM50 76.625H51.875V77.25H50V76.625ZM51.875 77.25H52.5V78.5H51.875V77.25ZM51.25 78.5H51.875V79.125H51.25V78.5ZM50.625 79.125H51.25V79.75H50.625V79.125ZM50 79.75H50.625V80.375H52.5V81H49.375V80.375H50V79.75Z" fill="#91A6AD"/>
</g>
<defs>
<clipPath id="clip0_209_160">
<rect width="81" height="110" fill="white"/>
</clipPath>
</defs>
</svg>
