<svg shape-rendering="crispEdges" preserveAspectRatio="none" overflow="visible" style="display: block;" width="81" height="110" viewBox="0 0 81 110" fill="none" xmlns="http://www.w3.org/2000/svg">
<g id="Lady_luck" clip-path="url(#clip0_0_4)">
<path id="color_a1540c_1" fill-rule="evenodd" clip-rule="evenodd" d="M6 0H8V3H9V10H6V11H5V2H6V1V0ZM11 0H17V1H18V2H19V4H11V1V0ZM19 0H23V3H21V2H20V1H19V0ZM24 0H30V2H27V3H24V1V0ZM32 0H49V4H40V3H36V2H32V1V0ZM51 0H57V4H51V1V0ZM58 0H63V1H61V2H60V3H58V1V0ZM65 0H70V5H60V4H61V3H63V1H65V0ZM72 0H75V2H76V12H75V11H72V4H73V1H72V0ZM2 4H3V17H4V23H0V7H2V5V4ZM78 4H79V7H81V23H79V24H77V18H78V5V4ZM11 5H12V6H13V5H18V6H17V8H16V11H11V6V5ZM51 5H56V6H54V7H53V9H52V8H51V7H50V6H51V5ZM57 6H62V7H70V12H53V11H52V10H53V9H55V8H56V7H57V6ZM5 12H7V13H8V12H9V23H5V13V12ZM11 12H16V13H17V20H16V21H14V23H13V24H12V27H10V21H11V20H10V18H11V13V12ZM53 13H57V14H56V15H62V14H58V13H70V18H66V19H65V24H64V23H63V22H61V21H59V20H56V19H53V18H52V16H53V14V13ZM72 13H73V14H74V13H76V24H73V20H72V14V13ZM70 19H71V20H70V19ZM51 20H54V21H51V20ZM55 21H56V22H55V21ZM51 22H52V23H54V24H57V25H58V26H55V27H54V31H53V35H60V34H63V33H64V30H63V29H61V28H63V29H64V30H65V31H66V32H67V33H68V34H69V35H70V36H68V37H70V38H71V39H72V40H69V41H68V40H65V41H63V42H62V41H55V42H54V43H52V44H51V45H50V46H49V42H48V38H49V36H50V31H51V23V22ZM57 22H59V23H57V22ZM60 22H61V23H60V22ZM59 23H60V24H59V23ZM0 24H4V28H0V25V24ZM5 25H9V28H5V26V25ZM62 25H65V26H70V25H71V28H65V27H63V26H62V25ZM77 25H81V29H77V26V25ZM72 26H76V29H72V27V26ZM0 29H4V41H3V45H2V46H1V48H0V30V29ZM5 29H9V35H8V37H7V38H6V40H5V30V29ZM67 29H71V33H70V32H69V31H68V30H67V29ZM72 30H76V31H74V32H76V34H75V33H72V31V30ZM77 30H81V31H77V30ZM10 31H11V32H10V31ZM77 32H81V47H80V46H79V45H80V43H78V42H77V33V32ZM11 34H12V35H13V36H14V37H16V38H18V37H19V38H18V40H17V43H16V44H15V47H14V48H13V50H12V52H11V57H10V62H9V68H8V70H7V69H6V66H5V60H4V54H5V47H6V43H7V41H8V39H9V37H10V35H11V34ZM72 40H73V42H72V41V40ZM75 40H76V41H75V40ZM4 41H5V43H4V42V41ZM42 44H43V45H42V44ZM44 46H45V47H46V48H47V50H45V48H44V47V46ZM2 47H3V50H1V52H0V49H1V48H2V47ZM74 48H76V55H77V61H76V67H75V70H74V72H73V74H72V75H73V76H71V79H70V80H69V82H68V81H67V82H66V84H64V86H62V87H60V88H58V89H57V90H55V91H53V92H51V90H52V88H53V87H54V86H56V85H57V84H59V83H60V82H61V81H63V79H64V78H65V77H66V76H67V75H68V72H69V71H70V64H69V63H68V62H67V61H66V60H65V59H64V58H62V57H61V56H58V55H56V54H55V53H56V51H57V50H60V51H66V50H73V49H74V48ZM78 48H79V49H80V50H81V67H80V68H79V51H78V49V48ZM1 53H2V67H1V66H0V55H1V54V53ZM0 68H2V70H3V89H2V90H3V97H2V98H3V106H2V103H0V91H1V89H0V69V68ZM79 69H81V90H80V92H81V103H79V106H78V99H79V98H78V91H79V90H78V71H79V70V69ZM4 71H5V73H6V75H7V89H4V72V71ZM21 71H23V72H25V73H27V75H31V76H32V77H33V78H34V80H35V81H36V84H35V86H34V89H33V90H32V92H30V91H28V90H26V89H24V88H23V87H21V86H19V85H17V83H18V79H19V76H20V72H21V71ZM76 72H77V90H72V80H73V78H74V76H75V74H76V73V72ZM70 82H71V90H63V89H64V88H65V87H66V86H67V85H69V83H70V82ZM5 90H7V91H8V95H9V97H4V91H5V90ZM19 90H22V97H20V92H19V91V90ZM59 91H71V96H68V97H71V98H59V92V91ZM72 91H76V92H77V98H75V97H74V96H72V92V91ZM23 92H25V93H28V94H29V95H28V96H27V97H26V98H25V100H23V93V92ZM56 93H58V110H54V109H53V107H52V104H51V96H54V95H53V94H54V95H56V94V93ZM72 97H73V98H72V97ZM4 98H9V110H6V108H4V99V98ZM20 98H22V102H21V103H20V99V98ZM59 99H71V110H70V103H69V104H68V110H59V100V99ZM72 99H77V108H75V110H72V100V99ZM10 101H11V103H12V105H13V108H14V110H10V102V101Z" fill="#A1540C"/>
<path id="color_2e1c1c_1" fill-rule="evenodd" clip-rule="evenodd" d="M27 2H36V3H40V4H35V3H28V4H22V3H27V2ZM19 4H22V5H20V6H19V7H18V8H17V6H18V5H19V4ZM40 4H45V5H48V6H49V7H47V6H43V5H40V4ZM41 6H42V7H41V6ZM49 7H51V8H52V11H51V9H50V8H49V7ZM16 8H17V12H18V20H17V13H16V9V8ZM36 8H42V10H41V9H36V8ZM35 9H36V10H35V9ZM45 9H46V10H45V9ZM42 10H43V12H42V11V10ZM46 10H47V11H46V10ZM52 11H53V16H52V19H51V31H50V36H49V32H48V34H47V32H45V31H46V29H47V27H46V26H45V24H44V19H43V16H44V18H45V20H47V15H48V21H49V20H50V18H51V15H52V12V11ZM32 12H33V13H32V12ZM31 13H32V14H31V13ZM43 14H44V15H43V14ZM30 15H31V21H33V20H34V17H36V16H37V15H39V16H37V17H36V18H35V21H40V19H41V22H42V23H38V22H34V23H35V24H37V23H38V24H40V25H38V26H36V25H34V24H33V23H31V22H30V16V15ZM39 16H40V18H39V17V16ZM23 18H24V20H23V19V18ZM66 18H67V19H66V18ZM68 18H70V20H73V24H72V25H70V24H71V23H72V21H70V22H69V19H68V18ZM65 19H66V25H70V26H65V20V19ZM16 20H17V21H16V20ZM46 21H45V23H46V26H47V27H48V28H49V30H50V23H49V24H48V22H47V21H46ZM14 21H16V22H15V24H14V26H13V28H12V31H13V33H14V34H15V35H16V36H21V35H23V36H22V37H21V38H20V40H19V41H18V43H17V40H18V38H16V37H14V36H13V35H12V33H11V31H10V28H11V27H12V24H13V23H14V22V21ZM23 22H25V24H26V26H25V25H23V29H21V27H22V24H24V23H23V22ZM17 25H18V26H17V25ZM58 25H60V26H61V29H63V30H60V27H59V26H58V25ZM26 26H27V27H28V32H27V38H26V37H23V36H26V32H24V31H23V29H24V30H25V31H26V27V26ZM55 26H56V27H55V26ZM54 27H55V29H54V28V27ZM48 30H47V31H48V30ZM63 30H64V31H63V30ZM20 31H21V32H20V31ZM53 31H55V32H54V34H55V35H53V32V31ZM21 32H22V33H21V32ZM63 32H64V33H63V32ZM42 33H43V34H42V33ZM61 33H63V34H61V33ZM72 33H75V34H73V35H72V34V33ZM44 34H47V37H46V35H44V34ZM57 34H60V35H57V34ZM75 34H76V35H75V34ZM32 35H33V36H32V35ZM41 35H42V36H41V35ZM71 35H72V36H71V35ZM76 35H77V40H72V39H71V38H70V37H68V36H70V37H71V38H73V39H76V38H75V37H76V36V35ZM19 37H18V38H19V37ZM42 36H44V37H46V38H45V40H44V43H43V42H42V43H43V44H42V45H40V46H39V45H38V48H39V49H37V54H38V56H39V59H38V58H37V56H36V55H35V53H34V52H33V50H32V48H33V50H34V51H35V53H36V47H35V45H36V44H37V43H36V41H35V40H34V41H33V38H32V37H33V38H34V39H35V40H37V41H40V42H41V41H43V39H44V38H43V37H42V36ZM48 36H49V38H48V37V36ZM27 38H28V39H29V41H30V43H29V42H28V40H27V39V38ZM47 39H48V43H49V46H50V45H51V44H52V43H54V42H55V41H62V42H63V41H65V40H68V41H69V40H72V42H75V41H77V43H80V45H79V46H77V45H78V44H76V45H75V46H72V45H74V44H75V43H72V44H70V45H69V46H68V47H66V48H64V47H65V46H66V45H64V44H65V43H66V42H67V41H65V42H63V43H61V42H56V43H54V44H52V46H51V47H50V49H49V50H48V51H47V53H49V54H46V53H44V52H42V51H40V50H43V51H44V49H43V47H42V45H43V44H44V48H45V50H47V48H46V47H45V46H46V47H47V48H49V47H48V44H47V40V39ZM70 42H69V43H67V44H66V45H67V44H69V43H70V42ZM76 42H75V43H76V42ZM34 42H35V43H34V42ZM16 43H17V45H16V47H15V44H16V43ZM30 43H31V45H30V44V43ZM63 45H64V46H63V45ZM31 46H32V47H31V46ZM60 46H63V47H62V48H61V47H60V46ZM71 46H72V48H70V47H71V46ZM75 46H77V47H76V48H74V47H75V46ZM14 47H15V49H14V50H13V48H14V47ZM69 48H70V49H72V48H74V49H73V50H66V49H69V48ZM56 49H61V50H66V51H60V50H57V51H56V50V49ZM12 50H13V53H12V58H11V63H10V67H11V66H17V67H20V68H21V67H22V70H23V71H21V72H20V76H19V79H18V74H19V71H20V69H18V68H16V67H11V68H10V69H9V75H8V71H7V70H8V68H9V62H10V57H11V52H12V51V50ZM31 51H32V52H31V51ZM55 51H56V53H55V54H56V55H58V56H52V59H51V62H50V63H49V65H48V66H47V64H48V62H49V61H50V58H51V57H50V56H51V55H49V54H53V55H54V52H55V51ZM30 53H31V54H30V53ZM29 54H30V55H29V54ZM28 55H29V58H27V57H28V56V55ZM58 56H61V57H62V58H60V57H58V56ZM26 58H27V59H26V58ZM30 58H31V59H30V58ZM63 58H64V59H63V58ZM25 59H26V60H25V59ZM39 59H40V60H39V59ZM64 59H65V60H64V59ZM65 60H66V61H65V60ZM24 61H25V62H24V61ZM66 61H67V62H66V61ZM67 62H68V63H69V64H70V66H69V65H68V64H67V63V62ZM23 63H24V65H23V64V63ZM22 65H23V66H22V65ZM46 66H47V67H46V66ZM45 67H46V68H45V67ZM69 67H70V68H69V67ZM44 68H45V69H44V68ZM43 69H44V71H43V70V69ZM69 69H70V71H69V70V69ZM23 71H25V72H23V71ZM42 71H43V73H42V74H41V75H40V73H41V72H42V71ZM68 71H69V72H68V71ZM25 72H27V73H25V72ZM27 73H29V74H30V75H27V74V73ZM67 73H68V75H67V74V73ZM7 75H8V85H7V76V75ZM31 75H32V76H31V75ZM39 75H40V76H39V75ZM66 75H67V76H66V75ZM32 76H33V77H32V76ZM37 76H39V77H37V76ZM65 76H66V77H65V76ZM33 77H35V78H36V77H37V78H36V80H37V85H36V86H35V84H36V81H35V80H34V78H33V77ZM64 77H65V78H64V77ZM63 78H64V79H63V78ZM17 79H18V83H17V80V79ZM62 79H63V81H61V80H62V79ZM60 81H61V82H60V81ZM58 82H60V83H59V84H57V83H58V82ZM55 84H57V85H56V86H54V85H55V84ZM7 86H8V90H9V95H8V91H7V87V86ZM17 86H18V88H17V87V86ZM34 86H35V89H34V87V86ZM53 86H54V87H53V86ZM52 87H53V88H52V87ZM51 88H52V90H51V89V88ZM18 89H19V92H18V90V89ZM33 89H34V91H33V92H32V90H33V89ZM50 91H51V104H50V92V91ZM19 92H20V103H21V102H22V101H23V100H25V98H26V97H27V96H28V95H29V94H30V93H31V92H32V93H31V95H29V97H27V99H26V100H25V101H24V102H22V104H21V105H20V106H19V107H18V108H17V109H16V110H14V109H15V108H16V107H17V106H18V105H19V93V92ZM9 95H10V98H9V96V95ZM10 98H11V101H10V99V98ZM11 102H12V103H11V102ZM51 104H52V106H51V105V104ZM13 106H14V108H13V107V106ZM52 107H53V108H52V107ZM53 109H54V110H53V109Z" fill="#2E1C1C"/>
<path id="color_facfb2_1" fill-rule="evenodd" clip-rule="evenodd" d="M38 11H40V12H38V11ZM40 12H41V13H40V12ZM37 13H39V15H37V16H36V17H34V20H33V21H32V18H33V16H34V15H36V14H37V13ZM41 13H42V14H41V13ZM31 15H32V16H31V15ZM42 16H43V19H44V22H43V26H44V27H43V29H42V31H41V34H42V35H36V34H35V35H33V31H32V28H31V23H33V24H32V25H33V27H34V29H35V30H37V29H40V26H41V25H42V17V16ZM23 25H25V26H24V27H25V29H26V31H25V30H24V29H23V26V25ZM45 26H46V27H45V26ZM46 27H47V28H46V27ZM45 30H46V31H45V30ZM35 35H36V37H35V36V35ZM41 36H42V37H41V36ZM36 37H37V38H36V37ZM20 38H21V39H20V38ZM37 38H38V39H37V38ZM22 39H26V41H27V45H28V51H27V52H26V54H25V56H24V57H23V59H22V61H21V62H20V63H19V64H16V65H12V63H11V58H12V63H14V62H13V59H14V55H15V51H16V49H17V47H18V45H17V43H18V45H19V44H20V42H21V40H22V39ZM34 40H35V42H34V41V40ZM18 41H19V42H18V41ZM16 45H17V46H16V45ZM15 47H16V48H15V47ZM39 48H41V49H42V48H43V49H44V51H43V50H39V49V48ZM13 50H14V52H13V51V50ZM37 50H38V51H39V52H41V53H42V54H44V55H46V56H47V57H49V58H50V57H51V58H50V61H49V62H48V64H47V66H46V67H45V68H44V69H43V70H41V68H40V67H39V66H38V65H37V67H38V68H39V69H40V71H41V73H40V75H39V76H38V75H37V73H36V72H35V71H33V70H31V68H30V67H29V66H28V65H27V64H26V63H24V62H25V60H26V59H27V58H28V59H30V61H32V60H33V59H32V58H31V57H30V56H29V55H30V54H31V52H32V54H33V55H34V56H37V58H38V59H39V56H38V54H37V51V50ZM12 53H13V56H12V54V53ZM34 53H35V54H34V53ZM29 57H30V58H29V57ZM40 59H39V60H40V59ZM10 63H11V64H10V63Z" fill="#FACFB2"/>
<path id="color_eebf8f_1" fill-rule="evenodd" clip-rule="evenodd" d="M9 0H11V4H10V5H11V18H10V20H11V21H10V33H12V34H11V35H10V37H9V39H8V41H7V38H8V36H9V1V0ZM17 0H18V1H17V0ZM31 0H32V2H30V1H31V0ZM49 0H50V7H49V6H48V5H49V1V0ZM63 0H64V1H63V0ZM70 0H72V20H71V19H70V7H62V6H71V5H70V1V0ZM18 1H19V2H18V1ZM61 1H63V2H61V1ZM19 2H20V3H21V4H19V3V2ZM60 2H61V3H60V2ZM58 3H60V4H59V5H57V4H58V3ZM3 4H4V17H3V5V4ZM77 4H78V18H77V5V4ZM56 5H57V6H56V5ZM54 6H56V7H55V8H54V9H53V7H54V6ZM57 13H58V14H62V15H56V14H57V13ZM4 17H5V38H4V18V17ZM52 18H53V19H56V20H59V21H61V22H60V23H59V22H56V21H54V20H51V19H52V18ZM76 18H77V31H81V32H77V35H76V32H74V31H76V19V18ZM61 22H63V23H64V24H65V25H60V23H61V22ZM79 23H81V24H79V23ZM71 25H72V35H71V36H70V35H69V33H67V31H65V30H64V29H66V30H67V31H68V32H69V33H70V34H71V26V25ZM73 40H74V42H73V41V40ZM6 41H7V43H6V47H5V42H6V41ZM79 46H80V47H79V46ZM4 47H5V54H4V48V47ZM80 47H81V49H80V48V47ZM76 48H77V55H76V49V48ZM1 50H2V53H1V55H0V52H1V51V50ZM3 54H4V60H5V66H6V69H7V71H8V73H7V72H6V70H5V67H4V90H5V91H4V106H3V90H2V89H3V55V54ZM77 55H78V90H79V91H78V106H77V92H76V91H77V68H76V71H75V73H74V74H73V72H74V70H75V67H76V61H77V56V55ZM72 74H73V75H72V74ZM71 76H72V96H74V97H75V98H73V97H72V110H71V97H68V96H71V77V76ZM67 81H68V83H67V84H66V82H67V81ZM64 84H66V85H65V86H64V85V84ZM17 85H19V86H17V85ZM19 86H21V87H23V88H24V89H22V88H20V87H19V86ZM62 86H64V87H62V86ZM60 87H62V88H61V89H59V90H57V89H58V88H60V87ZM0 89H1V90H0V89ZM24 89H26V90H24V89ZM22 90H23V101H22V98H20V97H22V91V90ZM26 90H28V91H30V92H27V91H26V90ZM55 90H57V91H55V90ZM80 90H81V91H80V90ZM53 91H55V92H54V93H51V92H53V91ZM58 91H59V98H64V99H59V110H58V92V91ZM54 94H56V95H54V94ZM51 95H54V96H51V95ZM9 98H10V110H9V99V98ZM69 103H70V110H68V104H69V103Z" fill="#EEBF8F"/>
<path id="color_dadab3_1" fill-rule="evenodd" clip-rule="evenodd" d="M62 69H63V70H69V71H68V73H67V75H66V76H65V77H64V78H62V79H61V80H60V81H58V82H56V83H50V84H48V83H46V82H45V81H43V80H42V79H41V78H40V77H39V76H40V75H41V74H42V73H43V75H47V74H49V73H52V72H54V71H56V70H62V69ZM50 88H51V91H50V104H51V107H52V109H53V110H34V108H36V104H37V103H38V101H39V100H40V98H41V97H42V95H43V94H44V93H46V92H47V90H48V89H50V88Z" fill="#DADAB3"/>
<path id="color_e76b3b_1" fill-rule="evenodd" clip-rule="evenodd" d="M8 0H9V3H8V1V0ZM18 0H19V1H18V0ZM23 0H24V3H23V1V0ZM30 0H31V1H30V0ZM50 0H51V4H57V0H58V4H57V5H51V6H50V1V0ZM64 0H65V1H64V0ZM19 1H20V2H19V1ZM72 1H73V4H72V2V1ZM4 2H5V11H6V10H9V12H8V13H7V12H5V17H4V3V2ZM20 2H21V3H20V2ZM61 2H63V3H61V2ZM76 2H77V18H76V13H74V14H73V13H72V11H75V12H76V3V2ZM21 3H22V4H21V3ZM60 3H61V4H60V3ZM10 4H19V5H13V6H12V5H10V4ZM45 4H49V5H45V4ZM59 4H60V5H71V6H57V5H59V4ZM56 6H57V7H56V6ZM55 7H56V8H55V7ZM54 8H55V9H54V8ZM52 9H53V10H52V9ZM11 11H16V12H11V11ZM53 12H70V13H53V12ZM51 21H55V22H57V23H59V24H60V25H57V24H54V23H52V22H51V21ZM0 23H4V24H0V23ZM5 23H9V25H5V24V23ZM72 24H76V26H72V25V24ZM77 24H81V25H77V24ZM60 25H62V26H63V27H65V28H71V29H67V30H66V29H63V28H61V26H60V25ZM10 27H11V28H10V27ZM0 28H4V29H0V28ZM5 28H9V29H5V28ZM72 29H76V30H72V29ZM77 29H81V30H77V29ZM67 30H68V31H67V30ZM66 31H67V32H66V31ZM68 31H69V32H68V31ZM10 32H11V33H10V32ZM69 32H70V33H69V32ZM68 33H69V34H68V33ZM70 33H71V34H70V33ZM8 35H9V36H8V35ZM7 37H8V38H7V37ZM4 38H5V40H6V38H7V41H6V42H5V41H4V39V38ZM74 40H75V42H74V41V40ZM76 40H77V41H76V40ZM3 41H4V43H5V47H4V54H3V70H2V68H0V66H1V67H2V50H3V47H2V48H1V46H2V45H3V42V41ZM77 42H78V43H77V42ZM77 46H79V47H80V49H79V48H78V51H79V68H80V67H81V69H79V71H78V55H77V48H76V47H77V46ZM0 48H1V49H0V48ZM80 49H81V50H80V49ZM4 67H5V70H6V72H7V73H8V75H6V73H5V71H4V68V67ZM76 68H77V72H76V74H75V76H74V78H73V80H72V76H73V74H74V73H75V71H76V69V68ZM70 79H71V82H70V83H69V85H67V86H66V87H65V88H64V89H63V90H71V91H58V93H56V94H53V95H51V93H54V92H55V91H57V90H59V89H61V88H62V87H64V86H65V85H66V84H67V83H68V82H69V80H70V79ZM18 86H19V87H20V88H22V89H24V90H26V91H27V92H31V93H30V94H28V93H25V92H23V90H19V89H18V87V86ZM4 89H7V90H4V89ZM0 90H1V91H0V90ZM72 90H77V91H72V90ZM80 91H81V92H80V91ZM2 97H3V98H2V97ZM4 97H9V98H4V97ZM64 98H71V99H64V98ZM72 98H77V99H72V98ZM78 98H79V99H78V98Z" fill="#E76B3B"/>
<path id="color_9f9f6e_1" fill-rule="evenodd" clip-rule="evenodd" d="M37 77H40V78H41V79H42V80H43V81H45V82H46V83H48V84H50V83H56V82H58V81H60V80H61V79H62V78H63V79H62V80H61V81H60V82H58V83H57V84H55V85H54V86H53V87H52V88H50V89H48V90H47V92H46V93H44V94H43V95H42V97H41V98H40V100H39V101H38V103H37V104H36V108H34V110H16V109H17V108H18V107H19V106H20V105H21V104H22V102H24V101H25V100H26V99H27V97H29V95H31V93H32V92H33V91H34V89H35V86H36V85H37V80H36V78H37V77Z" fill="#9F9F6E"/>
<path id="color_b33030_1" fill-rule="evenodd" clip-rule="evenodd" d="M28 4H35V5H36V4H40V5H43V6H46V7H47V8H48V9H50V12H51V15H50V20H49V21H48V19H49V15H48V12H47V10H46V9H45V10H44V8H43V7H42V6H41V7H35V8H34V9H33V10H32V11H30V14H29V16H28V18H27V19H29V22H30V27H29V26H28V25H27V23H26V21H25V19H24V18H23V19H22V20H23V23H24V24H22V27H21V30H19V29H20V28H18V31H17V29H16V26H18V25H17V24H18V22H19V21H20V19H19V12H18V8H19V7H20V6H22V5H28V4ZM45 10H46V12H47V18H46V14H45V11V10ZM47 22H48V24H47V23V22ZM25 23H26V24H25V23ZM48 24H49V26H48V25V24ZM28 28H30V30H31V32H28V29V28ZM49 28H50V30H49V29V28ZM47 30H48V31H47V30ZM28 33H30V35H31V39H32V41H33V43H34V47H35V51H34V48H33V45H32V44H31V40H30V38H29V37H28V36H29V35H28V34V33ZM47 34H48V37H47V35V34ZM46 37H47V39H46V38V37ZM42 42H43V43H42V42ZM43 43H44V44H43V43ZM44 44H45V45H46V46H44V45V44ZM48 47H49V48H48V47ZM35 52H36V53H35V52Z" fill="#B33030"/>
<path id="color_b9947b_1" fill-rule="evenodd" clip-rule="evenodd" d="M36 9H41V10H42V11H40V10H37V11H35V12H34V13H33V11H34V10H36V9ZM42 12H43V13H42V12ZM32 13H33V14H32V13ZM39 13H40V14H41V17H42V22H41V19H40V16H39V14V13ZM31 14H32V15H31V14ZM31 17H32V21H31V18V17ZM40 23H42V24H41V26H38V25H40V24V23ZM33 24H34V25H33V24ZM34 25H36V26H34V25ZM24 26H26V29H25V27H24V26ZM36 26H38V27H36V26ZM31 28H32V30H31V29V28ZM44 29H46V30H44V29ZM32 31H33V35H32V32V31ZM33 35H35V37H36V38H37V39H42V37H43V38H44V39H43V41H41V42H40V41H37V40H35V39H34V38H33V37H32V36H33V35ZM22 36H23V37H26V38H27V40H28V42H29V43H30V45H31V47H32V50H33V52H34V54H35V55H36V56H34V55H33V54H32V51H31V53H30V54H29V55H28V57H27V58H26V59H25V61H24V63H23V65H22V66H23V65H24V63H26V64H27V65H28V66H29V67H30V68H31V70H33V71H35V72H36V73H37V75H38V76H37V77H36V78H35V77H33V76H32V75H30V74H29V73H27V72H25V71H23V70H22V67H21V68H20V67H17V66H11V67H10V65H16V64H19V63H20V62H21V61H22V59H23V57H24V56H25V54H26V52H27V51H28V45H27V41H26V39H23V38H21V37H22V36ZM35 41H36V43H37V44H36V45H35V42V41ZM38 45H39V46H40V45H42V47H43V48H42V49H41V48H38V46V45ZM37 49H38V50H37V49ZM45 53H46V54H45V53ZM47 54H49V55H47V54ZM49 55H51V56H50V57H49V56V55ZM29 56H30V57H29V56ZM30 57H31V58H30V57ZM28 58H30V59H28V58ZM31 58H32V59H33V60H32V61H30V59H31V58ZM37 65H38V66H39V67H40V68H41V70H43V71H42V72H41V71H40V69H39V68H38V67H37V66V65Z" fill="#B9947B"/>
<path id="color_6f1e1e_1" fill-rule="evenodd" clip-rule="evenodd" d="M35 7H43V9H44V10H45V14H46V18H47V20H45V18H44V14H43V10H42V8H36V9H35V10H34V11H33V12H32V13H31V15H30V20H29V19H27V18H28V16H29V14H30V11H32V10H33V9H34V8H35V7ZM46 11H47V12H46V11ZM18 12H19V19H18V13V12ZM47 12H48V15H47V13V12ZM48 15H49V19H48V16V15ZM19 19H20V21H19V20V19ZM24 19H25V21H26V23H25V22H24V20V19ZM17 20H18V21H17V20ZM45 21H47V24H48V26H49V27H47V26H46V23H45V22V21ZM17 22H18V24H17V26H16V29H17V31H18V28H20V29H19V30H21V29H23V31H24V32H26V36H23V35H21V36H16V35H15V34H14V33H13V31H12V30H13V28H14V26H15V25H16V23H17V22ZM26 23H27V25H26V24V23ZM27 25H28V26H29V27H30V28H28V27H27V26V25ZM14 30H13V31H14V30ZM21 31H20V32H21V31ZM22 32H21V33H22V32ZM27 32H29V33H28V35H29V36H28V37H29V38H30V40H31V43H30V41H29V39H28V38H27V33V32ZM44 32H46V33H44V32ZM46 33H47V34H46V33ZM42 35H44V36H42V35ZM44 36H45V37H44V36ZM45 38H46V45H45V44H44V40H45V39V38ZM31 44H32V45H33V48H32V46H31V45V44ZM46 45H47V47H46V46V45ZM47 47H48V48H47V47ZM33 48H34V50H33V49V48Z" fill="#6F1E1E"/>
<path id="color_5e3f5e_1" fill-rule="evenodd" clip-rule="evenodd" d="M10 68H12V70H11V79H10V86H11V91H12V98H13V100H14V103H15V104H16V90H15V88H14V80H15V77H16V72H17V70H18V69H20V71H19V74H18V79H17V88H18V92H19V105H18V106H17V104H16V108H15V109H14V106H13V105H12V102H11V98H10V95H9V90H8V86H7V85H8V75H9V69H10V68Z" fill="#5E3F5E"/>
<path id="color_efefc5_1" fill-rule="evenodd" clip-rule="evenodd" d="M58 62H67V64H68V65H69V66H70V67H69V68H70V69H69V70H63V69H62V70H56V71H54V72H52V73H49V74H47V75H43V71H44V69H45V68H46V67H47V68H49V67H50V66H51V65H53V64H55V63H58V62Z" fill="#EFEFC5"/>
<path id="color_f5f5f2_1" fill-rule="evenodd" clip-rule="evenodd" d="M28 3H35V4H28V3ZM23 4H28V5H23V4ZM35 4H36V5H35V4ZM20 5H22V6H20V5ZM19 6H20V7H19V6ZM46 6H47V7H46V6ZM18 7H19V8H18V7ZM47 7H49V8H50V9H48V8H47V7ZM17 8H18V12H17V9V8ZM50 9H51V11H52V15H51V12H50V10V9ZM50 15H51V18H50V16V15ZM18 19H19V21H18V20V19ZM22 19H23V20H22V19ZM23 20H24V22H23V21V20ZM29 20H30V22H29V21V20ZM16 21H18V22H17V23H16V25H15V26H14V24H15V22H16V21ZM30 22H31V30H30V23V22ZM49 23H50V28H48V27H49V24V23ZM26 25H27V26H26V25ZM13 26H14V28H13V27V26ZM12 28H13V30H12V29V28ZM13 30H14V31H13V30ZM31 30H32V38H33V41H32V39H31V35H30V33H29V32H31V31V30ZM48 32H49V36H48V33V32ZM47 37H48V39H47V38V37ZM46 39H47V44H48V47H47V45H46V40V39ZM33 41H34V43H33V42V41ZM48 42H49V43H48V42ZM34 43H35V47H34V44V43ZM35 47H36V52H35V48V47ZM62 58H63V59H62V58ZM63 59H64V60H63V59Z" fill="#F5F5F2"/>
<path id="color_8e508e_1" fill-rule="evenodd" clip-rule="evenodd" d="M11 67H13V71H12V81H11V83H12V81H13V75H14V71H15V68H14V67H16V68H18V70H17V72H16V77H15V80H14V88H15V90H16V97H15V94H14V90H13V83H12V91H11V86H10V79H11V70H12V68H11V67ZM12 91H13V95H14V100H13V98H12V92V91ZM14 100H15V103H14V101V100ZM16 106H17V107H16V106Z" fill="#8E508E"/>
<path id="color_fde5d5_1" fill-rule="evenodd" clip-rule="evenodd" d="M35 11H36V12H35V11ZM32 14H33V16H32V15V14ZM43 15H44V16H43V15ZM31 16H32V17H31V16ZM32 24H33V25H32V24ZM33 25H34V26H36V27H38V26H39V28H36V29H34V27H33V26V25ZM45 27H46V28H47V29H45V28V27ZM43 30H45V32H43V31V30ZM42 32H43V33H42V32ZM36 36H37V37H36V36ZM37 37H42V39H38V38H37V37ZM21 38H23V39H22V40H21V42H20V44H19V45H18V42H19V40H20V39H21V38ZM17 45H18V47H17V49H16V51H15V55H14V59H13V62H14V63H12V56H13V52H14V49H15V48H16V46H17V45ZM38 49H39V50H40V51H42V52H44V53H45V54H47V55H49V57H47V56H46V55H44V54H42V53H41V52H39V51H38V50V49ZM49 57H50V58H49V57ZM11 63H12V65H10V64H11V63Z" fill="#FDE5D5"/>
<path id="color_fcfcdc_1" fill-rule="evenodd" clip-rule="evenodd" d="M52 56H58V57H60V58H62V59H63V60H65V61H66V62H58V63H55V64H53V65H51V66H50V67H49V68H47V66H48V65H49V63H50V62H51V59H52V57V56Z" fill="#FCFCDC"/>
<path id="color_f01616_1" fill-rule="evenodd" clip-rule="evenodd" d="M67 18H68V19H67V18ZM66 21H69V22H71V23H70V24H66V22V21ZM56 26H59V27H56V26ZM55 27H56V31H57V28H60V30H63V31H61V32H60V33H54V32H55V31H54V29H55V28V27ZM63 31H64V32H63V31ZM43 32H44V33H45V34H43V33V32ZM62 32H63V33H62V32ZM56 34H57V35H56V34ZM44 35H45V36H44V35ZM73 36H74V37H75V38H74V39H73V38H72V37H73V36Z" fill="#F01616"/>
<path id="color_f7d9c6_1" fill-rule="evenodd" clip-rule="evenodd" d="M37 10H40V11H38V12H36V11H37V10ZM40 11H42V13H41V12H40V11ZM34 12H36V13H35V14H34V16H33V13H34V12ZM42 13H43V16H42V14V13ZM32 16H33V18H32V17V16ZM43 22H44V24H45V29H44V30H43V32H42V34H41V31H42V29H43V27H44V26H43V23V22ZM41 24H42V25H41V24ZM39 26H40V29H37V30H35V29H36V28H39V27V26ZM35 34H36V35H35V34ZM36 35H41V37H37V36H36V35Z" fill="#F7D9C6"/>
<path id="color_5e3f5e_2" fill-rule="evenodd" clip-rule="evenodd" d="M66 41H67V42H66V41ZM64 42H66V43H65V44H64V43V42ZM75 42H76V43H75V42ZM74 43H75V44H74V43ZM62 44H64V45H63V46H59V45H62V44ZM72 44H74V45H72V44ZM71 45H72V46H71V45ZM76 45H77V46H76V45ZM57 46H59V47H60V48H63V47H64V48H68V47H70V46H71V47H70V48H69V49H66V50H61V49H56V47H57V46ZM73 47H74V48H73V47ZM70 48H72V49H70V48ZM55 49H56V51H55V52H54V50H55V49ZM52 52H54V55H53V54H52V53V52Z" fill="#5E3F5E"/>
<path id="color_8e508e_2" fill-rule="evenodd" clip-rule="evenodd" d="M56 42H61V44H56V43V42ZM63 43H64V44H63V43ZM57 45H59V46H57V45ZM64 45H65V46H64V45ZM70 45H71V46H70V45ZM53 46H57V47H56V49H55V50H54V52H52V54H49V53H48V52H49V51H50V49H51V48H52V47H53V46ZM59 46H60V47H59V46ZM69 46H70V47H69V46ZM72 46H73V47H72V46ZM60 47H61V48H60V47ZM62 47H63V48H62V47ZM66 47H67V48H66V47Z" fill="#8E508E"/>
<path id="color_ddaddd_1" fill-rule="evenodd" clip-rule="evenodd" d="M65 41H66V42H65V41ZM63 42H64V43H63V42ZM69 42H70V43H69V42ZM54 43H56V44H61V43H63V44H62V45H57V46H53V47H52V48H51V49H50V47H51V46H52V44H54V43ZM67 43H69V44H67V43ZM72 43H74V44H72V43ZM66 44H67V45H66V44ZM70 44H72V45H70V44ZM76 44H78V45H76V44ZM65 45H66V46H65V45ZM69 45H70V46H69V45ZM75 45H76V46H75V45ZM63 46H65V47H63V46ZM68 46H69V47H68V46ZM73 46H75V47H73V46ZM67 47H68V48H67V47ZM72 47H73V48H72V47ZM49 49H50V51H49V52H48V53H47V51H48V50H49V49Z" fill="#DDADDD"/>
<path id="color_ddaddd_2" fill-rule="evenodd" clip-rule="evenodd" d="M13 67H14V68H15V71H14V75H13V81H12V71H13V68V67ZM11 81H12V83H11V82V81ZM12 83H13V90H14V94H15V97H16V104H15V100H14V95H13V91H12V84V83ZM16 104H17V106H16V105V104Z" fill="#DDADDD"/>
<path id="color_fbb5b5_1" fill-rule="evenodd" clip-rule="evenodd" d="M66 19H69V21H66V20V19ZM71 21H72V22H71V21ZM56 27H58V28H57V31H56V28V27ZM61 31H62V32H61V31ZM60 32H61V33H60V32ZM73 34H74V35H76V37H74V36H73V35V34ZM75 38H76V39H75V38Z" fill="#FBB5B5"/>
<path id="color_a43434_1" fill-rule="evenodd" clip-rule="evenodd" d="M71 22H72V23H71V22ZM70 23H71V24H70V23ZM66 24H70V25H66V24ZM62 31H63V32H62V31ZM61 32H62V33H61V32ZM54 33H61V34H56V35H55V34H54V33ZM42 34H44V35H42V34ZM70 36H71V37H70V36ZM71 37H72V38H71V37Z" fill="#A43434"/>
<path id="color_594d1f_1" fill-rule="evenodd" clip-rule="evenodd" d="M36 12H40V13H37V14H36V15H34V14H35V13H36V12ZM40 13H41V14H40V13ZM41 14H42V17H41V15V14Z" fill="#594D1F"/>
<path id="color_6ecde8_1" fill-rule="evenodd" clip-rule="evenodd" d="M37 16H38V17H37V16ZM36 17H37V21H35V18H36V17ZM39 18H40V21H39V19V18Z" fill="#6ECDE8"/>
<path id="color_f38080_1" fill-rule="evenodd" clip-rule="evenodd" d="M70 21H71V22H70V21ZM58 27H60V28H58V27ZM74 34H75V35H74V34ZM72 35H73V37H71V36H72V35ZM74 38H75V39H74V38Z" fill="#F38080"/>
<path id="color_b5e9f8_1" fill-rule="evenodd" clip-rule="evenodd" d="M38 16H39V21H38V17V16Z" fill="#B5E9F8"/>
<path id="color_8ddaf0_1" fill-rule="evenodd" clip-rule="evenodd" d="M37 17H38V21H37V18V17Z" fill="#8DDAF0"/>
<path id="color_f99b9b_1" fill-rule="evenodd" clip-rule="evenodd" d="M46 32H47V33H46V32ZM45 33H46V34H45V33ZM45 35H46V37H45V36V35Z" fill="#F99B9B"/>
<path id="color_2f9fc9_1" fill-rule="evenodd" clip-rule="evenodd" d="M34 22H35V23H34V22ZM37 22H38V23H37V22ZM36 23H37V24H36V23Z" fill="#2F9FC9"/>
<path id="color_f9fcfd_1" fill-rule="evenodd" clip-rule="evenodd" d="M36 22H37V23H36V22ZM38 23H40V24H38V23Z" fill="#F9FCFD"/>
<path id="color_f5f5f2_2" fill-rule="evenodd" clip-rule="evenodd" d="M51 106H52V107H51V106ZM52 108H53V109H52V108Z" fill="#F5F5F2"/>
<path id="color_d28c8b_1" fill-rule="evenodd" clip-rule="evenodd" d="M22 4H23V5H22V4Z" fill="#D28C8B"/>
<path id="color_a94839_1" fill-rule="evenodd" clip-rule="evenodd" d="M43 8H44V9H43V8Z" fill="#A94839"/>
<path id="color_ae3c34_1" fill-rule="evenodd" clip-rule="evenodd" d="M18 21H19V22H18V21Z" fill="#AE3C34"/>
<path id="color_071114_1" fill-rule="evenodd" clip-rule="evenodd" d="M35 22H36V23H35V22Z" fill="#071114"/>
<path id="color_1c7292_1" fill-rule="evenodd" clip-rule="evenodd" d="M35 23H36V24H35V23Z" fill="#1C7292"/>
</g>
<defs>
<clipPath id="clip0_0_4">
<rect width="81" height="110" fill="white"/>
</clipPath>
</defs>
</svg>
