<svg preserveAspectRatio="none" style="display: block;" width="81" height="110" viewBox="0 0 81 110" fill="none" xmlns="http://www.w3.org/2000/svg">
<g id="DER&#196;&#176;N_NEFES">
<g id="Group 296">
<path id="color_c5e0eb_1" fill-rule="evenodd" clip-rule="evenodd" d="M20 0H61V3H60V6H59V8H58V10H57V13H56V15H55V18H54V21H53V23H52V25H51V28H50V31H49V33H48V35H47V38H46V40H45V43H44V45H43V47H42V50H41V52H40V50H39V47H38V45H37V42H36V39H35V37H34V35H33V32H32V30H31V27H30V24H29V21H28V20H27V17H26V14H25V11H24V9H23V6H22V4H21V1H20V0ZM80 20H81V89H80V88H79V87H77V86H76V85H75V84H74V83H73V82H72V81H70V79H68V78H67V77H66V76H65V75H64V74H62V73H61V72H60V71H59V70H58V69H57V68H55V67H54V66H53V65H52V64H51V63H50V62H49V61H48V60H46V59H45V58H44V57H43V56H42V54H43V53H44V52H45V51H47V49H49V48H50V47H51V46H52V45H53V44H54V43H56V41H58V40H59V39H60V38H62V36H64V35H65V33H67V32H68V31H69V30H71V28H73V27H74V26H75V25H76V24H77V23H78V22H79V21H80V20ZM0 21H1V22H2V23H3V24H4V25H6V26H7V27H8V28H9V29H10V30H11V31H13V32H14V33H15V34H16V35H17V36H18V37H19V38H20V39H22V40H23V41H24V42H25V43H26V44H28V45H29V46H30V47H31V48H32V49H33V50H35V52H37V53H38V54H39V56H38V57H37V58H36V59H35V60H34V61H33V62H31V63H30V64H29V65H28V66H27V67H26V68H25V69H24V70H22V71H21V72H20V73H19V74H18V75H17V76H16V77H15V78H13V79H12V80H11V81H10V82H9V83H8V84H7V85H6V86H4V88H2V89H1V90H0V22V21ZM40 56H41V58H42V61H43V62H44V65H45V68H46V71H47V73H48V75H49V78H50V81H51V83H52V86H53V89H54V90H55V93H56V96H57V99H58V101H59V103H60V106H61V109H62V110H19V107H20V105H21V102H22V99H23V98H24V95H25V92H26V90H27V87H28V85H29V83H30V80H31V78H32V75H33V73H34V70H35V68H36V65H37V62H38V60H39V58H40V57V56Z" fill="#D53F8C"/>
<path id="color_ffffff_1" fill-rule="evenodd" clip-rule="evenodd" d="M18 0H20V1H21V4H22V6H23V9H24V11H25V14H26V17H27V20H28V21H29V24H30V27H31V30H32V32H33V35H34V37H35V39H36V42H37V45H38V47H39V50H40V52H41V50H42V47H43V45H44V43H45V40H46V38H47V35H48V33H49V31H50V28H51V25H52V23H53V21H54V18H55V15H56V13H57V10H58V8H59V6H60V3H61V0H63V1H64V2H65V3H66V4H67V5H68V6H69V7H70V8H71V9H72V10H73V11H74V12H75V13H76V14H77V15H78V16H79V17H80V18H81V20H80V21H79V22H78V23H77V24H76V25H75V26H74V27H73V28H71V30H69V31H68V32H67V33H65V35H64V36H62V38H60V39H59V40H58V41H56V43H54V44H53V45H52V46H51V47H50V48H49V49H47V51H45V52H44V53H43V54H42V56H43V57H44V58H45V59H46V60H48V61H49V62H50V63H51V64H52V65H53V66H54V67H55V68H57V69H58V70H59V71H60V72H61V73H62V74H64V75H65V76H66V77H67V78H68V79H70V81H72V82H73V83H74V84H75V85H76V86H77V87H79V88H80V89H81V92H80V93H79V94H78V95H77V96H76V97H75V98H74V99H73V100H72V101H71V102H70V103H69V104H68V105H67V106H66V107H65V108H64V109H63V110H62V109H61V106H60V103H59V101H58V99H57V96H56V93H55V90H54V89H53V86H52V83H51V81H50V78H49V75H48V73H47V71H46V68H45V65H44V62H43V61H42V58H41V56H40V58H39V60H38V62H37V65H36V68H35V70H34V73H33V75H32V78H31V80H30V83H29V85H28V87H27V90H26V92H25V95H24V98H23V99H22V102H21V105H20V107H19V110H18V109H17V108H16V107H15V106H14V105H13V104H12V103H11V102H10V101H9V100H8V99H7V98H6V97H5V96H4V95H3V94H2V93H1V92H0V90H1V89H2V88H4V86H6V85H7V84H8V83H9V82H10V81H11V80H12V79H13V78H15V77H16V76H17V75H18V74H19V73H20V72H21V71H22V70H24V69H25V68H26V67H27V66H28V65H29V64H30V63H31V62H33V61H34V60H35V59H36V58H37V57H38V56H39V54H38V53H37V52H35V50H33V49H32V48H31V47H30V46H29V45H28V44H26V43H25V42H24V41H23V40H22V39H20V38H19V37H18V36H17V35H16V34H15V33H14V32H13V31H11V30H10V29H9V28H8V27H7V26H6V25H4V24H3V23H2V22H1V21H0V18H1V17H2V16H3V15H4V14H5V13H6V12H7V11H8V10H9V9H10V8H11V7H12V6H13V5H14V4H15V3H16V2H17V1H18V0Z" fill="#ED64A6"/>
</g>
<path id="Union" d="M41 95V96.5H42.5V95H41ZM40 95H38.5V96.5H40V95ZM40 88H41.5V86.5H40V88ZM39 88H37.5V89.5H39V88ZM39 86V84.5H37.5V86H39ZM41 86H42.5V84.5H41V86ZM47 85V86.5H48.5V85H47ZM46 85H44.5V86.5H46V85ZM46 84V82.5H44.5V84H46ZM47 84H48.5V82.5H47V84ZM42 84V85.5H43.5V84H42ZM41 84H39.5V85.5H41V84ZM42 81H43.5V79.5H42V81ZM42 76H43.5V74.5H42V76ZM42 80V81.5H43.5V80H42ZM41 80V78.5H39.5V80H41ZM40 81H38.5V82.5H40V81ZM40 71H41.5V69.5H40V71ZM39 71H37.5V72.5H39V71ZM39 65V63.5H37.5V65H39ZM40 65V66.5H41.5V65H40ZM40 64H41.5V62.5H40V64ZM39 64H37.5V65.5H39V64ZM39 63V61.5H37.5V63H39ZM40 63V64.5H41.5V63H40ZM40 62H41.5V60.5H40V62ZM39 62H37.5V63.5H39V62ZM40 60V61.5H41.5V60H40ZM40 58H41.5V56.5H40V58ZM39 58H37.5V59.5H39V58ZM39 56V54.5H37.5V56H39ZM40 56V57.5H41.5V56H40ZM41 55V56.5H42.5V55H41ZM41 54V52.5H39.5V54H41ZM42 54V55.5H43.5V54H42ZM42 42V40.5H40.5V42H42ZM43 42V43.5H44.5V42H43ZM43 40V38.5H41.5V40H43ZM44 41H42.5V42.5H44V41ZM45 41V42.5H46.5V41H45ZM47 40V41.5H48.5V40H47ZM47 38H48.5V36.5H47V38ZM46 38V36.5H44.5V38H46ZM46 39V40.5H47.5V39H46ZM45 39V37.5H43.5V39H45ZM44 38V36.5H42.5V38H44ZM45 38V39.5H46.5V38H45ZM45 37V35.5H43.5V37H45ZM50 37H51.5V35.5H50V37ZM50 39H48.5V40.5H50V39ZM51 39H52.5V37.5H51V39ZM51 40H49.5V41.5H51V40ZM52 40H53.5V38.5H52V40ZM52 41H50.5V42.5H52V41ZM53 41H54.5V39.5H53V41ZM53 42V43.5H54.5V42H53ZM52 42V40.5H50.5V42H52ZM52 46V47.5H53.5V46H52ZM51 46H49.5V47.5H51V46ZM51 41H52.5V39.5H51V41ZM50 41V39.5H48.5V41H50ZM50 46V47.5H51.5V46H50ZM48 42H49.5V40.5H48V42ZM46 42V40.5H44.5V42H46ZM45 47H43.5V48.5H45V47ZM45 43H46.5V41.5H45V43ZM44 43V41.5H42.5V43H44ZM44 46V47.5H45.5V46H44ZM43 46V44.5H41.5V46H43ZM43 52H41.5V53.5H43V52ZM44 52H45.5V50.5H44V52ZM44 55V56.5H45.5V55H44ZM43 55V53.5H41.5V55H43ZM42 58H40.5V59.5H42V58ZM42 57H43.5V55.5H42V57ZM41 57V55.5H39.5V57H41ZM41 60H39.5V61.5H41V60ZM42 60H43.5V58.5H42V60ZM42 61V62.5H43.5V61H42ZM41 61V59.5H39.5V61H41ZM41 69V70.5H42.5V69H41ZM40 69V67.5H38.5V69H40ZM40 70H38.5V71.5H40V70ZM41 70H42.5V68.5H41V70ZM41 76H39.5V77.5H41V76ZM38 60H36.5V61.5H38V60ZM38 59V57.5H36.5V59H38ZM39 59H40.5V57.5H39V59ZM44 59V60.5H45.5V59H44ZM43 59H41.5V60.5H43V59ZM44 58H45.5V56.5H44V58ZM39 55H37.5V56.5H39V55ZM40 52H41.5V50.5H40V52ZM28 54V55.5H29.5V54H28ZM27 54H25.5V55.5H27V54ZM27 49V47.5H25.5V49H27ZM34 48V46.5H32.5V48H34ZM33 50V48.5H31.5V50H33ZM33 53H31.5V54.5H33V53ZM34 53H35.5V51.5H34V53ZM34 54V55.5H35.5V54H34ZM32 54H30.5V55.5H32V54ZM32 49V47.5H30.5V49H32ZM33 49V50.5H34.5V49H33ZM33 47V45.5H31.5V47H33ZM37 47H38.5V45.5H37V47ZM36 53V54.5H37.5V53H36ZM35 53H33.5V54.5H35V53ZM36 52H37.5V50.5H36V52ZM30 52V53.5H31.5V52H30ZM29 52H27.5V53.5H29V52ZM34 52H32.5V53.5H34V52ZM38 52H36.5V53.5H38V52ZM39 49H40.5V47.5H39V49ZM37 51V52.5H38.5V51H37ZM36 51H34.5V52.5H36V51ZM36 50H37.5V48.5H36V50ZM35 49V47.5H33.5V49H35ZM51 16H49.5V17.5H51V16ZM52 16H53.5V14.5H52V16ZM52 17V18.5H53.5V17H52ZM51 17V15.5H49.5V17H51ZM51 18V19.5H52.5V18H51ZM49 18V16.5H47.5V18H49ZM49 19V20.5H50.5V19H49ZM48 19H46.5V20.5H48V19ZM48 18H49.5V16.5H48V18ZM47 18H45.5V19.5H47V18ZM47 17V15.5H45.5V17H47ZM48 17V18.5H49.5V17H48ZM48 16H49.5V14.5H48V16ZM46 16V14.5H44.5V16H46ZM46 18V19.5H47.5V18H46ZM45 18V16.5H43.5V18H45ZM45 19V20.5H46.5V19H45ZM44 19V17.5H42.5V19H44ZM44 23V24.5H45.5V23H44ZM43 23V21.5H41.5V23H43ZM43 25H41.5V26.5H43V25ZM45 28V29.5H46.5V28H45ZM43 28V26.5H41.5V28H43ZM43 29H41.5V30.5H43V29ZM44 29H45.5V27.5H44V29ZM44 30V31.5H45.5V30H44ZM43 30V28.5H41.5V30H43ZM43 33V34.5H44.5V33H43ZM42 33V31.5H40.5V33H42ZM42 39V40.5H43.5V39H42ZM41 39V37.5H39.5V39H41ZM41 50V51.5H42.5V50H41ZM40 50H38.5V51.5H40V50ZM40 41H41.5V39.5H40V41ZM39 41H37.5V42.5H39V41ZM39 36H40.5V34.5H39V36ZM38 36H36.5V37.5H38V36ZM39 34V35.5H40.5V34H39ZM39 32H40.5V30.5H39V32ZM37 34H35.5V35.5H37V34ZM37 33H38.5V31.5H37V33ZM36 33V31.5H34.5V33H36ZM36 36V37.5H37.5V36H36ZM35 36V34.5H33.5V36H35ZM35 37V38.5H36.5V37H35ZM32 37V35.5H30.5V37H32ZM32 39V40.5H33.5V39H32ZM31 39H29.5V40.5H31V39ZM31 38H32.5V36.5H31V38ZM30 38H28.5V39.5H30V38ZM30 37H31.5V35.5H30V37ZM29 37H27.5V38.5H29V37ZM29 36H30.5V34.5H29V36ZM28 36H26.5V37.5H28V36ZM28 30V28.5H26.5V30H28ZM29 30V31.5H30.5V30H29ZM29 29V27.5H27.5V29H29ZM30 29V30.5H31.5V29H30ZM31 28V29.5H32.5V28H31ZM33 27V28.5H34.5V27H33ZM33 26V24.5H31.5V26H33ZM35 26H36.5V24.5H35V26ZM35 27H33.5V28.5H35V27ZM36 27H37.5V25.5H36V27ZM36 28H34.5V29.5H36V28ZM38 28H39.5V26.5H38V28ZM38 30H36.5V31.5H38V30ZM39 30H40.5V28.5H39V30ZM39 31H37.5V32.5H39V31ZM40 31H41.5V29.5H40V31ZM40 34H38.5V35.5H40V34ZM41 34V35.5H42.5V34H41ZM41 30H42.5V28.5H41V30ZM40 30H38.5V31.5H40V30ZM41 25H42.5V23.5H41V25ZM41 29H39.5V30.5H41V29ZM42 29V30.5H43.5V29H42ZM42 18V16.5H40.5V18H42ZM43 18V19.5H44.5V18H43ZM43 17V15.5H41.5V17H43ZM44 17V18.5H45.5V17H44ZM44 16V14.5H42.5V16H44ZM45 16V17.5H46.5V16H45ZM45 15V13.5H43.5V15H45ZM46 15V16.5H47.5V15H46ZM46 14V12.5H44.5V14H46ZM28 47V45.5H26.5V47H28ZM29 47H30.5V45.5H29V47ZM31 49V50.5H32.5V49H31ZM30 48V46.5H28.5V48H30ZM38 48H39.5V46.5H38V48ZM32 48V49.5H33.5V48H32ZM31 47V45.5H29.5V47H31ZM32 47H33.5V45.5H32V47ZM47 48V49.5H48.5V48H47ZM46 48H44.5V49.5H46V48ZM48 47V48.5H49.5V47H48ZM47 46V44.5H45.5V46H47ZM39 44V45.5H40.5V44H39ZM38 44H36.5V45.5H38V44ZM38 43V41.5H36.5V43H38ZM39 43H40.5V41.5H39V43ZM31 41H29.5V42.5H31V41ZM33 40V38.5H31.5V40H33ZM34 40H35.5V38.5H34V40ZM34 41V42.5H35.5V41H34ZM33 42V43.5H34.5V42H33ZM30 42H28.5V43.5H30V42ZM30 40V38.5H28.5V40H30ZM31 40H32.5V38.5H31V40ZM26 41V42.5H27.5V41H26ZM24 41H22.5V42.5H24V41ZM26 40H27.5V38.5H26V40ZM23 40H21.5V41.5H23V40ZM23 35V33.5H21.5V35H23ZM24 35H25.5V33.5H24V35ZM27 39V40.5H28.5V39H27ZM26 39H24.5V40.5H26V39ZM27 38H28.5V36.5H27V38ZM48 39H46.5V40.5H48V39ZM49 39V40.5H50.5V39H49ZM49 38H50.5V36.5H49V38ZM48 38V36.5H46.5V38H48ZM25 38H23.5V39.5H25V38ZM25 30V28.5H23.5V30H25ZM31 35H29.5V36.5H31V35ZM33 35H34.5V33.5H33V35ZM33 36H31.5V37.5H33V36ZM34 36V37.5H35.5V36H34ZM34 35V33.5H32.5V35H34ZM35 35V36.5H36.5V35H35ZM35 32H36.5V30.5H35V32ZM34 30H35.5V28.5H34V30ZM31 30V28.5H29.5V30H31ZM53 34V35.5H54.5V34H53ZM52 34H50.5V35.5H52V34ZM52 33V31.5H50.5V33H52ZM34 33V34.5H35.5V33H34ZM32 33H30.5V34.5H32V33ZM32 32V30.5H30.5V32H32ZM49 31H47.5V32.5H49V31ZM52 32V33.5H53.5V32H52ZM51 32V30.5H49.5V32H51ZM51 33V34.5H52.5V33H51ZM50 33H48.5V34.5H50V33ZM50 32H51.5V30.5H50V32ZM48 32H46.5V33.5H48V32ZM48 31H49.5V29.5H48V31ZM47 31H45.5V32.5H47V31ZM49 30H50.5V28.5H49V30ZM56 30H54.5V31.5H56V30ZM57 31V32.5H58.5V31H57ZM56 31V29.5H54.5V31H56ZM56 32V33.5H57.5V32H56ZM55 32V30.5H53.5V32H55ZM55 33V34.5H56.5V33H55ZM53 32V30.5H51.5V32H53ZM54 32V33.5H55.5V32H54ZM54 31V29.5H52.5V31H54ZM55 31V32.5H56.5V31H55ZM55 29V27.5H53.5V29H55ZM37 32H35.5V33.5H37V32ZM38 31H39.5V29.5H38V31ZM37 31V29.5H35.5V31H37ZM35 31H33.5V32.5H35V31ZM36 31V32.5H37.5V31H36ZM36 29H37.5V27.5H36V29ZM35 29V27.5H33.5V29H35ZM52 21H50.5V22.5H52V21ZM53 21H54.5V19.5H53V21ZM53 22H51.5V23.5H53V22ZM54 22H55.5V20.5H54V22ZM54 30V31.5H55.5V30H54ZM53 30V28.5H51.5V30H53ZM53 31V32.5H54.5V31H53ZM52 29V27.5H50.5V29H52ZM53 29V30.5H54.5V29H53ZM53 27H54.5V25.5H53V27ZM52 27H50.5V28.5H52V27ZM52 26V24.5H50.5V26H52ZM53 26V27.5H54.5V26H53ZM53 24H54.5V22.5H53V24ZM52 24H50.5V25.5H52V24ZM52 22H53.5V20.5H52V22ZM50 22V20.5H48.5V22H50ZM50 23V24.5H51.5V23H50ZM48 23V21.5H46.5V23H48ZM48 24V25.5H49.5V24H48ZM47 24V22.5H45.5V24H47ZM47 25V26.5H48.5V25H47ZM45 23V21.5H43.5V23H45ZM46 23V24.5H47.5V23H46ZM46 22V20.5H44.5V22H46ZM47 22V23.5H48.5V22H47ZM47 21V19.5H45.5V21H47ZM48 21V22.5H49.5V21H48ZM48 20V18.5H46.5V20H48ZM52 20H53.5V18.5H52V20ZM27 30V31.5H28.5V30H27ZM26 29V27.5H24.5V29H26ZM27 29H28.5V27.5H27V29ZM46 30H44.5V31.5H46V30ZM46 29V27.5H44.5V29H46ZM47 29H48.5V27.5H47V29ZM57 25H55.5V26.5H57V25ZM58 25H59.5V23.5H58V25ZM58 30V31.5H59.5V30H58ZM57 29H58.5V27.5H57V29ZM56 24V22.5H54.5V24H56ZM57 24H58.5V22.5H57V24ZM28 28H26.5V29.5H28V28ZM28 27V25.5H26.5V27H28ZM30 26V24.5H28.5V26H30ZM31 26H32.5V24.5H31V26ZM35 17H33.5V18.5H35V17ZM37 17H38.5V15.5H37V17ZM37 18H35.5V19.5H37V18ZM39 18H40.5V16.5H39V18ZM39 20H37.5V21.5H39V20ZM40 20H41.5V18.5H40V20ZM40 23H38.5V24.5H40V23ZM41 23H42.5V21.5H41V23ZM41 24V25.5H42.5V24H41ZM40 24V22.5H38.5V24H40ZM39 25H37.5V26.5H39V25ZM39 24H40.5V22.5H39V24ZM38 24H36.5V25.5H38V24ZM38 21H39.5V19.5H38V21ZM37 21H35.5V22.5H37V21ZM37 20H38.5V18.5H37V20ZM36 20H34.5V21.5H36V20ZM36 19H37.5V17.5H36V19ZM34 19V17.5H32.5V19H34ZM34 20V21.5H35.5V20H34ZM31 20V18.5H29.5V20H31ZM31 22H29.5V23.5H31V22ZM34 22H35.5V20.5H34V22ZM34 23V24.5H35.5V23H34ZM33 23V21.5H31.5V23H33ZM33 24V25.5H34.5V24H33ZM31 25V26.5H32.5V25H31ZM29 25H27.5V26.5H29V25ZM29 23H30.5V21.5H29V23ZM28 23H26.5V24.5H28V23ZM28 19V17.5H26.5V19H28ZM29 19V20.5H30.5V19H29ZM29 18V16.5H27.5V18H29ZM30 18V19.5H31.5V18H30ZM30 16V14.5H28.5V16H30ZM35 16H36.5V14.5H35V16ZM30 24H28.5V25.5H30V24ZM31 23H32.5V21.5H31V23ZM30 23V21.5H28.5V23H30ZM56 23V24.5H57.5V23H56ZM55 23H53.5V24.5H55V23ZM56 21H57.5V19.5H56V21ZM27 22V23.5H28.5V22H27ZM26 22H24.5V23.5H26V22ZM27 21H28.5V19.5H27V21ZM28 17V18.5H29.5V17H28ZM27 17V15.5H25.5V17H27ZM27 19V20.5H28.5V19H27ZM26 19V17.5H24.5V19H26ZM25 21H23.5V22.5H25V21ZM25 18V16.5H23.5V18H25ZM26 18V19.5H27.5V18H26ZM26 16V14.5H24.5V16H26ZM54 21H52.5V22.5H54V21ZM55 19H56.5V17.5H55V19ZM52 19H50.5V20.5H52V19ZM52 18V16.5H50.5V18H52ZM54 18H55.5V16.5H54V18ZM30 15V16.5H31.5V15H30ZM29 15V13.5H27.5V15H29ZM29 16V17.5H30.5V16H29ZM28 14V12.5H26.5V14H28ZM30 14H31.5V12.5H30V14ZM43 15V16.5H44.5V15H43ZM42 15V13.5H40.5V15H42ZM42 16V17.5H43.5V16H42ZM41 16H39.5V17.5H41V16ZM41 14V12.5H39.5V14H41ZM54 16V17.5H55.5V16H54ZM53 16H51.5V17.5H53V16ZM54 15H55.5V13.5H54V15ZM52 13H50.5V14.5H52V13ZM53 13H54.5V11.5H53V13ZM52 15H50.5V16.5H52V15ZM52 14H53.5V12.5H52V14ZM51 12V10.5H49.5V12H51ZM52 12H53.5V10.5H52V12ZM44 14V15.5H45.5V14H44ZM43 13V11.5H41.5V13H43ZM46 13V14.5H47.5V13H46ZM44 12V10.5H42.5V12H44ZM46 12H47.5V10.5H46V12ZM41 95V93.5H40V95V96.5H41V95ZM40 95H41.5V88H40H38.5V95H40ZM40 88V86.5H39V88V89.5H40V88ZM39 88H40.5V86H39H37.5V88H39ZM39 86V87.5H41V86V84.5H39V86ZM41 86H39.5V95H41H42.5V86H41ZM47 85V83.5H46V85V86.5H47V85ZM46 85H47.5V84H46H44.5V85H46ZM46 84V85.5H47V84V82.5H46V84ZM47 84H45.5V85H47H48.5V84H47ZM42 84V82.5H41V84V85.5H42V84ZM41 84H42.5V81H41H39.5V84H41ZM41 81V82.5H42V81V79.5H41V81ZM42 81H40.5V84H42H43.5V81H42ZM42 76H40.5V80H42H43.5V76H42ZM42 80V78.5H41V80V81.5H42V80ZM41 80H39.5V81H41H42.5V80H41ZM41 81V79.5H40V81V82.5H41V81ZM40 81H41.5V71H40H38.5V81H40ZM40 71V69.5H39V71V72.5H40V71ZM39 71H40.5V65H39H37.5V71H39ZM39 65V66.5H40V65V63.5H39V65ZM40 65H41.5V64H40H38.5V65H40ZM40 64V62.5H39V64V65.5H40V64ZM39 64H40.5V63H39H37.5V64H39ZM39 63V64.5H40V63V61.5H39V63ZM40 63H41.5V62H40H38.5V63H40ZM40 62V60.5H39V62V63.5H40V62ZM39 62H40.5V60H39H37.5V62H39ZM39 60V61.5H40V60V58.5H39V60ZM40 60H41.5V58H40H38.5V60H40ZM40 58V56.5H39V58V59.5H40V58ZM39 58H40.5V56H39H37.5V58H39ZM39 56V57.5H40V56V54.5H39V56ZM40 56H41.5V55H40H38.5V56H40ZM40 55V56.5H41V55V53.5H40V55ZM41 55H42.5V54H41H39.5V55H41ZM41 54V55.5H42V54V52.5H41V54ZM42 54H43.5V42H42H40.5V54H42ZM42 42V43.5H43V42V40.5H42V42ZM43 42H44.5V40H43H41.5V42H43ZM43 40V41.5H44V40V38.5H43V40ZM44 40H42.5V41H44H45.5V40H44ZM44 41V42.5H45V41V39.5H44V41ZM45 41H46.5V40H45H43.5V41H45ZM45 40V41.5H47V40V38.5H45V40ZM47 40H48.5V38H47H45.5V40H47ZM47 38V36.5H46V38V39.5H47V38ZM46 38H44.5V39H46H47.5V38H46ZM46 39V37.5H45V39V40.5H46V39ZM45 39H43.5V40H45H46.5V39H45ZM45 40V38.5H44V40V41.5H45V40ZM44 40H45.5V38H44H42.5V40H44ZM44 38V39.5H45V38V36.5H44V38ZM45 38H46.5V37H45H43.5V38H45ZM45 37V38.5H50V37V35.5H45V37ZM50 37H48.5V39H50H51.5V37H50ZM50 39V40.5H51V39V37.5H50V39ZM51 39H49.5V40H51H52.5V39H51ZM51 40V41.5H52V40V38.5H51V40ZM52 40H50.5V41H52H53.5V40H52ZM52 41V42.5H53V41V39.5H52V41ZM53 41H51.5V42H53H54.5V41H53ZM53 42V40.5H52V42V43.5H53V42ZM52 42H50.5V46H52H53.5V42H52ZM52 46V44.5H51V46V47.5H52V46ZM51 46H52.5V41H51H49.5V46H51ZM51 41V39.5H50V41V42.5H51V41ZM50 41H48.5V46H50H51.5V41H50ZM50 46V44.5H48V46V47.5H50V46ZM48 46H49.5V42H48H46.5V46H48ZM48 42V40.5H46V42V43.5H48V42ZM46 42H44.5V47H46H47.5V42H46ZM46 47V45.5H45V47V48.5H46V47ZM45 47H46.5V43H45H43.5V47H45ZM45 43V41.5H44V43V44.5H45V43ZM44 43H42.5V46H44H45.5V43H44ZM44 46V44.5H43V46V47.5H44V46ZM43 46H41.5V52H43H44.5V46H43ZM43 52V53.5H44V52V50.5H43V52ZM44 52H42.5V55H44H45.5V52H44ZM44 55V53.5H43V55V56.5H44V55ZM43 55H41.5V58H43H44.5V55H43ZM43 58V56.5H42V58V59.5H43V58ZM42 58H43.5V57H42H40.5V58H42ZM42 57V55.5H41V57V58.5H42V57ZM41 57H39.5V60H41H42.5V57H41ZM41 60V61.5H42V60V58.5H41V60ZM42 60H40.5V61H42H43.5V60H42ZM42 61V59.5H41V61V62.5H42V61ZM41 61H39.5V69H41H42.5V61H41ZM41 69V67.5H40V69V70.5H41V69ZM40 69H38.5V70H40H41.5V69H40ZM40 70V71.5H41V70V68.5H40V70ZM41 70H39.5V76H41H42.5V70H41ZM41 76V77.5H42V76V74.5H41V76ZM39 60V58.5H38V60V61.5H39V60ZM38 60H39.5V59H38H36.5V60H38ZM38 59V60.5H39V59V57.5H38V59ZM39 59H37.5V60H39H40.5V59H39ZM44 59V57.5H43V59V60.5H44V59ZM43 59H44.5V58H43H41.5V59H43ZM43 58V59.5H44V58V56.5H43V58ZM44 58H42.5V59H44H45.5V58H44ZM40 55V53.5H39V55V56.5H40V55ZM39 55H40.5V52H39H37.5V55H39ZM39 52V53.5H40V52V50.5H39V52ZM40 52H38.5V55H40H41.5V52H40ZM28 54V52.5H27V54V55.5H28V54ZM27 54H28.5V49H27H25.5V54H27ZM27 49V50.5H28V49V47.5H27V49ZM28 49H26.5V54H28H29.5V49H28ZM37 48V46.5H34V48V49.5H37V48ZM34 48H32.5V50H34H35.5V48H34ZM34 50V48.5H33V50V51.5H34V50ZM33 50H31.5V53H33H34.5V50H33ZM33 53V54.5H34V53V51.5H33V53ZM34 53H32.5V54H34H35.5V53H34ZM34 54V52.5H32V54V55.5H34V54ZM32 54H33.5V49H32H30.5V54H32ZM32 49V50.5H33V49V47.5H32V49ZM33 49H34.5V47H33H31.5V49H33ZM33 47V48.5H37V47V45.5H33V47ZM37 47H35.5V48H37H38.5V47H37ZM36 53V51.5H35V53V54.5H36V53ZM35 53H36.5V52H35H33.5V53H35ZM35 52V53.5H36V52V50.5H35V52ZM36 52H34.5V53H36H37.5V52H36ZM30 52V50.5H29V52V53.5H30V52ZM29 52H30.5V49H29H27.5V52H29ZM29 49V50.5H30V49V47.5H29V49ZM30 49H28.5V52H30H31.5V49H30ZM35 52V50.5H34V52V53.5H35V52ZM34 52H35.5V50H34H32.5V52H34ZM34 50V51.5H35V50V48.5H34V50ZM35 50H33.5V52H35H36.5V50H35ZM39 52V50.5H38V52V53.5H39V52ZM38 52H39.5V49H38H36.5V52H38ZM38 49V50.5H39V49V47.5H38V49ZM39 49H37.5V52H39H40.5V49H39ZM37 51V49.5H36V51V52.5H37V51ZM36 51H37.5V50H36H34.5V51H36ZM36 50V48.5H35V50V51.5H36V50ZM35 50H36.5V49H35H33.5V50H35ZM35 49V50.5H37V49V47.5H35V49ZM37 49H35.5V51H37H38.5V49H37ZM51 16V17.5H52V16V14.5H51V16ZM52 16H50.5V17H52H53.5V16H52ZM52 17V15.5H51V17V18.5H52V17ZM51 17H49.5V18H51H52.5V17H51ZM51 18V16.5H49V18V19.5H51V18ZM49 18H47.5V19H49H50.5V18H49ZM49 19V17.5H48V19V20.5H49V19ZM48 19H49.5V18H48H46.5V19H48ZM48 18V16.5H47V18V19.5H48V18ZM47 18H48.5V17H47H45.5V18H47ZM47 17V18.5H48V17V15.5H47V17ZM48 17H49.5V16H48H46.5V17H48ZM48 16V14.5H46V16V17.5H48V16ZM46 16H44.5V18H46H47.5V16H46ZM46 18V16.5H45V18V19.5H46V18ZM45 18H43.5V19H45H46.5V18H45ZM45 19V17.5H44V19V20.5H45V19ZM44 19H42.5V23H44H45.5V19H44ZM44 23V21.5H43V23V24.5H44V23ZM43 23H41.5V25H43H44.5V23H43ZM43 25V26.5H45V25V23.5H43V25ZM45 25H43.5V28H45H46.5V25H45ZM45 28V26.5H43V28V29.5H45V28ZM43 28H41.5V29H43H44.5V28H43ZM43 29V30.5H44V29V27.5H43V29ZM44 29H42.5V30H44H45.5V29H44ZM44 30V28.5H43V30V31.5H44V30ZM43 30H41.5V33H43H44.5V30H43ZM43 33V31.5H42V33V34.5H43V33ZM42 33H40.5V39H42H43.5V33H42ZM42 39V37.5H41V39V40.5H42V39ZM41 39H39.5V50H41H42.5V39H41ZM41 50V48.5H40V50V51.5H41V50ZM40 50H41.5V41H40H38.5V50H40ZM40 41V39.5H39V41V42.5H40V41ZM39 41H40.5V36H39H37.5V41H39ZM39 36V34.5H38V36V37.5H39V36ZM38 36H39.5V34H38H36.5V36H38ZM38 34V35.5H39V34V32.5H38V34ZM39 34H40.5V32H39H37.5V34H39ZM39 32V30.5H38V32V33.5H39V32ZM38 32H36.5V34H38H39.5V32H38ZM38 34V32.5H37V34V35.5H38V34ZM37 34H38.5V33H37H35.5V34H37ZM37 33V31.5H36V33V34.5H37V33ZM36 33H34.5V36H36H37.5V33H36ZM36 36V34.5H35V36V37.5H36V36ZM35 36H33.5V37H35H36.5V36H35ZM35 37V35.5H32V37V38.5H35V37ZM32 37H30.5V39H32H33.5V37H32ZM32 39V37.5H31V39V40.5H32V39ZM31 39H32.5V38H31H29.5V39H31ZM31 38V36.5H30V38V39.5H31V38ZM30 38H31.5V37H30H28.5V38H30ZM30 37V35.5H29V37V38.5H30V37ZM29 37H30.5V36H29H27.5V37H29ZM29 36V34.5H28V36V37.5H29V36ZM28 36H29.5V30H28H26.5V36H28ZM28 30V31.5H29V30V28.5H28V30ZM29 30H30.5V29H29H27.5V30H29ZM29 29V30.5H30V29V27.5H29V29ZM30 29H31.5V28H30H28.5V29H30ZM30 28V29.5H31V28V26.5H30V28ZM31 28H32.5V27H31H29.5V28H31ZM31 27V28.5H33V27V25.5H31V27ZM33 27H34.5V26H33H31.5V27H33ZM33 26V27.5H35V26V24.5H33V26ZM35 26H33.5V27H35H36.5V26H35ZM35 27V28.5H36V27V25.5H35V27ZM36 27H34.5V28H36H37.5V27H36ZM36 28V29.5H38V28V26.5H36V28ZM38 28H36.5V30H38H39.5V28H38ZM38 30V31.5H39V30V28.5H38V30ZM39 30H37.5V31H39H40.5V30H39ZM39 31V32.5H40V31V29.5H39V31ZM40 31H38.5V34H40H41.5V31H40ZM40 34V35.5H41V34V32.5H40V34ZM41 34H42.5V30H41H39.5V34H41ZM41 30V28.5H40V30V31.5H41V30ZM40 30H41.5V25H40H38.5V30H40ZM40 25V26.5H41V25V23.5H40V25ZM41 25H39.5V29H41H42.5V25H41ZM41 29V30.5H42V29V27.5H41V29ZM42 29H43.5V18H42H40.5V29H42ZM42 18V19.5H43V18V16.5H42V18ZM43 18H44.5V17H43H41.5V18H43ZM43 17V18.5H44V17V15.5H43V17ZM44 17H45.5V16H44H42.5V17H44ZM44 16V17.5H45V16V14.5H44V16ZM45 16H46.5V15H45H43.5V16H45ZM45 15V16.5H46V15V13.5H45V15ZM46 15H47.5V14H46H44.5V15H46ZM46 14V15.5H51V14V12.5H46V14ZM51 14H49.5V16H51H52.5V14H51ZM29 49V47.5H28V49V50.5H29V49ZM28 49H29.5V47H28H26.5V49H28ZM28 47V48.5H29V47V45.5H28V47ZM29 47H27.5V49H29H30.5V47H29ZM31 49V47.5H30V49V50.5H31V49ZM30 49H31.5V48H30H28.5V49H30ZM30 48V49.5H31V48V46.5H30V48ZM31 48H29.5V49H31H32.5V48H31ZM38 49V47.5H37V49V50.5H38V49ZM37 49H38.5V48H37H35.5V49H37ZM37 48V49.5H38V48V46.5H37V48ZM38 48H36.5V49H38H39.5V48H38ZM32 48V46.5H31V48V49.5H32V48ZM31 48H32.5V47H31H29.5V48H31ZM31 47V48.5H32V47V45.5H31V47ZM32 47H30.5V48H32H33.5V47H32ZM47 48V46.5H46V48V49.5H47V48ZM46 48H47.5V47H46H44.5V48H46ZM46 47V48.5H47V47V45.5H46V47ZM47 47H45.5V48H47H48.5V47H47ZM48 47V45.5H47V47V48.5H48V47ZM47 47H48.5V46H47H45.5V47H47ZM47 46V47.5H48V46V44.5H47V46ZM48 46H46.5V47H48H49.5V46H48ZM39 44V42.5H38V44V45.5H39V44ZM38 44H39.5V43H38H36.5V44H38ZM38 43V44.5H39V43V41.5H38V43ZM39 43H37.5V44H39H40.5V43H39ZM31 41V42.5H33V41V39.5H31V41ZM33 41H34.5V40H33H31.5V41H33ZM33 40V41.5H34V40V38.5H33V40ZM34 40H32.5V41H34H35.5V40H34ZM34 41V39.5H33V41V42.5H34V41ZM33 41H31.5V42H33H34.5V41H33ZM33 42V40.5H30V42V43.5H33V42ZM30 42H31.5V40H30H28.5V42H30ZM30 40V41.5H31V40V38.5H30V40ZM31 40H29.5V41H31H32.5V40H31ZM26 41V39.5H24V41V42.5H26V41ZM24 41H25.5V40H24H22.5V41H24ZM24 40V41.5H26V40V38.5H24V40ZM26 40H24.5V41H26H27.5V40H26ZM24 40V38.5H23V40V41.5H24V40ZM23 40H24.5V35H23H21.5V40H23ZM23 35V36.5H24V35V33.5H23V35ZM24 35H22.5V40H24H25.5V35H24ZM27 39V37.5H26V39V40.5H27V39ZM26 39H27.5V38H26H24.5V39H26ZM26 38V39.5H27V38V36.5H26V38ZM27 38H25.5V39H27H28.5V38H27ZM48 39V40.5H49V39V37.5H48V39ZM49 39H50.5V38H49H47.5V39H49ZM49 38V36.5H48V38V39.5H49V38ZM48 38H46.5V39H48H49.5V38H48ZM26 38V36.5H25V38V39.5H26V38ZM25 38H26.5V30H25H23.5V38H25ZM25 30V31.5H26V30V28.5H25V30ZM26 30H24.5V38H26H27.5V30H26ZM31 35V36.5H33V35V33.5H31V35ZM33 35H31.5V36H33H34.5V35H33ZM33 36V37.5H34V36V34.5H33V36ZM34 36H35.5V35H34H32.5V36H34ZM34 35V36.5H35V35V33.5H34V35ZM35 35H36.5V32H35H33.5V35H35ZM35 32V30.5H34V32V33.5H35V32ZM34 32H35.5V30H34H32.5V32H34ZM34 30V28.5H31V30V31.5H34V30ZM31 30H29.5V35H31H32.5V30H31ZM53 34V32.5H52V34V35.5H53V34ZM52 34H53.5V33H52H50.5V34H52ZM52 33V34.5H53V33V31.5H52V33ZM53 33H51.5V34H53H54.5V33H53ZM34 33V31.5H32V33V34.5H34V33ZM32 33H33.5V32H32H30.5V33H32ZM32 32V33.5H34V32V30.5H32V32ZM34 32H32.5V33H34H35.5V32H34ZM49 31V32.5H52V31V29.5H49V31ZM52 31H50.5V32H52H53.5V31H52ZM52 32V30.5H51V32V33.5H52V32ZM51 32H49.5V33H51H52.5V32H51ZM51 33V31.5H50V33V34.5H51V33ZM50 33H51.5V32H50H48.5V33H50ZM50 32V30.5H48V32V33.5H50V32ZM48 32H49.5V31H48H46.5V32H48ZM48 31V29.5H47V31V32.5H48V31ZM47 31H48.5V30H47H45.5V31H47ZM47 30V31.5H49V30V28.5H47V30ZM49 30H47.5V31H49H50.5V30H49ZM56 30V31.5H57V30V28.5H56V30ZM57 30H55.5V31H57H58.5V30H57ZM57 31V29.5H56V31V32.5H57V31ZM56 31H54.5V32H56H57.5V31H56ZM56 32V30.5H55V32V33.5H56V32ZM55 32H53.5V33H55H56.5V32H55ZM55 33V31.5H53V33V34.5H55V33ZM53 33H54.5V32H53H51.5V33H53ZM53 32V33.5H54V32V30.5H53V32ZM54 32H55.5V31H54H52.5V32H54ZM54 31V32.5H55V31V29.5H54V31ZM55 31H56.5V29H55H53.5V31H55ZM55 29V30.5H56V29V27.5H55V29ZM56 29H54.5V30H56H57.5V29H56ZM37 32V33.5H38V32V30.5H37V32ZM38 32H39.5V31H38H36.5V32H38ZM38 31V29.5H37V31V32.5H38V31ZM37 31H35.5V32H37H38.5V31H37ZM35 31V32.5H36V31V29.5H35V31ZM36 31H37.5V29H36H34.5V31H36ZM36 29V27.5H35V29V30.5H36V29ZM35 29H33.5V31H35H36.5V29H35ZM52 21V22.5H53V21V19.5H52V21ZM53 21H51.5V22H53H54.5V21H53ZM53 22V23.5H54V22V20.5H53V22ZM54 22H52.5V30H54H55.5V22H54ZM54 30V28.5H53V30V31.5H54V30ZM53 30H51.5V31H53H54.5V30H53ZM53 31V29.5H52V31V32.5H53V31ZM52 31H53.5V29H52H50.5V31H52ZM52 29V30.5H53V29V27.5H52V29ZM53 29H54.5V27H53H51.5V29H53ZM53 27V25.5H52V27V28.5H53V27ZM52 27H53.5V26H52H50.5V27H52ZM52 26V27.5H53V26V24.5H52V26ZM53 26H54.5V24H53H51.5V26H53ZM53 24V22.5H52V24V25.5H53V24ZM52 24H53.5V22H52H50.5V24H52ZM52 22V20.5H50V22V23.5H52V22ZM50 22H48.5V23H50H51.5V22H50ZM50 23V21.5H48V23V24.5H50V23ZM48 23H46.5V24H48H49.5V23H48ZM48 24V22.5H47V24V25.5H48V24ZM47 24H45.5V25H47H48.5V24H47ZM47 25V23.5H45V25V26.5H47V25ZM45 25H46.5V23H45H43.5V25H45ZM45 23V24.5H46V23V21.5H45V23ZM46 23H47.5V22H46H44.5V23H46ZM46 22V23.5H47V22V20.5H46V22ZM47 22H48.5V21H47H45.5V22H47ZM47 21V22.5H48V21V19.5H47V21ZM48 21H49.5V20H48H46.5V21H48ZM48 20V21.5H52V20V18.5H48V20ZM52 20H50.5V21H52H53.5V20H52ZM27 30V28.5H26V30V31.5H27V30ZM26 30H27.5V29H26H24.5V30H26ZM26 29V30.5H27V29V27.5H26V29ZM27 29H25.5V30H27H28.5V29H27ZM47 30V28.5H46V30V31.5H47V30ZM46 30H47.5V29H46H44.5V30H46ZM46 29V30.5H47V29V27.5H46V29ZM47 29H45.5V30H47H48.5V29H47ZM57 25V26.5H58V25V23.5H57V25ZM58 25H56.5V30H58H59.5V25H58ZM58 30V28.5H57V30V31.5H58V30ZM57 30H58.5V29H57H55.5V30H57ZM57 29V27.5H56V29V30.5H57V29ZM56 29H57.5V24H56H54.5V29H56ZM56 24V25.5H57V24V22.5H56V24ZM57 24H55.5V25H57H58.5V24H57ZM30 28V26.5H28V28V29.5H30V28ZM28 28H29.5V27H28H26.5V28H28ZM28 27V28.5H30V27V25.5H28V27ZM30 27H28.5V28H30H31.5V27H30ZM31 27V25.5H30V27V28.5H31V27ZM30 27H31.5V26H30H28.5V27H30ZM30 26V27.5H31V26V24.5H30V26ZM31 26H29.5V27H31H32.5V26H31ZM35 17V18.5H37V17V15.5H35V17ZM37 17H35.5V18H37H38.5V17H37ZM37 18V19.5H39V18V16.5H37V18ZM39 18H37.5V20H39H40.5V18H39ZM39 20V21.5H40V20V18.5H39V20ZM40 20H38.5V23H40H41.5V20H40ZM40 23V24.5H41V23V21.5H40V23ZM41 23H39.5V24H41H42.5V23H41ZM41 24V22.5H40V24V25.5H41V24ZM40 24H38.5V25H40H41.5V24H40ZM40 25V23.5H39V25V26.5H40V25ZM39 25H40.5V24H39H37.5V25H39ZM39 24V22.5H38V24V25.5H39V24ZM38 24H39.5V21H38H36.5V24H38ZM38 21V19.5H37V21V22.5H38V21ZM37 21H38.5V20H37H35.5V21H37ZM37 20V18.5H36V20V21.5H37V20ZM36 20H37.5V19H36H34.5V20H36ZM36 19V17.5H34V19V20.5H36V19ZM34 19H32.5V20H34H35.5V19H34ZM34 20V18.5H31V20V21.5H34V20ZM31 20H29.5V22H31H32.5V20H31ZM31 22V23.5H34V22V20.5H31V22ZM34 22H32.5V23H34H35.5V22H34ZM34 23V21.5H33V23V24.5H34V23ZM33 23H31.5V24H33H34.5V23H33ZM33 24V22.5H31V24V25.5H33V24ZM31 24H29.5V25H31H32.5V24H31ZM31 25V23.5H29V25V26.5H31V25ZM29 25H30.5V23H29H27.5V25H29ZM29 23V21.5H28V23V24.5H29V23ZM28 23H29.5V19H28H26.5V23H28ZM28 19V20.5H29V19V17.5H28V19ZM29 19H30.5V18H29H27.5V19H29ZM29 18V19.5H30V18V16.5H29V18ZM30 18H31.5V16H30H28.5V18H30ZM30 16V17.5H35V16V14.5H30V16ZM35 16H33.5V17H35H36.5V16H35ZM30 24V25.5H31V24V22.5H30V24ZM31 24H32.5V23H31H29.5V24H31ZM31 23V21.5H30V23V24.5H31V23ZM30 23H28.5V24H30H31.5V23H30ZM56 23V21.5H55V23V24.5H56V23ZM55 23H56.5V21H55H53.5V23H55ZM55 21V22.5H56V21V19.5H55V21ZM56 21H54.5V23H56H57.5V21H56ZM27 22V20.5H26V22V23.5H27V22ZM26 22H27.5V21H26H24.5V22H26ZM26 21V22.5H27V21V19.5H26V21ZM27 21H25.5V22H27H28.5V21H27ZM28 17V15.5H27V17V18.5H28V17ZM27 17H25.5V19H27H28.5V17H27ZM27 19V17.5H26V19V20.5H27V19ZM26 19H24.5V21H26H27.5V19H26ZM26 21V19.5H25V21V22.5H26V21ZM25 21H26.5V18H25H23.5V21H25ZM25 18V19.5H26V18V16.5H25V18ZM26 18H27.5V16H26H24.5V18H26ZM26 16V17.5H28V16V14.5H26V16ZM28 16H26.5V17H28H29.5V16H28ZM55 21V19.5H54V21V22.5H55V21ZM54 21H55.5V19H54H52.5V21H54ZM54 19V20.5H55V19V17.5H54V19ZM55 19H53.5V21H55H56.5V19H55ZM54 19V17.5H52V19V20.5H54V19ZM52 19H53.5V18H52H50.5V19H52ZM52 18V19.5H54V18V16.5H52V18ZM54 18H52.5V19H54H55.5V18H54ZM30 15V13.5H29V15V16.5H30V15ZM29 15H27.5V16H29H30.5V15H29ZM29 16V14.5H28V16V17.5H29V16ZM28 16H29.5V14H28H26.5V16H28ZM28 14V15.5H30V14V12.5H28V14ZM30 14H28.5V15H30H31.5V14H30ZM43 15V13.5H42V15V16.5H43V15ZM42 15H40.5V16H42H43.5V15H42ZM42 16V14.5H41V16V17.5H42V16ZM41 16H42.5V14H41H39.5V16H41ZM41 14V15.5H43V14V12.5H41V14ZM43 14H41.5V15H43H44.5V14H43ZM54 16V14.5H53V16V17.5H54V16ZM53 16H54.5V15H53H51.5V16H53ZM53 15V16.5H54V15V13.5H53V15ZM54 15H52.5V16H54H55.5V15H54ZM52 13V14.5H53V13V11.5H52V13ZM53 13H51.5V15H53H54.5V13H53ZM53 15V13.5H52V15V16.5H53V15ZM52 15H53.5V14H52H50.5V15H52ZM52 14V12.5H51V14V15.5H52V14ZM51 14H52.5V12H51H49.5V14H51ZM51 12V13.5H52V12V10.5H51V12ZM52 12H50.5V13H52H53.5V12H52ZM44 14V12.5H43V14V15.5H44V14ZM43 14H44.5V13H43H41.5V14H43ZM43 13V14.5H44V13V11.5H43V13ZM44 13H42.5V14H44H45.5V13H44ZM46 13V11.5H44V13V14.5H46V13ZM44 13H45.5V12H44H42.5V13H44ZM44 12V13.5H46V12V10.5H44V12ZM46 12H44.5V13H46H47.5V12H46Z" fill="#4C4B4B"/>
<g id="&#195;&#156;fleme 1">
<path id="color_35aac6_1" fill-rule="evenodd" clip-rule="evenodd" d="M44 12H46V13H44V12ZM51 12H52V13H53V15H52V14H51V13V12ZM43 13H44V14H43V13ZM41 14H43V15H42V16H41V15V14ZM46 14H47V15H46V14ZM45 15H46V16H45V15ZM47 15H50V17H48V16H47V15ZM53 15H54V16H53V15ZM30 16H35V17H37V18H39V20H40V23H41V24H40V25H39V21H38V20H37V19H36V18H31V19H30V24H31V23H32V22H34V23H33V24H31V25H29V23H28V19H29V18H30V17V16ZM44 16H45V17H44V16ZM43 17H44V19H43V25H44V27H43V26H42V18H43V17ZM48 18H49V19H48V18ZM31 19H34V20H31V19ZM56 24H57V29H56V25V24ZM40 25H41V30H40V26V25ZM30 26H31V27H30V26ZM28 27H30V28H28V27ZM26 29H27V30H26V29ZM31 29H35V31H34V30H31V29ZM55 29H56V32H55V33H53V32H54V31H55V30V29ZM25 30H26V38H25V31V30ZM30 30H31V36H33V37H30V31V30ZM35 31H37V32H38V34H37V33H36V32H35V31ZM52 33H53V34H52V33ZM38 34H39V36H38V35V34ZM39 36H40V41H39V37V36ZM26 38H27V39H26V38ZM30 40H31V41H33V40H34V41H33V42H30V41V40ZM46 40H49V41H50V40H52V41H53V42H52V46H51V41H50V46H48V44H49V42H48V41H46V40ZM44 41H46V42H45V43H44V46H43V52H44V55H43V54H42V45H43V42H44V41ZM47 46H48V47H47V46ZM28 47H29V49H28V48V47ZM27 49H28V54H27V50V49ZM35 49H37V51H36V50H35V49ZM34 50H35V52H34V51V50ZM35 52H36V53H35V52ZM39 56H40V58H39V57V56ZM40 58H41V69H40V70H41V76H40V71H39V65H40V59V58ZM41 76H42V80H41V77V76ZM41 81H42V84H41V82V81Z" fill="#35AAC6"/>
<path id="color_9ce2f3_1" fill-rule="evenodd" clip-rule="evenodd" d="M28 14H30V15H29V16H28V15V14ZM47 14H51V16H52V17H51V18H47V17H50V15H47V14ZM46 15H47V16H46V15ZM26 16H28V17H27V19H26V21H25V18H26V17V16ZM45 16H46V18H45V19H44V17H45V16ZM31 18H36V19H31V18ZM52 18H54V19H52V18ZM30 19H31V22H32V23H30V20V19ZM36 19H37V20H36V19ZM43 19H44V23H43V20V19ZM54 19H55V21H54V20V19ZM37 20H38V21H37V20ZM48 20H52V21H53V22H54V30H53V31H52V29H53V27H52V26H53V23H52V22H49V23H48V24H47V25H45V23H46V22H47V21H48V20ZM26 21H27V22H26V21ZM38 21H39V24H38V22V21ZM55 21H56V23H55V22V21ZM44 25H45V28H43V27H44V26V25ZM57 25H58V30H57V26V25ZM37 28H38V29H37V28ZM42 28H43V29H44V30H43V33H42V38H41V31H42V29V28ZM46 29H47V30H46V29ZM47 30H49V31H47V30ZM56 30H57V31H56V30ZM49 31H52V32H51V33H50V32H49V31ZM23 35H24V40H23V36V35ZM45 37H50V39H51V40H50V41H49V40H47V38H46V39H45V40H44V38H45V37ZM49 38H48V39H49V38ZM24 40H26V41H24V40ZM43 40H44V42H43V41V40ZM45 40H46V41H45V40ZM46 41H48V42H46V41ZM42 42H43V45H42V43V42ZM45 42H46V47H45V43V42ZM48 42H49V44H48V43V42ZM38 43H39V44H38V43ZM31 47H32V48H31V47ZM33 47H37V48H34V50H33V53H34V54H32V49H33V48V47ZM46 47H47V48H46V47ZM30 48H31V49H30V48ZM37 48H38V49H37V48ZM29 49H30V52H29V50V49ZM38 49H39V52H38V50V49ZM39 52H40V55H39V53V52ZM41 54H43V58H42V57H41V58H40V55H41V54ZM43 58H44V59H43V58ZM38 59H39V60H38V59ZM39 60H40V62H39V61V60ZM41 60H42V61H41V60ZM39 63H40V64H39V63Z" fill="#9CE2F3"/>
<path id="color_66b8cc_1" fill-rule="evenodd" clip-rule="evenodd" d="M49 22H50V23H49V22ZM52 23H53V24H52V23ZM33 26H35V27H36V28H37V29H38V30H39V31H40V34H41V38H42V39H41V50H40V36H39V32H38V31H36V29H31V30H30V37H29V36H28V30H29V29H30V28H31V27H33V26ZM42 26H43V28H42V27V26ZM41 29H42V31H41V30V29ZM34 31H35V32H34V31ZM48 31H49V32H48V31ZM32 32H34V33H32V32ZM35 32H36V36H35V37H33V36H31V35H33V36H34V35H35V33V32ZM30 37H32V39H31V38H30V37Z" fill="#66B8CC"/>
<path id="color_9ce2f3_2" fill-rule="evenodd" clip-rule="evenodd" d="M40 76H41V81H40V77V76ZM46 84H47V85H46V84ZM39 86H41V95H40V88H39V87V86Z" fill="#9CE2F3"/>
</g>
</g>
</svg>
