<svg preserveAspectRatio="none" overflow="visible" style="display: block;" width="81" height="110" viewBox="0 0 81 110" fill="none" xmlns="http://www.w3.org/2000/svg">
<g id="KIVILCIM">
<g id="Group 297">
<path id="color_c5e0eb_1" fill-rule="evenodd" clip-rule="evenodd" d="M20 0H61V3H60V6H59V8H58V10H57V13H56V15H55V18H54V21H53V23H52V25H51V28H50V31H49V33H48V35H47V38H46V40H45V43H44V45H43V47H42V50H41V52H40V50H39V47H38V45H37V42H36V39H35V37H34V35H33V32H32V30H31V27H30V24H29V21H28V20H27V17H26V14H25V11H24V9H23V6H22V4H21V1H20V0ZM80 20H81V89H80V88H79V87H77V86H76V85H75V84H74V83H73V82H72V81H70V79H68V78H67V77H66V76H65V75H64V74H62V73H61V72H60V71H59V70H58V69H57V68H55V67H54V66H53V65H52V64H51V63H50V62H49V61H48V60H46V59H45V58H44V57H43V56H42V54H43V53H44V52H45V51H47V49H49V48H50V47H51V46H52V45H53V44H54V43H56V41H58V40H59V39H60V38H62V36H64V35H65V33H67V32H68V31H69V30H71V28H73V27H74V26H75V25H76V24H77V23H78V22H79V21H80V20ZM0 21H1V22H2V23H3V24H4V25H6V26H7V27H8V28H9V29H10V30H11V31H13V32H14V33H15V34H16V35H17V36H18V37H19V38H20V39H22V40H23V41H24V42H25V43H26V44H28V45H29V46H30V47H31V48H32V49H33V50H35V52H37V53H38V54H39V56H38V57H37V58H36V59H35V60H34V61H33V62H31V63H30V64H29V65H28V66H27V67H26V68H25V69H24V70H22V71H21V72H20V73H19V74H18V75H17V76H16V77H15V78H13V79H12V80H11V81H10V82H9V83H8V84H7V85H6V86H4V88H2V89H1V90H0V22V21ZM40 56H41V58H42V61H43V62H44V65H45V68H46V71H47V73H48V75H49V78H50V81H51V83H52V86H53V89H54V90H55V93H56V96H57V99H58V101H59V103H60V106H61V109H62V110H19V107H20V105H21V102H22V99H23V98H24V95H25V92H26V90H27V87H28V85H29V83H30V80H31V78H32V75H33V73H34V70H35V68H36V65H37V62H38V60H39V58H40V57V56Z" fill="#D9CFA7"/>
<path id="color_ffffff_1" fill-rule="evenodd" clip-rule="evenodd" d="M18 0H20V1H21V4H22V6H23V9H24V11H25V14H26V17H27V20H28V21H29V24H30V27H31V30H32V32H33V35H34V37H35V39H36V42H37V45H38V47H39V50H40V52H41V50H42V47H43V45H44V43H45V40H46V38H47V35H48V33H49V31H50V28H51V25H52V23H53V21H54V18H55V15H56V13H57V10H58V8H59V6H60V3H61V0H63V1H64V2H65V3H66V4H67V5H68V6H69V7H70V8H71V9H72V10H73V11H74V12H75V13H76V14H77V15H78V16H79V17H80V18H81V20H80V21H79V22H78V23H77V24H76V25H75V26H74V27H73V28H71V30H69V31H68V32H67V33H65V35H64V36H62V38H60V39H59V40H58V41H56V43H54V44H53V45H52V46H51V47H50V48H49V49H47V51H45V52H44V53H43V54H42V56H43V57H44V58H45V59H46V60H48V61H49V62H50V63H51V64H52V65H53V66H54V67H55V68H57V69H58V70H59V71H60V72H61V73H62V74H64V75H65V76H66V77H67V78H68V79H70V81H72V82H73V83H74V84H75V85H76V86H77V87H79V88H80V89H81V92H80V93H79V94H78V95H77V96H76V97H75V98H74V99H73V100H72V101H71V102H70V103H69V104H68V105H67V106H66V107H65V108H64V109H63V110H62V109H61V106H60V103H59V101H58V99H57V96H56V93H55V90H54V89H53V86H52V83H51V81H50V78H49V75H48V73H47V71H46V68H45V65H44V62H43V61H42V58H41V56H40V58H39V60H38V62H37V65H36V68H35V70H34V73H33V75H32V78H31V80H30V83H29V85H28V87H27V90H26V92H25V95H24V98H23V99H22V102H21V105H20V107H19V110H18V109H17V108H16V107H15V106H14V105H13V104H12V103H11V102H10V101H9V100H8V99H7V98H6V97H5V96H4V95H3V94H2V93H1V92H0V90H1V89H2V88H4V86H6V85H7V84H8V83H9V82H10V81H11V80H12V79H13V78H15V77H16V76H17V75H18V74H19V73H20V72H21V71H22V70H24V69H25V68H26V67H27V66H28V65H29V64H30V63H31V62H33V61H34V60H35V59H36V58H37V57H38V56H39V54H38V53H37V52H35V50H33V49H32V48H31V47H30V46H29V45H28V44H26V43H25V42H24V41H23V40H22V39H20V38H19V37H18V36H17V35H16V34H15V33H14V32H13V31H11V30H10V29H9V28H8V27H7V26H6V25H4V24H3V23H2V22H1V21H0V18H1V17H2V16H3V15H4V14H5V13H6V12H7V11H8V10H9V9H10V8H11V7H12V6H13V5H14V4H15V3H16V2H17V1H18V0Z" fill="#143154"/>
</g>
<path id="Union" d="M41 59H39.75V60.25H41V59ZM42 59H43.25V57.75H42V59ZM42 62H40.75V63.25H42V62ZM43 62V63.25H44.25V62H43ZM43 59V57.75H41.75V59H43ZM44 63V64.25H45.25V63H44ZM43 63V61.75H41.75V63H43ZM43 76V77.25H44.25V76H43ZM42 76V74.75H40.75V76H42ZM42 78H40.75V79.25H42V78ZM43 78H44.25V76.75H43V78ZM43 86H41.75V87.25H43V86ZM44 86H45.25V84.75H44V86ZM44 88V89.25H45.25V88H44ZM43 88H41.75V89.25H43V88ZM43 87H44.25V85.75H43V87ZM42 87V85.75H40.75V87H42ZM42 97V98.25H43.25V97H42ZM38 97H36.75V98.25H38V97ZM38 96V94.75H36.75V96H38ZM39 96V97.25H40.25V96H39ZM39 94V92.75H37.75V94H39ZM40 94V95.25H41.25V94H40ZM40 93V91.75H38.75V93H40ZM41 93V94.25H42.25V93H41ZM41 85H42.25V83.75H41V85ZM40 85H38.75V86.25H40V85ZM40 82H41.25V80.75H40V82ZM39 82H37.75V83.25H39V82ZM39 80V78.75H37.75V80H39ZM41 80H42.25V78.75H41V80ZM41 83H39.75V84.25H41V83ZM42 83V84.25H43.25V83H42ZM42 79H43.25V77.75H42V79ZM41 79H39.75V80.25H41V79ZM41 76H42.25V74.75H41V76ZM40 76H38.75V77.25H40V76ZM41 74V75.25H42.25V74H41ZM41 72V70.75H39.75V72H41ZM42 72V73.25H43.25V72H42ZM42 65H43.25V63.75H42V65ZM41 63H42.25V61.75H41V63ZM40 62V60.75H38.75V62H40ZM41 62V63.25H42.25V62H41ZM41 61H42.25V59.75H41V61ZM40 61H38.75V62.25H40V61ZM41 57H42.25V55.75H41V57ZM40 96H38.75V97.25H40V96ZM41 96V97.25H42.25V96H41ZM41 95H42.25V93.75H41V95ZM40 95V93.75H38.75V95H40ZM45 94V95.25H46.25V94H45ZM44 94V92.75H42.75V94H44ZM44 95V96.25H45.25V95H44ZM43 95H41.75V96.25H43V95ZM43 93V91.75H41.75V93H43ZM44 93V94.25H45.25V93H44ZM44 91V89.75H42.75V91H44ZM45 91H46.25V89.75H45V91ZM39 74H37.75V75.25H39V74ZM39 71V69.75H37.75V71H39ZM40 71H41.25V69.75H40V71ZM40 65H38.75V66.25H40V65ZM41 67V68.25H42.25V67H41ZM40 67H38.75V68.25H40V67ZM40 66H41.25V64.75H40V66ZM39 66H37.75V67.25H39V66ZM39 63V61.75H37.75V63H39ZM45 59V60.25H46.25V59H45ZM44 56V54.75H42.75V56H44ZM45 56H46.25V54.75H45V56ZM39 57H37.75V58.25H39V57ZM40 55H41.25V53.75H40V55ZM64 17V18.25H65.25V17H64ZM62 17V15.75H60.75V17H62ZM62 18V19.25H63.25V18H62ZM60 18V16.75H58.75V18H60ZM60 19V20.25H61.25V19H60ZM58 19V17.75H56.75V19H58ZM58 20V21.25H59.25V20H58ZM57 20V18.75H55.75V20H57ZM57 22V23.25H58.25V22H57ZM54 22V20.75H52.75V22H54ZM54 23V24.25H55.25V23H54ZM52 23V21.75H50.75V23H52ZM52 24V25.25H53.25V24H52ZM51 24V22.75H49.75V24H51ZM51 25V26.25H52.25V25H51ZM50 25V23.75H48.75V25H50ZM50 26V27.25H51.25V26H50ZM48 26V24.75H46.75V26H48ZM48 27V28.25H49.25V27H48ZM47 27V25.75H45.75V27H47ZM47 28V29.25H48.25V28H47ZM46 28V26.75H44.75V28H46ZM46 29V30.25H47.25V29H46ZM45 29V27.75H43.75V29H45ZM45 30V31.25H46.25V30H45ZM44 30V28.75H42.75V30H44ZM44 31V32.25H45.25V31H44ZM43 31V29.75H41.75V31H43ZM43 32H41.75V33.25H43V32ZM47 32V33.25H48.25V32H47ZM47 31V29.75H45.75V31H47ZM52 31V32.25H53.25V31H52ZM52 30V28.75H50.75V30H52ZM55 31V32.25H56.25V31H55ZM53 31V29.75H51.75V31H53ZM53 32V33.25H54.25V32H53ZM51 32V30.75H49.75V32H51ZM51 33V34.25H52.25V33H51ZM48 33V31.75H46.75V33H48ZM48 34V35.25H49.25V34H48ZM47 34V32.75H45.75V34H47ZM47 36H45.75V37.25H47V36ZM49 36H50.25V34.75H49V36ZM49 37H47.75V38.25H49V37ZM51 37H52.25V35.75H51V37ZM51 38H49.75V39.25H51V38ZM53 38H54.25V36.75H53V38ZM53 39H51.75V40.25H53V39ZM55 39H56.25V37.75H55V39ZM55 40H53.75V41.25H55V40ZM59 40H60.25V38.75H59V40ZM59 41H57.75V42.25H59V41ZM61 41H62.25V39.75H61V41ZM61 43V44.25H62.25V43H61ZM58 43H56.75V44.25H58V43ZM58 42H59.25V40.75H58V42ZM55 42H53.75V43.25H55V42ZM55 41H56.25V39.75H55V41ZM51 41H49.75V42.25H51V41ZM51 40H52.25V38.75H51V40ZM49 40H47.75V41.25H49V40ZM49 39H50.25V37.75H49V39ZM46 39H44.75V40.25H46V39ZM46 38H47.25V36.75H46V38ZM44 38V36.75H42.75V38H44ZM44 40V41.25H45.25V40H44ZM43 40V38.75H41.75V40H43ZM43 42V43.25H44.25V42H43ZM42 42V40.75H40.75V42H42ZM42 48H40.75V49.25H42V48ZM43 48H44.25V46.75H43V48ZM43 49V50.25H44.25V49H43ZM42 49V47.75H40.75V49H42ZM42 56V57.25H43.25V56H42ZM41 56H39.75V57.25H41V56ZM41 49H42.25V47.75H41V49ZM40 49H38.75V50.25H40V49ZM40 45H41.25V43.75H40V45ZM39 45H37.75V46.25H39V45ZM39 42H40.25V40.75H39V42ZM38 42H36.75V43.25H38V42ZM38 40H39.25V38.75H38V40ZM37 40H35.75V41.25H37V40ZM37 39H38.25V37.75H37V39ZM32 39V37.75H30.75V39H32ZM32 40V41.25H33.25V40H32ZM31 40V38.75H29.75V40H31ZM31 41V42.25H32.25V41H31ZM29 40V38.75H27.75V40H29ZM30 40V41.25H31.25V40H30ZM30 39V37.75H28.75V39H30ZM31 39V40.25H32.25V39H31ZM31 38V36.75H29.75V38H31ZM32 38V39.25H33.25V38H32ZM32 37V35.75H30.75V37H32ZM34 37V38.25H35.25V37H34ZM34 36V34.75H32.75V36H34ZM35 36V37.25H36.25V36H35ZM35 35V33.75H33.75V35H35ZM36 35V36.25H37.25V35H36ZM36 34H37.25V32.75H36V34ZM34 34H32.75V35.25H34V34ZM34 33H35.25V31.75H34V33ZM32 33H30.75V34.25H32V33ZM32 32H33.25V30.75H32V32ZM27 32H25.75V33.25H27V32ZM27 31H28.25V29.75H27V31ZM23 31H21.75V32.25H23V31ZM23 30V28.75H21.75V30H23ZM26 30V31.25H27.25V30H26ZM26 29V27.75H24.75V29H26ZM28 29H29.25V27.75H28V29ZM28 30H26.75V31.25H28V30ZM33 30H34.25V28.75H33V30ZM33 31H31.75V32.25H33V31ZM34 31V32.25H35.25V31H34ZM34 30V28.75H32.75V30H34ZM35 30V31.25H36.25V30H35ZM35 25H36.25V23.75H35V25ZM34 25H32.75V26.25H34V25ZM34 23H35.25V21.75H34V23ZM33 23H31.75V24.25H33V23ZM33 21H34.25V19.75H33V21ZM32 21H30.75V22.25H32V21ZM32 18V16.75H30.75V18H32ZM33 18H34.25V16.75H33V18ZM33 19H31.75V20.25H33V19ZM34 19H35.25V17.75H34V19ZM34 20H32.75V21.25H34V20ZM35 20H36.25V18.75H35V20ZM35 21H33.75V22.25H35V21ZM36 21H37.25V19.75H36V21ZM36 24H34.75V25.25H36V24ZM37 24H38.25V22.75H37V24ZM37 25H35.75V26.25H37V25ZM38 25H39.25V23.75H38V25ZM38 27H36.75V28.25H38V27ZM39 27H40.25V25.75H39V27ZM39 28H37.75V29.25H39V28ZM40 28V29.25H41.25V28H40ZM40 27V25.75H38.75V27H40ZM42 27V28.25H43.25V27H42ZM42 26V24.75H40.75V26H42ZM43 26V27.25H44.25V26H43ZM43 25V23.75H41.75V25H43ZM46 25V26.25H47.25V25H46ZM46 24V22.75H44.75V24H46ZM47 24V25.25H48.25V24H47ZM47 23V21.75H45.75V23H47ZM49 23V24.25H50.25V23H49ZM49 22V20.75H47.75V22H49ZM51 22V23.25H52.25V22H51ZM51 21V19.75H49.75V21H51ZM53 21V22.25H54.25V21H53ZM53 20V18.75H51.75V20H53ZM55 20V21.25H56.25V20H55ZM55 19V17.75H53.75V19H55ZM57 19V20.25H58.25V19H57ZM57 18V16.75H55.75V18H57ZM59 18V19.25H60.25V18H59ZM59 17V15.75H57.75V17H59ZM61 17V18.25H62.25V17H61ZM61 16V14.75H59.75V16H61ZM38 55H36.75V56.25H38V55ZM38 53V51.75H36.75V53H38ZM39 53H40.25V51.75H39V53ZM46 45V46.25H47.25V45H46ZM45 45V43.75H43.75V45H45ZM45 48V49.25H46.25V48H45ZM44 48H42.75V49.25H44V48ZM44 43V41.75H42.75V43H44ZM46 43H47.25V41.75H46V43ZM26 45H24.75V46.25H26V45ZM27 45H28.25V43.75H27V45ZM27 46V47.25H28.25V46H27ZM25 46V44.75H23.75V46H25ZM25 47V48.25H26.25V47H25ZM24 47H22.75V48.25H24V47ZM24 45V43.75H22.75V45H24ZM25 45V46.25H26.25V45H25ZM25 44V42.75H23.75V44H25ZM26 44H27.25V42.75H26V44ZM60 46V47.25H61.25V46H60ZM59 46H57.75V47.25H59V46ZM59 45V43.75H57.75V45H59ZM60 45H61.25V43.75H60V45ZM62 46V47.25H63.25V46H62ZM61 46H59.75V47.25H61V46ZM61 45V43.75H59.75V45H61ZM62 45H63.25V43.75H62V45ZM30 44V45.25H31.25V44H30ZM29 44H27.75V45.25H29V44ZM29 43V41.75H27.75V43H29ZM31 43V44.25H32.25V43H31ZM30 42V40.75H28.75V42H30ZM31 42H32.25V40.75H31V42ZM29 42V43.25H30.25V42H29ZM28 42H26.75V43.25H28V42ZM28 41V39.75H26.75V41H28ZM64 39V40.25H65.25V39H64ZM62 39H60.75V40.25H62V39ZM62 38V36.75H60.75V38H62ZM64 38H65.25V36.75H64V38ZM53 36V37.25H54.25V36H53ZM52 36H50.75V37.25H52V36ZM52 35V33.75H50.75V35H52ZM53 35H54.25V33.75H53V35ZM58 30V31.25H59.25V30H58ZM55 29V27.75H53.75V29H55ZM58 29H59.25V27.75H58V29ZM60 29V30.25H61.25V29H60ZM59 29H57.75V30.25H59V29ZM59 28V26.75H57.75V28H59ZM60 28H61.25V26.75H60V28ZM67 16V17.25H68.25V16H67ZM64 15V13.75H62.75V15H64ZM70 15V16.25H71.25V15H70ZM67 14V12.75H65.75V14H67ZM70 14H71.25V12.75H70V14ZM41 59V60.25H42V59V57.75H41V59ZM42 59H40.75V62H42H43.25V59H42ZM42 62V63.25H43V62V60.75H42V62ZM43 62H44.25V59H43H41.75V62H43ZM43 59V60.25H44V59V57.75H43V59ZM44 59H42.75V63H44H45.25V59H44ZM44 63V61.75H43V63V64.25H44V63ZM43 63H41.75V76H43H44.25V63H43ZM43 76V74.75H42V76V77.25H43V76ZM42 76H40.75V78H42H43.25V76H42ZM42 78V79.25H43V78V76.75H42V78ZM43 78H41.75V86H43H44.25V78H43ZM43 86V87.25H44V86V84.75H43V86ZM44 86H42.75V88H44H45.25V86H44ZM44 88V86.75H43V88V89.25H44V88ZM43 88H44.25V87H43H41.75V88H43ZM43 87V85.75H42V87V88.25H43V87ZM42 87H40.75V97H42H43.25V87H42ZM42 97V95.75H38V97V98.25H42V97ZM38 97H39.25V96H38H36.75V97H38ZM38 96V97.25H39V96V94.75H38V96ZM39 96H40.25V94H39H37.75V96H39ZM39 94V95.25H40V94V92.75H39V94ZM40 94H41.25V93H40H38.75V94H40ZM40 93V94.25H41V93V91.75H40V93ZM41 93H42.25V85H41H39.75V93H41ZM41 85V83.75H40V85V86.25H41V85ZM40 85H41.25V82H40H38.75V85H40ZM40 82V80.75H39V82V83.25H40V82ZM39 82H40.25V80H39H37.75V82H39ZM39 80V81.25H41V80V78.75H39V80ZM41 80H39.75V83H41H42.25V80H41ZM41 83V84.25H42V83V81.75H41V83ZM42 83H43.25V79H42H40.75V83H42ZM42 79V77.75H41V79V80.25H42V79ZM41 79H42.25V76H41H39.75V79H41ZM41 76V74.75H40V76V77.25H41V76ZM40 76H41.25V74H40H38.75V76H40ZM40 74V75.25H41V74V72.75H40V74ZM41 74H42.25V72H41H39.75V74H41ZM41 72V73.25H42V72V70.75H41V72ZM42 72H43.25V65H42H40.75V72H42ZM42 65V63.75H41V65V66.25H42V65ZM41 65H42.25V63H41H39.75V65H41ZM41 63V61.75H40V63V64.25H41V63ZM40 63H41.25V62H40H38.75V63H40ZM40 62V63.25H41V62V60.75H40V62ZM41 62H42.25V61H41H39.75V62H41ZM41 61V59.75H40V61V62.25H41V61ZM40 61H41.25V57H40H38.75V61H40ZM40 57V58.25H41V57V55.75H40V57ZM41 57H39.75V59H41H42.25V57H41ZM40 96V97.25H41V96V94.75H40V96ZM41 96H42.25V95H41H39.75V96H41ZM41 95V93.75H40V95V96.25H41V95ZM40 95H38.75V96H40H41.25V95H40ZM45 94V92.75H44V94V95.25H45V94ZM44 94H42.75V95H44H45.25V94H44ZM44 95V93.75H43V95V96.25H44V95ZM43 95H44.25V93H43H41.75V95H43ZM43 93V94.25H44V93V91.75H43V93ZM44 93H45.25V91H44H42.75V93H44ZM44 91V92.25H45V91V89.75H44V91ZM45 91H43.75V94H45H46.25V91H45ZM40 74V72.75H39V74V75.25H40V74ZM39 74H40.25V71H39H37.75V74H39ZM39 71V72.25H40V71V69.75H39V71ZM40 71H38.75V74H40H41.25V71H40ZM40 65V66.25H41V65V63.75H40V65ZM41 65H39.75V67H41H42.25V65H41ZM41 67V65.75H40V67V68.25H41V67ZM40 67H41.25V66H40H38.75V67H40ZM40 66V64.75H39V66V67.25H40V66ZM39 66H40.25V63H39H37.75V66H39ZM39 63V64.25H40V63V61.75H39V63ZM40 63H38.75V65H40H41.25V63H40ZM45 59V57.75H44V59V60.25H45V59ZM44 59H45.25V56H44H42.75V59H44ZM44 56V57.25H45V56V54.75H44V56ZM45 56H43.75V59H45H46.25V56H45ZM40 57V55.75H39V57V58.25H40V57ZM39 57H40.25V55H39H37.75V57H39ZM39 55V56.25H40V55V53.75H39V55ZM40 55H38.75V57H40H41.25V55H40ZM64 17V15.75H62V17V18.25H64V17ZM62 17H60.75V18H62H63.25V17H62ZM62 18V16.75H60V18V19.25H62V18ZM60 18H58.75V19H60H61.25V18H60ZM60 19V17.75H58V19V20.25H60V19ZM58 19H56.75V20H58H59.25V19H58ZM58 20V18.75H57V20V21.25H58V20ZM57 20H55.75V22H57H58.25V20H57ZM57 22V20.75H54V22V23.25H57V22ZM54 22H52.75V23H54H55.25V22H54ZM54 23V21.75H52V23V24.25H54V23ZM52 23H50.75V24H52H53.25V23H52ZM52 24V22.75H51V24V25.25H52V24ZM51 24H49.75V25H51H52.25V24H51ZM51 25V23.75H50V25V26.25H51V25ZM50 25H48.75V26H50H51.25V25H50ZM50 26V24.75H48V26V27.25H50V26ZM48 26H46.75V27H48H49.25V26H48ZM48 27V25.75H47V27V28.25H48V27ZM47 27H45.75V28H47H48.25V27H47ZM47 28V26.75H46V28V29.25H47V28ZM46 28H44.75V29H46H47.25V28H46ZM46 29V27.75H45V29V30.25H46V29ZM45 29H43.75V30H45H46.25V29H45ZM45 30V28.75H44V30V31.25H45V30ZM44 30H42.75V31H44H45.25V30H44ZM44 31V29.75H43V31V32.25H44V31ZM43 31H41.75V32H43H44.25V31H43ZM43 32V33.25H47V32V30.75H43V32ZM47 32H48.25V31H47H45.75V32H47ZM47 31V32.25H52V31V29.75H47V31ZM52 31H53.25V30H52H50.75V31H52ZM52 30V31.25H55V30V28.75H52V30ZM55 30H53.75V31H55H56.25V30H55ZM55 31V29.75H53V31V32.25H55V31ZM53 31H51.75V32H53H54.25V31H53ZM53 32V30.75H51V32V33.25H53V32ZM51 32H49.75V33H51H52.25V32H51ZM51 33V31.75H48V33V34.25H51V33ZM48 33H46.75V34H48H49.25V33H48ZM48 34V32.75H47V34V35.25H48V34ZM47 34H45.75V36H47H48.25V34H47ZM47 36V37.25H49V36V34.75H47V36ZM49 36H47.75V37H49H50.25V36H49ZM49 37V38.25H51V37V35.75H49V37ZM51 37H49.75V38H51H52.25V37H51ZM51 38V39.25H53V38V36.75H51V38ZM53 38H51.75V39H53H54.25V38H53ZM53 39V40.25H55V39V37.75H53V39ZM55 39H53.75V40H55H56.25V39H55ZM55 40V41.25H59V40V38.75H55V40ZM59 40H57.75V41H59H60.25V40H59ZM59 41V42.25H61V41V39.75H59V41ZM61 41H59.75V43H61H62.25V41H61ZM61 43V41.75H58V43V44.25H61V43ZM58 43H59.25V42H58H56.75V43H58ZM58 42V40.75H55V42V43.25H58V42ZM55 42H56.25V41H55H53.75V42H55ZM55 41V39.75H51V41V42.25H55V41ZM51 41H52.25V40H51H49.75V41H51ZM51 40V38.75H49V40V41.25H51V40ZM49 40H50.25V39H49H47.75V40H49ZM49 39V37.75H46V39V40.25H49V39ZM46 39H47.25V38H46H44.75V39H46ZM46 38V36.75H44V38V39.25H46V38ZM44 38H42.75V40H44H45.25V38H44ZM44 40V38.75H43V40V41.25H44V40ZM43 40H41.75V42H43H44.25V40H43ZM43 42V40.75H42V42V43.25H43V42ZM42 42H40.75V48H42H43.25V42H42ZM42 48V49.25H43V48V46.75H42V48ZM43 48H41.75V49H43H44.25V48H43ZM43 49V47.75H42V49V50.25H43V49ZM42 49H40.75V56H42H43.25V49H42ZM42 56V54.75H41V56V57.25H42V56ZM41 56H42.25V49H41H39.75V56H41ZM41 49V47.75H40V49V50.25H41V49ZM40 49H41.25V45H40H38.75V49H40ZM40 45V43.75H39V45V46.25H40V45ZM39 45H40.25V42H39H37.75V45H39ZM39 42V40.75H38V42V43.25H39V42ZM38 42H39.25V40H38H36.75V42H38ZM38 40V38.75H37V40V41.25H38V40ZM37 40H38.25V39H37H35.75V40H37ZM37 39V37.75H32V39V40.25H37V39ZM32 39H30.75V40H32H33.25V39H32ZM32 40V38.75H31V40V41.25H32V40ZM31 40H29.75V41H31H32.25V40H31ZM31 41V39.75H29V41V42.25H31V41ZM29 41H30.25V40H29H27.75V41H29ZM29 40V41.25H30V40V38.75H29V40ZM30 40H31.25V39H30H28.75V40H30ZM30 39V40.25H31V39V37.75H30V39ZM31 39H32.25V38H31H29.75V39H31ZM31 38V39.25H32V38V36.75H31V38ZM32 38H33.25V37H32H30.75V38H32ZM32 37V38.25H34V37V35.75H32V37ZM34 37H35.25V36H34H32.75V37H34ZM34 36V37.25H35V36V34.75H34V36ZM35 36H36.25V35H35H33.75V36H35ZM35 35V36.25H36V35V33.75H35V35ZM36 35H37.25V34H36H34.75V35H36ZM36 34V32.75H34V34V35.25H36V34ZM34 34H35.25V33H34H32.75V34H34ZM34 33V31.75H32V33V34.25H34V33ZM32 33H33.25V32H32H30.75V33H32ZM32 32V30.75H27V32V33.25H32V32ZM27 32H28.25V31H27H25.75V32H27ZM27 31V29.75H23V31V32.25H27V31ZM23 31H24.25V30H23H21.75V31H23ZM23 30V31.25H26V30V28.75H23V30ZM26 30H27.25V29H26H24.75V30H26ZM26 29V30.25H28V29V27.75H26V29ZM28 29H26.75V30H28H29.25V29H28ZM28 30V31.25H33V30V28.75H28V30ZM33 30H31.75V31H33H34.25V30H33ZM33 31V32.25H34V31V29.75H33V31ZM34 31H35.25V30H34H32.75V31H34ZM34 30V31.25H35V30V28.75H34V30ZM35 30H36.25V25H35H33.75V30H35ZM35 25V23.75H34V25V26.25H35V25ZM34 25H35.25V23H34H32.75V25H34ZM34 23V21.75H33V23V24.25H34V23ZM33 23H34.25V21H33H31.75V23H33ZM33 21V19.75H32V21V22.25H33V21ZM32 21H33.25V18H32H30.75V21H32ZM32 18V19.25H33V18V16.75H32V18ZM33 18H31.75V19H33H34.25V18H33ZM33 19V20.25H34V19V17.75H33V19ZM34 19H32.75V20H34H35.25V19H34ZM34 20V21.25H35V20V18.75H34V20ZM35 20H33.75V21H35H36.25V20H35ZM35 21V22.25H36V21V19.75H35V21ZM36 21H34.75V24H36H37.25V21H36ZM36 24V25.25H37V24V22.75H36V24ZM37 24H35.75V25H37H38.25V24H37ZM37 25V26.25H38V25V23.75H37V25ZM38 25H36.75V27H38H39.25V25H38ZM38 27V28.25H39V27V25.75H38V27ZM39 27H37.75V28H39H40.25V27H39ZM39 28V29.25H40V28V26.75H39V28ZM40 28H41.25V27H40H38.75V28H40ZM40 27V28.25H42V27V25.75H40V27ZM42 27H43.25V26H42H40.75V27H42ZM42 26V27.25H43V26V24.75H42V26ZM43 26H44.25V25H43H41.75V26H43ZM43 25V26.25H46V25V23.75H43V25ZM46 25H47.25V24H46H44.75V25H46ZM46 24V25.25H47V24V22.75H46V24ZM47 24H48.25V23H47H45.75V24H47ZM47 23V24.25H49V23V21.75H47V23ZM49 23H50.25V22H49H47.75V23H49ZM49 22V23.25H51V22V20.75H49V22ZM51 22H52.25V21H51H49.75V22H51ZM51 21V22.25H53V21V19.75H51V21ZM53 21H54.25V20H53H51.75V21H53ZM53 20V21.25H55V20V18.75H53V20ZM55 20H56.25V19H55H53.75V20H55ZM55 19V20.25H57V19V17.75H55V19ZM57 19H58.25V18H57H55.75V19H57ZM57 18V19.25H59V18V16.75H57V18ZM59 18H60.25V17H59H57.75V18H59ZM59 17V18.25H61V17V15.75H59V17ZM61 17H62.25V16H61H59.75V17H61ZM61 16V17.25H64V16V14.75H61V16ZM64 16H62.75V17H64H65.25V16H64ZM39 55V53.75H38V55V56.25H39V55ZM38 55H39.25V53H38H36.75V55H38ZM38 53V54.25H39V53V51.75H38V53ZM39 53H37.75V55H39H40.25V53H39ZM46 45V43.75H45V45V46.25H46V45ZM45 45H43.75V48H45H46.25V45H45ZM45 48V46.75H44V48V49.25H45V48ZM44 48H45.25V43H44H42.75V48H44ZM44 43V44.25H46V43V41.75H44V43ZM46 43H44.75V45H46H47.25V43H46ZM26 45V46.25H27V45V43.75H26V45ZM27 45H25.75V46H27H28.25V45H27ZM27 46V44.75H25V46V47.25H27V46ZM25 46H23.75V47H25H26.25V46H25ZM25 47V45.75H24V47V48.25H25V47ZM24 47H25.25V45H24H22.75V47H24ZM24 45V46.25H25V45V43.75H24V45ZM25 45H26.25V44H25H23.75V45H25ZM25 44V45.25H26V44V42.75H25V44ZM26 44H24.75V45H26H27.25V44H26ZM60 46V44.75H59V46V47.25H60V46ZM59 46H60.25V45H59H57.75V46H59ZM59 45V46.25H60V45V43.75H59V45ZM60 45H58.75V46H60H61.25V45H60ZM62 46V44.75H61V46V47.25H62V46ZM61 46H62.25V45H61H59.75V46H61ZM61 45V46.25H62V45V43.75H61V45ZM62 45H60.75V46H62H63.25V45H62ZM30 44V42.75H29V44V45.25H30V44ZM29 44H30.25V43H29H27.75V44H29ZM29 43V44.25H30V43V41.75H29V43ZM30 43H28.75V44H30H31.25V43H30ZM31 43V41.75H30V43V44.25H31V43ZM30 43H31.25V42H30H28.75V43H30ZM30 42V43.25H31V42V40.75H30V42ZM31 42H29.75V43H31H32.25V42H31ZM29 42V40.75H28V42V43.25H29V42ZM28 42H29.25V41H28H26.75V42H28ZM28 41V42.25H29V41V39.75H28V41ZM29 41H27.75V42H29H30.25V41H29ZM64 39V37.75H62V39V40.25H64V39ZM62 39H63.25V38H62H60.75V39H62ZM62 38V39.25H64V38V36.75H62V38ZM64 38H62.75V39H64H65.25V38H64ZM53 36V34.75H52V36V37.25H53V36ZM52 36H53.25V35H52H50.75V36H52ZM52 35V36.25H53V35V33.75H52V35ZM53 35H51.75V36H53H54.25V35H53ZM58 30V28.75H55V30V31.25H58V30ZM55 30H56.25V29H55H53.75V30H55ZM55 29V30.25H58V29V27.75H55V29ZM58 29H56.75V30H58H59.25V29H58ZM60 29V27.75H59V29V30.25H60V29ZM59 29H60.25V28H59H57.75V29H59ZM59 28V29.25H60V28V26.75H59V28ZM60 28H58.75V29H60H61.25V28H60ZM67 16V14.75H64V16V17.25H67V16ZM64 16H65.25V15H64H62.75V16H64ZM64 15V16.25H67V15V13.75H64V15ZM67 15H65.75V16H67H68.25V15H67ZM70 15V13.75H67V15V16.25H70V15ZM67 15H68.25V14H67H65.75V15H67ZM67 14V15.25H70V14V12.75H67V14ZM70 14H68.75V15H70H71.25V14H70Z" fill="#B2B0B0"/>
<g id="Spark 1">
<path id="color_ffffff_1_2" fill-rule="evenodd" clip-rule="evenodd" d="M61 16H62V17H61V16ZM59 17H60V18H59V17ZM32 18H33V19H34V20H35V21H36V24H37V25H38V27H39V28H42V27H43V26H45V25H47V24H49V23H50V22H53V21H54V20H55V19H57V18H59V19H58V20H56V21H55V22H53V23H51V24H50V25H48V26H46V28H44V29H43V30H42V31H41V32H42V33H44V32H47V31H53V32H51V33H50V32H49V33H46V34H45V36H47V37H51V38H53V39H55V40H52V39H47V38H44V37H42V39H41V42H42V50H41V48H40V42H39V38H33V37H35V36H37V34H36V33H33V32H31V31H24V30H26V29H28V30H32V31H36V25H35V22H34V21H33V20H32V19V18ZM32 38H33V39H32V38ZM31 39H32V40H31V39ZM30 40H31V41H30V40ZM55 40H59V41H61V43H60V42H58V41H55V40ZM28 41H29V42H28V41ZM25 45H27V46H25V45ZM24 46H25V47H24V46ZM40 57H41V59H42V62H41V61H40V58V57ZM44 58H45V59H44V58ZM41 63H43V65H41V64V63ZM39 64H40V66H39V65V64ZM39 71H40V72H39V71ZM40 80H41V81H40V80ZM42 80H43V81H42V80ZM42 84H43V87H42V88H41V85H42V84ZM41 90H42V92H41V91V90ZM40 93H41V95H40V96H41V97H39V94H40V93Z" fill="white"/>
<path id="color_fdf07e_1" fill-rule="evenodd" clip-rule="evenodd" d="M67 14H69V15H67V14ZM64 15H67V16H64V15ZM62 16H64V17H62V16ZM60 17H62V18H60V17ZM59 18H60V19H59V18ZM32 20H33V21H32V20ZM53 20H54V21H53V20ZM56 20H57V22H55V21H56V20ZM33 21H34V22H35V25H34V23H33V22V21ZM51 21H53V22H51V21ZM53 22H54V23H53V22ZM47 23H49V24H47V23ZM51 23H52V24H51V23ZM46 24H47V25H46V24ZM50 24H51V25H50V24ZM35 25H36V30H35V26V25ZM43 25H45V26H43V25ZM48 25H50V26H48V25ZM42 26H43V27H42V26ZM46 26H48V27H47V28H46V27V26ZM40 27H42V28H40V27ZM59 28H60V29H59V28ZM55 29H58V30H55V29ZM32 30H33V31H32V30ZM52 30H55V31H52V30ZM27 31H31V32H27V31ZM32 32H33V33H32V32ZM49 32H50V33H49V32ZM34 33H35V34H34V33ZM46 33H48V34H47V36H46V35H45V34H46V33ZM34 36H35V37H34V36ZM47 36H49V37H47V36ZM32 37H33V38H32V37ZM31 38H32V39H31V38ZM33 38H37V39H33V38ZM46 38H47V39H46V38ZM30 39H31V40H30V39ZM42 39H44V40H43V42H42V40V39ZM49 39H52V40H55V41H51V40H49V39ZM29 40H30V41H29V40ZM38 41H39V42H38V41ZM55 41H58V42H55V41ZM58 42H59V43H58V42ZM45 43H46V45H45V44V43ZM44 45H45V48H44V46V45ZM38 53H39V55H38V54V53Z" fill="#FDF07E"/>
<path id="color_f7ef67_1" fill-rule="evenodd" clip-rule="evenodd" d="M40 48H41V49H40V48ZM42 48H43V49H42V48ZM41 50H42V53H41V51V50ZM43 60H44V61H43V60ZM40 62H43V63H40V62ZM39 63H40V64H39V63ZM40 65H41V67H40V66V65ZM42 66H43V70H42V67V66ZM40 75H42V79H41V76H40V75ZM41 83H43V84H42V85H41V84V83ZM43 86H44V87H43V86ZM41 92H42V96H41V93V92ZM43 93H44V95H43V94V93Z" fill="#F7EF67"/>
<path id="color_f8e3d7_1" fill-rule="evenodd" clip-rule="evenodd" d="M49 22H50V23H49V22ZM44 28H46V29H45V30H44V31H43V32H44V33H42V30H43V29H44V28ZM34 30H36V31H34V30ZM35 33H36V34H35V33ZM36 34H37V36H35V35H36V34ZM43 37H44V39H42V38H43V37ZM37 39H39V41H38V40H37V39ZM41 41H42V42H41V41ZM30 42H31V43H30V42Z" fill="#F8E3D7"/>
<path id="color_ffd3b5_1" fill-rule="evenodd" clip-rule="evenodd" d="M29 43H30V44H29V43ZM39 44H40V45H39V44ZM39 55H40V57H39V56V55ZM42 65H43V66H42V65ZM39 72H40V74H39V73V72ZM41 72H42V75H40V74H41V73V72ZM42 81H43V83H42V82V81ZM43 87H44V88H43V87ZM38 96H39V97H38V96ZM41 96H42V97H41V96Z" fill="#FFD3B5"/>
<path id="color_e9952c_1" fill-rule="evenodd" clip-rule="evenodd" d="M41 53H42V56H41V54V53ZM43 61H44V63H43V62V61ZM42 70H43V76H42V71V70ZM42 78H43V80H42V79V78Z" fill="#E9952C"/>
<path id="color_fb853d_1" fill-rule="evenodd" clip-rule="evenodd" d="M39 80H40V81H41V85H40V82H39V81V80ZM44 91H45V94H44V92V91Z" fill="#FB853D"/>
<path id="color_faf1e4_1" fill-rule="evenodd" clip-rule="evenodd" d="M41 31H42V32H41V31ZM45 35H46V36H45V35ZM42 37H43V38H42V37ZM37 38H39V39H37V38ZM41 39H42V41H41V40V39ZM39 42H40V44H39V43V42Z" fill="#FAF1E4"/>
<path id="color_fb853d_2" fill-rule="evenodd" clip-rule="evenodd" d="M62 38H64V39H62V38ZM59 45H60V46H59V45Z" fill="#FB853D"/>
<path id="color_fb853d_3" fill-rule="evenodd" clip-rule="evenodd" d="M44 56H45V58H44V57V56ZM43 59H44V60H43V59Z" fill="#FB853D"/>
<path id="color_fdf07e_2" fill-rule="evenodd" clip-rule="evenodd" d="M41 88H42V90H41V89V88Z" fill="#FDF07E"/>
<path id="color_fb853d_4" fill-rule="evenodd" clip-rule="evenodd" d="M44 43H45V45H44V44V43Z" fill="#FB853D"/>
<path id="color_ffd3b5_2" fill-rule="evenodd" clip-rule="evenodd" d="M52 35H53V36H52V35ZM59 42H60V43H59V42Z" fill="#FFD3B5"/>
<path id="color_f8e3d7_2" fill-rule="evenodd" clip-rule="evenodd" d="M69 14H70V15H69V14Z" fill="#F8E3D7"/>
<path id="color_fb853d_5" fill-rule="evenodd" clip-rule="evenodd" d="M23 30H24V31H23V30Z" fill="#FB853D"/>
<path id="color_fb853d_6" fill-rule="evenodd" clip-rule="evenodd" d="M25 44H26V45H25V44Z" fill="#FB853D"/>
<path id="color_f7ef67_2" fill-rule="evenodd" clip-rule="evenodd" d="M24 45H25V46H24V45Z" fill="#F7EF67"/>
<path id="color_f7ef67_3" fill-rule="evenodd" clip-rule="evenodd" d="M61 45H62V46H61V45Z" fill="#F7EF67"/>
</g>
</g>
</svg>
