<svg preserveAspectRatio="none" style="display: block;" width="81" height="110" viewBox="0 0 81 110" fill="none" xmlns="http://www.w3.org/2000/svg">
<g id="OKEY_M&#195;&#156;HR&#195;&#156;">
<g id="Group 306">
<path id="color_c5e0eb_1" fill-rule="evenodd" clip-rule="evenodd" d="M20 0H61V3H60V6H59V8H58V10H57V13H56V15H55V18H54V21H53V23H52V25H51V28H50V31H49V33H48V35H47V38H46V40H45V43H44V45H43V47H42V50H41V52H40V50H39V47H38V45H37V42H36V39H35V37H34V35H33V32H32V30H31V27H30V24H29V21H28V20H27V17H26V14H25V11H24V9H23V6H22V4H21V1H20V0ZM80 20H81V89H80V88H79V87H77V86H76V85H75V84H74V83H73V82H72V81H70V79H68V78H67V77H66V76H65V75H64V74H62V73H61V72H60V71H59V70H58V69H57V68H55V67H54V66H53V65H52V64H51V63H50V62H49V61H48V60H46V59H45V58H44V57H43V56H42V54H43V53H44V52H45V51H47V49H49V48H50V47H51V46H52V45H53V44H54V43H56V41H58V40H59V39H60V38H62V36H64V35H65V33H67V32H68V31H69V30H71V28H73V27H74V26H75V25H76V24H77V23H78V22H79V21H80V20ZM0 21H1V22H2V23H3V24H4V25H6V26H7V27H8V28H9V29H10V30H11V31H13V32H14V33H15V34H16V35H17V36H18V37H19V38H20V39H22V40H23V41H24V42H25V43H26V44H28V45H29V46H30V47H31V48H32V49H33V50H35V52H37V53H38V54H39V56H38V57H37V58H36V59H35V60H34V61H33V62H31V63H30V64H29V65H28V66H27V67H26V68H25V69H24V70H22V71H21V72H20V73H19V74H18V75H17V76H16V77H15V78H13V79H12V80H11V81H10V82H9V83H8V84H7V85H6V86H4V88H2V89H1V90H0V22V21ZM40 56H41V58H42V61H43V62H44V65H45V68H46V71H47V73H48V75H49V78H50V81H51V83H52V86H53V89H54V90H55V93H56V96H57V99H58V101H59V103H60V106H61V109H62V110H19V107H20V105H21V102H22V99H23V98H24V95H25V92H26V90H27V87H28V85H29V83H30V80H31V78H32V75H33V73H34V70H35V68H36V65H37V62H38V60H39V58H40V57V56Z" fill="#ECC94B"/>
<path id="color_ffffff_1" fill-rule="evenodd" clip-rule="evenodd" d="M18 0H20V1H21V4H22V6H23V9H24V11H25V14H26V17H27V20H28V21H29V24H30V27H31V30H32V32H33V35H34V37H35V39H36V42H37V45H38V47H39V50H40V52H41V50H42V47H43V45H44V43H45V40H46V38H47V35H48V33H49V31H50V28H51V25H52V23H53V21H54V18H55V15H56V13H57V10H58V8H59V6H60V3H61V0H63V1H64V2H65V3H66V4H67V5H68V6H69V7H70V8H71V9H72V10H73V11H74V12H75V13H76V14H77V15H78V16H79V17H80V18H81V20H80V21H79V22H78V23H77V24H76V25H75V26H74V27H73V28H71V30H69V31H68V32H67V33H65V35H64V36H62V38H60V39H59V40H58V41H56V43H54V44H53V45H52V46H51V47H50V48H49V49H47V51H45V52H44V53H43V54H42V56H43V57H44V58H45V59H46V60H48V61H49V62H50V63H51V64H52V65H53V66H54V67H55V68H57V69H58V70H59V71H60V72H61V73H62V74H64V75H65V76H66V77H67V78H68V79H70V81H72V82H73V83H74V84H75V85H76V86H77V87H79V88H80V89H81V92H80V93H79V94H78V95H77V96H76V97H75V98H74V99H73V100H72V101H71V102H70V103H69V104H68V105H67V106H66V107H65V108H64V109H63V110H62V109H61V106H60V103H59V101H58V99H57V96H56V93H55V90H54V89H53V86H52V83H51V81H50V78H49V75H48V73H47V71H46V68H45V65H44V62H43V61H42V58H41V56H40V58H39V60H38V62H37V65H36V68H35V70H34V73H33V75H32V78H31V80H30V83H29V85H28V87H27V90H26V92H25V95H24V98H23V99H22V102H21V105H20V107H19V110H18V109H17V108H16V107H15V106H14V105H13V104H12V103H11V102H10V101H9V100H8V99H7V98H6V97H5V96H4V95H3V94H2V93H1V92H0V90H1V89H2V88H4V86H6V85H7V84H8V83H9V82H10V81H11V80H12V79H13V78H15V77H16V76H17V75H18V74H19V73H20V72H21V71H22V70H24V69H25V68H26V67H27V66H28V65H29V64H30V63H31V62H33V61H34V60H35V59H36V58H37V57H38V56H39V54H38V53H37V52H35V50H33V49H32V48H31V47H30V46H29V45H28V44H26V43H25V42H24V41H23V40H22V39H20V38H19V37H18V36H17V35H16V34H15V33H14V32H13V31H11V30H10V29H9V28H8V27H7V26H6V25H4V24H3V23H2V22H1V21H0V18H1V17H2V16H3V15H4V14H5V13H6V12H7V11H8V10H9V9H10V8H11V7H12V6H13V5H14V4H15V3H16V2H17V1H18V0Z" fill="#D69E2E"/>
</g>
<path id="Union" d="M41 18H39.75V19.25H41V18ZM42 18H43.25V16.75H42V18ZM42 20H40.75V21.25H42V20ZM43 20H44.25V18.75H43V20ZM43 21H41.75V22.25H43V21ZM45 21H46.25V19.75H45V21ZM45 22H43.75V23.25H45V22ZM48 22H49.25V20.75H48V22ZM48 23H46.75V24.25H48V23ZM49 23H50.25V21.75H49V23ZM49 24H47.75V25.25H49V24ZM51 24H52.25V22.75H51V24ZM51 25H49.75V26.25H51V25ZM52 25H53.25V23.75H52V25ZM52 26H50.75V27.25H52V26ZM53 26H54.25V24.75H53V26ZM53 28H51.75V29.25H53V28ZM54 28H55.25V26.75H54V28ZM54 30H52.75V31.25H54V30ZM55 30H56.25V28.75H55V30ZM55 31H53.75V32.25H55V31ZM56 31H57.25V29.75H56V31ZM56 32H54.75V33.25H56V32ZM57 32H58.25V30.75H57V32ZM57 33H55.75V34.25H57V33ZM59 33H60.25V31.75H59V33ZM59 34H57.75V35.25H59V34ZM64 34H65.25V32.75H64V34ZM64 35V36.25H65.25V35H64ZM59 35V33.75H57.75V35H59ZM59 36V37.25H60.25V36H59ZM57 36V34.75H55.75V36H57ZM57 37V38.25H58.25V37H57ZM56 37V35.75H54.75V37H56ZM56 38V39.25H57.25V38H56ZM55 38V36.75H53.75V38H55ZM55 39V40.25H56.25V39H55ZM54 39V37.75H52.75V39H54ZM54 41V42.25H55.25V41H54ZM53 41V39.75H51.75V41H53ZM53 43V44.25H54.25V43H53ZM52 43V41.75H50.75V43H52ZM52 44V45.25H53.25V44H52ZM51 44V42.75H49.75V44H51ZM51 45V46.25H52.25V45H51ZM49 45V43.75H47.75V45H49ZM49 46V47.25H50.25V46H49ZM48 46V44.75H46.75V46H48ZM48 47V48.25H49.25V47H48ZM45 47V45.75H43.75V47H45ZM45 48V49.25H46.25V48H45ZM44 48V46.75H42.75V48H44ZM44 51V52.25H45.25V51H44ZM43 51V49.75H41.75V51H43ZM43 56V57.25H44.25V56H43ZM42 56V54.75H40.75V56H42ZM42 70H40.75V71.25H42V70ZM43 70H44.25V68.75H43V70ZM43 85H41.75V86.25H43V85ZM44 85H45.25V83.75H44V85ZM44 89H42.75V90.25H44V89ZM45 89H46.25V87.75H45V89ZM45 94V95.25H46.25V94H45ZM44 94V92.75H42.75V94H44ZM44 95V96.25H45.25V95H44ZM43 95V93.75H41.75V95H43ZM43 96V97.25H44.25V96H43ZM41 96V94.75H39.75V96H41ZM41 97V98.25H42.25V97H41ZM40 97H38.75V98.25H40V97ZM40 96H41.25V94.75H40V96ZM38 96H36.75V97.25H38V96ZM38 95H39.25V93.75H38V95ZM37 95H35.75V96.25H37V95ZM37 94H38.25V92.75H37V94ZM36 94H34.75V95.25H36V94ZM36 89V87.75H34.75V89H36ZM37 89V90.25H38.25V89H37ZM37 85V83.75H35.75V85H37ZM38 85V86.25H39.25V85H38ZM38 70V68.75H36.75V70H38ZM39 70V71.25H40.25V70H39ZM39 56H40.25V54.75H39V56ZM38 56H36.75V57.25H38V56ZM38 51H39.25V49.75H38V51ZM37 51H35.75V52.25H37V51ZM37 48H38.25V46.75H37V48ZM36 48H34.75V49.25H36V48ZM36 47H37.25V45.75H36V47ZM33 47H31.75V48.25H33V47ZM33 46H34.25V44.75H33V46ZM32 46H30.75V47.25H32V46ZM32 45H33.25V43.75H32V45ZM30 45H28.75V46.25H30V45ZM30 44H31.25V42.75H30V44ZM29 44H27.75V45.25H29V44ZM29 43H30.25V41.75H29V43ZM28 43H26.75V44.25H28V43ZM28 41H29.25V39.75H28V41ZM27 41H25.75V42.25H27V41ZM27 39H28.25V37.75H27V39ZM26 39H24.75V40.25H26V39ZM26 38H27.25V36.75H26V38ZM25 38H23.75V39.25H25V38ZM25 37H26.25V35.75H25V37ZM24 37H22.75V38.25H24V37ZM24 36H25.25V34.75H24V36ZM22 36H20.75V37.25H22V36ZM22 35H23.25V33.75H22V35ZM17 35H15.75V36.25H17V35ZM17 34V32.75H15.75V34H17ZM22 34V35.25H23.25V34H22ZM22 33V31.75H20.75V33H22ZM24 33V34.25H25.25V33H24ZM24 32V30.75H22.75V32H24ZM25 32V33.25H26.25V32H25ZM25 31V29.75H23.75V31H25ZM26 31V32.25H27.25V31H26ZM26 30V28.75H24.75V30H26ZM27 30V31.25H28.25V30H27ZM27 28V26.75H25.75V28H27ZM28 28V29.25H29.25V28H28ZM28 26V24.75H26.75V26H28ZM29 26V27.25H30.25V26H29ZM29 25V23.75H27.75V25H29ZM30 25V26.25H31.25V25H30ZM30 24V22.75H28.75V24H30ZM31 24V25.25H32.25V24H31ZM31 23V21.75H29.75V23H31ZM33 23V24.25H34.25V23H33ZM33 22V20.75H31.75V22H33ZM35 22V23.25H36.25V22H35ZM35 21V19.75H33.75V21H35ZM38 21V22.25H39.25V21H38ZM38 20V18.75H36.75V20H38ZM39 20V21.25H40.25V20H39ZM39 18V16.75H37.75V18H39ZM40 18V19.25H41.25V18H40ZM40 12V10.75H38.75V12H40ZM41 12H42.25V10.75H41V12ZM41 18V19.25H42V18V16.75H41V18ZM42 18H40.75V20H42H43.25V18H42ZM42 20V21.25H43V20V18.75H42V20ZM43 20H41.75V21H43H44.25V20H43ZM43 21V22.25H45V21V19.75H43V21ZM45 21H43.75V22H45H46.25V21H45ZM45 22V23.25H48V22V20.75H45V22ZM48 22H46.75V23H48H49.25V22H48ZM48 23V24.25H49V23V21.75H48V23ZM49 23H47.75V24H49H50.25V23H49ZM49 24V25.25H51V24V22.75H49V24ZM51 24H49.75V25H51H52.25V24H51ZM51 25V26.25H52V25V23.75H51V25ZM52 25H50.75V26H52H53.25V25H52ZM52 26V27.25H53V26V24.75H52V26ZM53 26H51.75V28H53H54.25V26H53ZM53 28V29.25H54V28V26.75H53V28ZM54 28H52.75V30H54H55.25V28H54ZM54 30V31.25H55V30V28.75H54V30ZM55 30H53.75V31H55H56.25V30H55ZM55 31V32.25H56V31V29.75H55V31ZM56 31H54.75V32H56H57.25V31H56ZM56 32V33.25H57V32V30.75H56V32ZM57 32H55.75V33H57H58.25V32H57ZM57 33V34.25H59V33V31.75H57V33ZM59 33H57.75V34H59H60.25V33H59ZM59 34V35.25H64V34V32.75H59V34ZM64 34H62.75V35H64H65.25V34H64ZM64 35V33.75H59V35V36.25H64V35ZM59 35H57.75V36H59H60.25V35H59ZM59 36V34.75H57V36V37.25H59V36ZM57 36H55.75V37H57H58.25V36H57ZM57 37V35.75H56V37V38.25H57V37ZM56 37H54.75V38H56H57.25V37H56ZM56 38V36.75H55V38V39.25H56V38ZM55 38H53.75V39H55H56.25V38H55ZM55 39V37.75H54V39V40.25H55V39ZM54 39H52.75V41H54H55.25V39H54ZM54 41V39.75H53V41V42.25H54V41ZM53 41H51.75V43H53H54.25V41H53ZM53 43V41.75H52V43V44.25H53V43ZM52 43H50.75V44H52H53.25V43H52ZM52 44V42.75H51V44V45.25H52V44ZM51 44H49.75V45H51H52.25V44H51ZM51 45V43.75H49V45V46.25H51V45ZM49 45H47.75V46H49H50.25V45H49ZM49 46V44.75H48V46V47.25H49V46ZM48 46H46.75V47H48H49.25V46H48ZM48 47V45.75H45V47V48.25H48V47ZM45 47H43.75V48H45H46.25V47H45ZM45 48V46.75H44V48V49.25H45V48ZM44 48H42.75V51H44H45.25V48H44ZM44 51V49.75H43V51V52.25H44V51ZM43 51H41.75V56H43H44.25V51H43ZM43 56V54.75H42V56V57.25H43V56ZM42 56H40.75V70H42H43.25V56H42ZM42 70V71.25H43V70V68.75H42V70ZM43 70H41.75V85H43H44.25V70H43ZM43 85V86.25H44V85V83.75H43V85ZM44 85H42.75V89H44H45.25V85H44ZM44 89V90.25H45V89V87.75H44V89ZM45 89H43.75V94H45H46.25V89H45ZM45 94V92.75H44V94V95.25H45V94ZM44 94H42.75V95H44H45.25V94H44ZM44 95V93.75H43V95V96.25H44V95ZM43 95H41.75V96H43H44.25V95H43ZM43 96V94.75H41V96V97.25H43V96ZM41 96H39.75V97H41H42.25V96H41ZM41 97V95.75H40V97V98.25H41V97ZM40 97H41.25V96H40H38.75V97H40ZM40 96V94.75H38V96V97.25H40V96ZM38 96H39.25V95H38H36.75V96H38ZM38 95V93.75H37V95V96.25H38V95ZM37 95H38.25V94H37H35.75V95H37ZM37 94V92.75H36V94V95.25H37V94ZM36 94H37.25V89H36H34.75V94H36ZM36 89V90.25H37V89V87.75H36V89ZM37 89H38.25V85H37H35.75V89H37ZM37 85V86.25H38V85V83.75H37V85ZM38 85H39.25V70H38H36.75V85H38ZM38 70V71.25H39V70V68.75H38V70ZM39 70H40.25V56H39H37.75V70H39ZM39 56V54.75H38V56V57.25H39V56ZM38 56H39.25V51H38H36.75V56H38ZM38 51V49.75H37V51V52.25H38V51ZM37 51H38.25V48H37H35.75V51H37ZM37 48V46.75H36V48V49.25H37V48ZM36 48H37.25V47H36H34.75V48H36ZM36 47V45.75H33V47V48.25H36V47ZM33 47H34.25V46H33H31.75V47H33ZM33 46V44.75H32V46V47.25H33V46ZM32 46H33.25V45H32H30.75V46H32ZM32 45V43.75H30V45V46.25H32V45ZM30 45H31.25V44H30H28.75V45H30ZM30 44V42.75H29V44V45.25H30V44ZM29 44H30.25V43H29H27.75V44H29ZM29 43V41.75H28V43V44.25H29V43ZM28 43H29.25V41H28H26.75V43H28ZM28 41V39.75H27V41V42.25H28V41ZM27 41H28.25V39H27H25.75V41H27ZM27 39V37.75H26V39V40.25H27V39ZM26 39H27.25V38H26H24.75V39H26ZM26 38V36.75H25V38V39.25H26V38ZM25 38H26.25V37H25H23.75V38H25ZM25 37V35.75H24V37V38.25H25V37ZM24 37H25.25V36H24H22.75V37H24ZM24 36V34.75H22V36V37.25H24V36ZM22 36H23.25V35H22H20.75V36H22ZM22 35V33.75H17V35V36.25H22V35ZM17 35H18.25V34H17H15.75V35H17ZM17 34V35.25H22V34V32.75H17V34ZM22 34H23.25V33H22H20.75V34H22ZM22 33V34.25H24V33V31.75H22V33ZM24 33H25.25V32H24H22.75V33H24ZM24 32V33.25H25V32V30.75H24V32ZM25 32H26.25V31H25H23.75V32H25ZM25 31V32.25H26V31V29.75H25V31ZM26 31H27.25V30H26H24.75V31H26ZM26 30V31.25H27V30V28.75H26V30ZM27 30H28.25V28H27H25.75V30H27ZM27 28V29.25H28V28V26.75H27V28ZM28 28H29.25V26H28H26.75V28H28ZM28 26V27.25H29V26V24.75H28V26ZM29 26H30.25V25H29H27.75V26H29ZM29 25V26.25H30V25V23.75H29V25ZM30 25H31.25V24H30H28.75V25H30ZM30 24V25.25H31V24V22.75H30V24ZM31 24H32.25V23H31H29.75V24H31ZM31 23V24.25H33V23V21.75H31V23ZM33 23H34.25V22H33H31.75V23H33ZM33 22V23.25H35V22V20.75H33V22ZM35 22H36.25V21H35H33.75V22H35ZM35 21V22.25H38V21V19.75H35V21ZM38 21H39.25V20H38H36.75V21H38ZM38 20V21.25H39V20V18.75H38V20ZM39 20H40.25V18H39H37.75V20H39ZM39 18V19.25H40V18V16.75H39V18ZM40 18H41.25V12H40H38.75V18H40ZM40 12V13.25H41V12V10.75H40V12ZM41 12H39.75V18H41H42.25V12H41Z" fill="#B2B0B0"/>
<g id="Okey_m&#195;&#188;hr&#195;&#188; 1">
<path id="color_c082ba_1" fill-rule="evenodd" clip-rule="evenodd" d="M38 23H43V24H46V25H47V26H49V27H50V28H51V30H52V32H53V33H54V36H53V37H52V39H51V41H50V42H49V43H47V44H46V45H43V46H38V45H35V44H34V43H32V42H31V41H30V39H29V37H28V36H27V33H28V32H29V30H30V28H31V27H32V26H34V25H35V24H38V23ZM41 28H40V29H39V30H38V33H37V36H38V39H39V40H40V41H41V40H42V39H43V36H44V33H43V30H42V29H41V28Z" fill="#C082BA"/>
<path id="color_51234c_1" fill-rule="evenodd" clip-rule="evenodd" d="M37 22H44V23H47V24H48V25H50V26H51V27H52V29H53V31H54V32H55V37H54V38H53V40H52V42H51V43H50V44H48V45H47V46H44V47H37V46H34V45H33V44H31V43H30V42H29V40H28V38H27V37H26V32H27V31H28V29H29V27H30V26H31V25H33V24H34V23H37V22ZM39 23H38V24H35V25H34V26H32V27H31V28H30V30H29V32H28V33H27V36H28V37H29V39H30V41H31V42H32V43H34V44H35V45H38V46H43V45H46V44H47V43H49V42H50V41H51V39H52V37H53V36H54V33H53V32H52V30H51V28H50V27H49V26H47V25H46V24H43V23H40H39ZM37 48H38V49H39V51H40V89H39V90H38V93H39V94H40V95H41V94H42V93H43V90H42V89H41V51H42V49H43V48H44V51H43V56H42V70H43V85H44V89H45V94H44V95H43V96H41V97H40V96H38V95H37V94H36V89H37V85H38V70H39V56H38V51H37V49V48Z" fill="#51234C"/>
<path id="color_6e3368_1" fill-rule="evenodd" clip-rule="evenodd" d="M40 12H41V18H42V20H43V21H45V22H48V23H49V24H51V25H52V26H53V28H54V30H55V31H56V32H57V33H59V34H64V35H59V36H57V37H56V38H55V39H54V41H53V43H52V44H51V45H49V46H48V47H45V48H43V49H42V51H41V89H42V90H43V93H42V94H41V95H40V94H39V93H38V90H39V89H40V51H39V49H38V48H36V47H33V46H32V45H30V44H29V43H28V41H27V39H26V38H25V37H24V36H22V35H17V34H22V33H24V32H25V31H26V30H27V28H28V26H29V25H30V24H31V23H33V22H35V21H38V20H39V18H40V13V12ZM38 22H37V23H34V24H33V25H31V26H30V27H29V29H28V31H27V32H26V37H27V38H28V40H29V42H30V43H31V44H33V45H34V46H37V47H44V46H47V45H48V44H50V43H51V42H52V40H53V38H54V37H55V32H54V31H53V29H52V27H51V26H50V25H48V24H47V23H44V22H39H38Z" fill="#6E3368"/>
<path id="color_ee99e6_1" fill-rule="evenodd" clip-rule="evenodd" d="M40 28H41V29H42V30H43V33H44V36H43V39H42V40H41V41H40V40H39V39H38V36H37V33H38V30H39V29H40V28ZM41 30H40V31H39V38H40V39H41V38H42V31H41V30Z" fill="#EE99E6"/>
<path id="color_381c36_1" fill-rule="evenodd" clip-rule="evenodd" d="M40 30H41V31H42V38H41V39H40V38H39V31H40V30Z" fill="#381C36"/>
</g>
</g>
</svg>
